<?xml version="1.0" encoding="utf-8"?>
<!-- Generator: Adobe Illustrator 26.1.0, SVG Export Plug-In . SVG Version: 6.00 Build 0)  -->
<svg version="1.1" id="Layer_1" xmlns="http://www.w3.org/2000/svg" xmlns:xlink="http://www.w3.org/1999/xlink" x="0px" y="0px"
	 viewBox="0 0 300 300" style="enable-background:new 0 0 300 300;" xml:space="preserve">
<style type="text/css">
	.st0{fill:#FFFFFF;}
	.st1{stroke:#000000;stroke-width:4;stroke-miterlimit:10;}
	.st2{fill:#FFFFFF;stroke:#000000;stroke-width:2;stroke-miterlimit:10;}
</style>
<path id="Ear" d="M110.24,113.04c4.93,20.91-28.5,33.16-43.3,25.42s-15.13-30.07-10.29-53.43c4.84-23.36,49.1-82.36,63.9-74.63
	S101.59,76.36,110.24,113.04z"/>
<path id="Ear_1_" d="M189.76,113.04c-4.93,20.91,28.5,33.16,43.3,25.42c14.8-7.73,15.13-30.07,10.29-53.43
	c-4.84-23.36-49.1-82.36-63.9-74.63C164.66,18.14,198.41,76.36,189.76,113.04z"/>
<g>
	<path class="st0" d="M159.83,121.81h-19.66c-27.63,0-50.03,22.4-50.03,50.03v23.01c0,14.3,6,27.19,15.61,36.31v45.67
		c0,11.72,9.5,21.21,21.21,21.21h1.07c11.72,0,21.21-9.5,21.21-21.21v-31.95h1.49v31.95c0,11.72,9.5,21.21,21.21,21.21h1.07
		c11.72,0,21.21-9.5,21.21-21.21v-45.67c9.62-9.12,15.61-22.01,15.61-36.31v-23.01C209.86,144.2,187.46,121.81,159.83,121.81z"/>
	<path d="M173.03,300h-1.07c-10.18,0-18.85-6.6-21.96-15.74c-3.11,9.14-11.78,15.74-21.96,15.74h-1.07
		c-12.78,0-23.19-10.4-23.19-23.19v-44.83c-10.08-9.86-15.61-23.02-15.61-37.15v-23.01c0-28.67,23.33-52,52-52h19.66
		c28.67,0,52,23.33,52,52v23.01c0,14.13-5.54,27.29-15.61,37.15v44.83C196.21,289.6,185.81,300,173.03,300z M147.29,242.89h5.43
		v33.92c0,10.61,8.63,19.24,19.24,19.24h1.07c10.61,0,19.24-8.63,19.24-19.24V230.3l0.61-0.58c9.67-9.17,15-21.56,15-34.88v-23.01
		c0-26.5-21.56-48.06-48.06-48.06h-19.66c-26.5,0-48.06,21.56-48.06,48.06v23.01c0,13.32,5.33,25.71,15,34.88l0.61,0.58v46.51
		c0,10.61,8.63,19.24,19.24,19.24h1.07c10.61,0,19.24-8.63,19.24-19.24V242.89z"/>
</g>
<g>
	<path d="M145.37,186.84c-2.24-0.09-4.41-0.25-6.51-0.46l-2.25,58.01c2.44,0.38,4.99,0.68,7.62,0.89L145.37,186.84z"/>
	<path d="M137.38,186.22c-2.37-0.28-4.62-0.63-6.73-1.06l-4.42,56.97c2.73,0.8,5.72,1.47,8.9,2.02L137.38,186.22z"/>
	<path d="M124.77,241.68l4.41-56.84c-2.25-0.5-4.3-1.08-6.12-1.73l-6.44,55.19C118.93,239.57,121.67,240.7,124.77,241.68z"/>
	<path d="M121.63,182.57c-2.86-1.16-5-2.5-6.22-3.95l-8.25,52.79c1.85,1.66,3.82,3.2,5.89,4.58c0.65,0.52,1.38,1.02,2.16,1.51
		L121.63,182.57z"/>
	<path d="M105.85,230.18l8.42-53.92c-0.02-0.11-0.03-0.23-0.03-0.34c0-0.02,0-0.05,0-0.07c0-0.02,0-0.05,0-0.07
		c0-0.03,0-0.05,0-0.08c0-0.04,0-0.08,0-0.12c0.02-0.27,0.06-0.54,0.14-0.81l9.88-51.81c-2.64,0.94-5.18,2.08-7.6,3.42l-18.64,94.16
		C100.23,224.06,102.87,227.3,105.85,230.18z"/>
	<path d="M150,186.93c-1.06,0-2.11-0.02-3.15-0.04l-1.13,58.51c1.41,0.1,2.83,0.17,4.28,0.22V186.93z"/>
</g>
<g>
	<path d="M154.63,186.84c2.24-0.09,4.41-0.25,6.51-0.46l2.25,58.01c-2.44,0.38-4.99,0.68-7.62,0.89L154.63,186.84z"/>
	<path d="M162.62,186.22c2.37-0.28,4.62-0.63,6.73-1.06l4.42,56.97c-2.73,0.8-5.72,1.47-8.9,2.02L162.62,186.22z"/>
	<path d="M175.23,241.68l-4.41-56.84c2.25-0.5,4.3-1.08,6.12-1.73l6.44,55.19C181.07,239.57,178.33,240.7,175.23,241.68z"/>
	<path d="M178.37,182.57c2.86-1.16,5-2.5,6.22-3.95l8.25,52.79c-1.85,1.66-3.82,3.2-5.89,4.58c-0.65,0.52-1.38,1.02-2.16,1.51
		L178.37,182.57z"/>
	<path d="M194.15,230.18l-8.42-53.92c0.02-0.11,0.03-0.23,0.03-0.34c0-0.02,0-0.05,0-0.07c0-0.02,0-0.05,0-0.07
		c0-0.03,0-0.05,0-0.08c0-0.04,0-0.08,0-0.12c-0.02-0.27-0.06-0.54-0.14-0.81l-9.88-51.81c2.64,0.94,5.18,2.08,7.6,3.42l18.64,94.16
		C199.77,224.06,197.13,227.3,194.15,230.18z"/>
	<path d="M150,186.93c1.06,0,2.11-0.02,3.15-0.04l1.13,58.51c-1.41,0.1-2.83,0.17-4.28,0.22V186.93z"/>
</g>
<g>
	<path id="Head_00000145050686669971205910000018172821356598480267_" class="st0" d="M161.95,2.46H150h-11.95
		c-23.1,0-41.83,18.73-41.83,41.83l6.19,57.07c5.2,29.74,15.61,74.73,41.61,73.2H150h5.98c26,1.53,36.41-43.46,41.61-73.2
		l6.19-57.07C203.78,21.19,185.05,2.46,161.95,2.46z"/>
	<path d="M157.3,177.06c-0.46,0-0.93-0.01-1.4-0.04H144.1c-0.47,0.03-0.94,0.04-1.4,0.04c-26.44,0-37.03-42.8-42.71-75.28
		l-0.02-0.16l-6.21-57.33C93.76,19.87,113.63,0,138.05,0h23.9c24.42,0,44.29,19.87,44.29,44.29l-0.01,0.27l-6.21,57.23
		C194.33,134.26,183.74,177.06,157.3,177.06z M143.95,172.09l12.17,0c26.31,1.55,35.87-53.02,39.03-71.09l6.17-56.85
		c-0.07-21.65-17.7-39.23-39.37-39.23h-23.9c-21.66,0-39.29,17.59-39.37,39.23l6.17,56.85c3.16,18.06,12.72,72.66,39.03,71.09
		L143.95,172.09z"/>
</g>
<path id="Shades_1_" d="M127.82,77.55l-11.82-0.01c-11.09-0.01-20.07-9-20.07-20.09v0c0-4.62,3.75-8.36,8.37-8.36l35.25,0.02
	c4.62,0,8.36,3.75,8.36,8.37v0C147.91,68.57,138.91,77.56,127.82,77.55z"/>
<rect id="Shades_2_" x="144.02" y="54.38" class="st1" width="11.95" height="5.38"/>
<path id="Shades" d="M183.99,77.59l-11.82-0.01c-11.09-0.01-20.07-9-20.07-20.09v0c0-4.62,3.75-8.36,8.37-8.36l35.25,0.02
	c4.62,0,8.36,3.75,8.36,8.37v0C204.07,68.61,195.08,77.59,183.99,77.59z"/>
<rect x="178.53" y="201.22" transform="matrix(0.9397 -0.342 0.342 0.9397 -58.0051 74.6641)" width="8.37" height="1.2"/>
<rect x="179.15" y="202.9" transform="matrix(0.9397 -0.342 0.342 0.9397 -58.5443 74.9754)" width="8.37" height="1.2"/>
<rect x="156.24" y="178.28" transform="matrix(-0.342 -0.9397 0.9397 -0.342 64.5681 408.9427)" class="st2" width="38.44" height="7.17"/>
<path id="Nose" d="M159.14,176.27h-17.69c-9.24,0-16.73-7.49-16.73-16.73v0c0-9.24,7.49-16.73,16.73-16.73h17.69
	c9.24,0,16.73,7.49,16.73,16.73v0C175.88,168.77,168.39,176.27,159.14,176.27z"/>
</svg>
