<?xml version="1.0" encoding="UTF-8"?>
<svg xmlns="http://www.w3.org/2000/svg" version="1.1" viewBox="0 0 300 300">
  <!-- Generator: Adobe Illustrator 29.3.1, SVG Export Plug-In . SVG Version: 2.1.0 Build 151)  -->
  <defs>
    <style>
      .st0 {
        fill: #231f20;
      }

      .st1 {
        fill: #fff;
      }

      .st2 {
        display: none;
      }
    </style>
  </defs>
  <g id="WHITE">
    <path class="st1" d="M281.91,0H18.08C8.11,0,0,8.11,0,18.08v263.83c0,9.97,8.11,18.09,18.08,18.09h263.83c9.97,0,18.09-8.11,18.09-18.09V18.08c0-9.97-8.11-18.08-18.09-18.08ZM281.25,18.75v36.39h-29.94c-2.38-11.23-12.37-19.69-24.3-19.69s-21.92,8.46-24.3,19.69h-28.4c-2.38-11.23-12.37-19.69-24.3-19.69s-21.92,8.46-24.3,19.69h-27.33c-2.38-11.23-12.37-19.69-24.3-19.69s-21.92,8.46-24.3,19.69h-31.01V18.75h262.5ZM241.37,60.3c0,1.82-.35,3.55-.97,5.16h.18c-2.09,5.47-7.37,9.38-13.57,9.38s-11.48-3.9-13.57-9.38h.18c-.62-1.6-.97-3.34-.97-5.16s.35-3.55.97-5.16h-.18c2.09-5.47,7.37-9.38,13.57-9.38s11.48,3.9,13.57,9.38h-.18c.62,1.6.97,3.34.97,5.16ZM164.49,60.3c0,1.82-.35,3.55-.96,5.16h.04c-2.09,5.47-7.37,9.38-13.57,9.38s-11.48-3.9-13.57-9.38h.04c-.61-1.6-.96-3.34-.96-5.16s.35-3.55.96-5.16h-.04c2.09-5.47,7.37-9.38,13.57-9.38s11.48,3.9,13.57,9.38h-.04c.61,1.6.96,3.34.96,5.16ZM59.53,60.3c0-8.01,6.52-14.53,14.53-14.53s14.53,6.52,14.53,14.53-6.52,14.53-14.53,14.53-14.53-6.52-14.53-14.53ZM18.75,281.25V65.46h31.01c2.38,11.23,12.37,19.69,24.3,19.69s21.92-8.46,24.3-19.69h27.33c2.38,11.23,12.37,19.69,24.3,19.69s21.92-8.46,24.3-19.69h28.4c2.38,11.23,12.37,19.69,24.3,19.69s21.92-8.46,24.3-19.69h29.94v215.79H18.75Z"/>
    <path class="st1" d="M241.13,149.47H58.87c-10.95,0-19.86,8.91-19.86,19.86v75.99c0,10.95,8.91,19.86,19.86,19.86h182.27c10.95,0,19.86-8.91,19.86-19.86v-75.99c0-10.95-8.91-19.86-19.86-19.86ZM246.93,245.31c0,3.2-2.6,5.8-5.8,5.8H58.87c-3.2,0-5.8-2.6-5.8-5.8v-75.99c0-3.2,2.6-5.8,5.8-5.8h182.27c3.2,0,5.8,2.6,5.8,5.8v75.99Z"/>
    <path class="st1" d="M257.67,112.36H42.33c-2.85,0-5.16,2.31-5.16,5.16s2.31,5.16,5.16,5.16h215.35c2.85,0,5.16-2.31,5.16-5.16s-2.31-5.16-5.16-5.16Z"/>
  </g>
  <g id="BLACK" class="st2">
    <path class="st0" d="M281.91,0H18.08C8.11,0,0,8.11,0,18.08v263.83c0,9.97,8.11,18.09,18.08,18.09h263.83c9.97,0,18.09-8.11,18.09-18.09V18.08c0-9.97-8.11-18.08-18.09-18.08ZM281.25,18.75v36.39h-29.94c-2.38-11.23-12.37-19.69-24.3-19.69s-21.92,8.46-24.3,19.69h-28.4c-2.38-11.23-12.37-19.69-24.3-19.69s-21.92,8.46-24.3,19.69h-27.33c-2.38-11.23-12.37-19.69-24.3-19.69s-21.92,8.46-24.3,19.69h-31.01V18.75h262.5ZM241.37,60.3c0,1.82-.35,3.55-.97,5.16h.18c-2.09,5.47-7.37,9.38-13.57,9.38s-11.48-3.9-13.57-9.38h.18c-.62-1.6-.97-3.34-.97-5.16s.35-3.55.97-5.16h-.18c2.09-5.47,7.37-9.38,13.57-9.38s11.48,3.9,13.57,9.38h-.18c.62,1.6.97,3.34.97,5.16ZM164.49,60.3c0,1.82-.35,3.55-.96,5.16h.04c-2.09,5.47-7.37,9.38-13.57,9.38s-11.48-3.9-13.57-9.38h.04c-.61-1.6-.96-3.34-.96-5.16s.35-3.55.96-5.16h-.04c2.09-5.47,7.37-9.38,13.57-9.38s11.48,3.9,13.57,9.38h-.04c.61,1.6.96,3.34.96,5.16ZM59.53,60.3c0-8.01,6.52-14.53,14.53-14.53s14.53,6.52,14.53,14.53-6.52,14.53-14.53,14.53-14.53-6.52-14.53-14.53ZM18.75,281.25V65.46h31.01c2.38,11.23,12.37,19.69,24.3,19.69s21.92-8.46,24.3-19.69h27.33c2.38,11.23,12.37,19.69,24.3,19.69s21.92-8.46,24.3-19.69h28.4c2.38,11.23,12.37,19.69,24.3,19.69s21.92-8.46,24.3-19.69h29.94v215.79H18.75Z"/>
    <path class="st0" d="M241.13,149.47H58.87c-10.95,0-19.86,8.91-19.86,19.86v75.99c0,10.95,8.91,19.86,19.86,19.86h182.27c10.95,0,19.86-8.91,19.86-19.86v-75.99c0-10.95-8.91-19.86-19.86-19.86ZM246.93,245.31c0,3.2-2.6,5.8-5.8,5.8H58.87c-3.2,0-5.8-2.6-5.8-5.8v-75.99c0-3.2,2.6-5.8,5.8-5.8h182.27c3.2,0,5.8,2.6,5.8,5.8v75.99Z"/>
    <path class="st0" d="M257.67,112.36H42.33c-2.85,0-5.16,2.31-5.16,5.16s2.31,5.16,5.16,5.16h215.35c2.85,0,5.16-2.31,5.16-5.16s-2.31-5.16-5.16-5.16Z"/>
  </g>
</svg>