<?xml version="1.0" encoding="UTF-8"?>
<svg xmlns="http://www.w3.org/2000/svg" version="1.1" viewBox="0 0 300 300">
  <!-- Generator: Adobe Illustrator 29.3.1, SVG Export Plug-In . SVG Version: 2.1.0 Build 151)  -->
  <defs>
    <style>
      .st0 {
        fill: #fff;
      }

      .st1 {
        display: none;
      }
    </style>
  </defs>
  <g id="WHITE">
    <path class="st0" d="M285.83,20.77c1.05-.32,2.09-.29,3.14.01.84.25,9.49,10.49,10.16,11.79,2.57,4.95-1.21,14.32-3.24,19.34-1.61,3.99-10.44,18.24-10.69,20.08-.31,2.29,2.48,7.84,3.12,10.84,5.44,25.41-12.3,40.85-14.5,63.62-.32,3.34,1.06,11.83-1.24,13.66-5.07,4.04-12.4-6.62-14.1-6.22-15.71,24.91-37.09,46.93-59.66,65.74-42.89,35.74-132.33,92.33-179.73,35.98-25.26-30.03-26.94-73.79,3.95-100.42,45.33-39.08,117.27-30.65,162.16-71.13.36-2.18-9.88-9.42-7.42-14.34,1.75-3.49,7.55-.91,10.51-.85,15.9.36,26.51-15.76,41.47-19.1,6.14-1.37,12.66-1.06,18.84,0,4.08.7,13.26,4.76,16.19,3.52,5.69-2.4,12.66-15.13,15.31-20.69,1.33-2.79,3.25-11.1,5.72-11.85ZM265.92,148.64c.54-23.46,21.12-43.34,13.99-67.02-.75-2.48-4.3-8.05-4.16-9.56.13-1.35,6.05-9.6,7.29-11.95,2.34-4.45,9.33-18.1,9.1-22.42-.08-1.57-2.04-3.51-2.99-4.78l-10.97,18.83c-3.64,3.46-10.75,11.82-15.98,10.81-8.53-1.64-15.16-6.89-25.54-5.88-17.11,1.68-28.31,19.55-45.26,20.08-.35,1.65.82,2.11,1.82,2.99,4.21,3.71,12.64,6.35,18.13,7.3,13.59,2.36,22.73-2.51,12.64,15.72-5.81,10.49-13.36,15.59-22.95,22.2,13.69,5.07,27.02-2.91,37.61-11.04,2.9-2.22,11.89-11.59,13.28-12.21,1.82-.82,3.48.09,4.79,1.34.55,13.39-4.25,27.19,3.22,39.74.54.91,4.87,7.12,5.98,5.85ZM218.58,96.04c-9.14-1.56-18.14-2.91-26.56-6.94-44.19,41.77-116.88,33.61-162.36,70.96-42.86,35.19-16.44,107.18,35.94,111.32,57.57,4.54,139.27-59.77,173.12-103.05,2.78-3.55,13.07-17,13.91-20.36.47-1.87-3.5-10.3-4.13-13.89-.94-5.34-1.28-11.73-.1-17l-16.64,10.97c-10.94,5.89-20.36,8.63-32.66,4.56-1.84-.61-9.59-4.38-10.36-5.63-3.94-6.38,6.7-8.45,10.83-10.96,8.69-5.28,14.68-10.53,19.02-19.99Z"/>
    <path class="st0" d="M29.84,193.12c-2.19,2.15-5.95.47-6.66-2.16-1.48-5.47,13.49-21.11,17.87-24.76,10.56-8.81,26.24-16.12,39.67-19.07,3-.66,9.53-2.29,9.54,2.82,0,4.64-10.84,5.12-14.43,6.31-14.35,4.76-30.37,14.06-39.61,26.15-1.87,2.45-5.32,9.67-6.38,10.71Z"/>
  </g>
  <g id="BLACK" class="st1">
    <path d="M285.83,20.77c1.05-.32,2.09-.29,3.14.01.84.25,9.49,10.49,10.16,11.79,2.57,4.95-1.21,14.32-3.24,19.34-1.61,3.99-10.44,18.24-10.69,20.08-.31,2.29,2.48,7.84,3.12,10.84,5.44,25.41-12.3,40.85-14.5,63.62-.32,3.34,1.06,11.83-1.24,13.66-5.07,4.04-12.4-6.62-14.1-6.22-15.71,24.91-37.09,46.93-59.66,65.74-42.89,35.74-132.33,92.33-179.73,35.98-25.26-30.03-26.94-73.79,3.95-100.42,45.33-39.08,117.27-30.65,162.16-71.13.36-2.18-9.88-9.42-7.42-14.34,1.75-3.49,7.55-.91,10.51-.85,15.9.36,26.51-15.76,41.47-19.1,6.14-1.37,12.66-1.06,18.84,0,4.08.7,13.26,4.76,16.19,3.52,5.69-2.4,12.66-15.13,15.31-20.69,1.33-2.79,3.25-11.1,5.72-11.85ZM265.92,148.64c.54-23.46,21.12-43.34,13.99-67.02-.75-2.48-4.3-8.05-4.16-9.56.13-1.35,6.05-9.6,7.29-11.95,2.34-4.45,9.33-18.1,9.1-22.42-.08-1.57-2.04-3.51-2.99-4.78l-10.97,18.83c-3.64,3.46-10.75,11.82-15.98,10.81-8.53-1.64-15.16-6.89-25.54-5.88-17.11,1.68-28.31,19.55-45.26,20.08-.35,1.65.82,2.11,1.82,2.99,4.21,3.71,12.64,6.35,18.13,7.3,13.59,2.36,22.73-2.51,12.64,15.72-5.81,10.49-13.36,15.59-22.95,22.2,13.69,5.07,27.02-2.91,37.61-11.04,2.9-2.22,11.89-11.59,13.28-12.21,1.82-.82,3.48.09,4.79,1.34.55,13.39-4.25,27.19,3.22,39.74.54.91,4.87,7.12,5.98,5.85ZM218.58,96.04c-9.14-1.56-18.14-2.91-26.56-6.94-44.19,41.77-116.88,33.61-162.36,70.96-42.86,35.19-16.44,107.18,35.94,111.32,57.57,4.54,139.27-59.77,173.12-103.05,2.78-3.55,13.07-17,13.91-20.36.47-1.87-3.5-10.3-4.13-13.89-.94-5.34-1.28-11.73-.1-17l-16.64,10.97c-10.94,5.89-20.36,8.63-32.66,4.56-1.84-.61-9.59-4.38-10.36-5.63-3.94-6.38,6.7-8.45,10.83-10.96,8.69-5.28,14.68-10.53,19.02-19.99Z"/>
    <path d="M29.84,193.12c-2.19,2.15-5.95.47-6.66-2.16-1.48-5.47,13.49-21.11,17.87-24.76,10.56-8.81,26.24-16.12,39.67-19.07,3-.66,9.53-2.29,9.54,2.82,0,4.64-10.84,5.12-14.43,6.31-14.35,4.76-30.37,14.06-39.61,26.15-1.87,2.45-5.32,9.67-6.38,10.71Z"/>
  </g>
</svg>