<?xml version="1.0" encoding="UTF-8"?>
<svg xmlns="http://www.w3.org/2000/svg" version="1.1" viewBox="0 0 300 300">
  <!-- Generator: Adobe Illustrator 29.3.1, SVG Export Plug-In . SVG Version: 2.1.0 Build 151)  -->
  <defs>
    <style>
      .st0 {
        fill: #231f20;
      }

      .st1 {
        fill: #fff;
      }

      .st2 {
        display: none;
      }
    </style>
  </defs>
  <g id="WHITE">
    <path class="st1" d="M279.37,8.88h-1.31c-11.38,0-20.63,9.26-20.63,20.63v23.96h-10.2c-2.61-12.86-14.01-22.58-27.63-22.58s-25.02,9.71-27.63,22.58h-14.33c-2.61-12.86-14.01-22.58-27.63-22.58s-25.02,9.71-27.63,22.58h-10.57c-2.61-12.86-14.01-22.58-27.63-22.58s-25.02,9.71-27.63,22.58h-13.96v-23.96c0-11.38-9.26-20.63-20.63-20.63h-1.31C9.26,8.88,0,18.14,0,29.52v240.96c0,11.38,9.26,20.64,20.63,20.64h1.31c11.38,0,20.63-9.26,20.63-20.64v-23.08h23.4c2.94,12.42,14.12,21.7,27.43,21.7s24.49-9.28,27.43-21.7h1.73c2.94,12.42,14.12,21.7,27.43,21.7s24.49-9.28,27.43-21.7h1.73c2.94,12.42,14.12,21.7,27.43,21.7s24.49-9.28,27.43-21.7h23.4v23.08c0,11.38,9.26,20.64,20.63,20.64h1.31c11.38,0,20.63-9.26,20.63-20.64V29.52c0-11.38-9.26-20.63-20.63-20.63ZM219.59,43.01c6.89,0,12.76,4.36,15.05,10.46h-.04c.66,1.75,1.03,3.64,1.03,5.62,0,2.31-.5,4.51-1.38,6.49h.04c-2.5,5.64-8.14,9.59-14.7,9.59s-12.2-3.95-14.7-9.59h.04c-.88-1.99-1.38-4.18-1.38-6.49,0-1.98.38-3.87,1.03-5.62h-.04c2.29-6.1,8.16-10.46,15.05-10.46ZM150,43.01c6.89,0,12.76,4.36,15.05,10.46h-.04c.66,1.75,1.03,3.64,1.03,5.62,0,2.31-.5,4.51-1.38,6.49h.04c-2.5,5.64-8.14,9.59-14.7,9.59s-12.2-3.95-14.7-9.59h.04c-.88-1.99-1.38-4.18-1.38-6.49,0-1.98.38-3.87,1.03-5.62h-.04c2.29-6.1,8.16-10.46,15.05-10.46ZM84.17,43.01c6.89,0,12.76,4.36,15.05,10.46h-.04c.66,1.75,1.03,3.64,1.03,5.62,0,2.31-.5,4.51-1.38,6.49h.04c-2.5,5.64-8.14,9.59-14.7,9.59s-12.2-3.95-14.7-9.59h.04c-.88-1.99-1.38-4.18-1.38-6.49,0-1.98.38-3.87,1.03-5.62h-.04c2.29-6.1,8.16-10.46,15.05-10.46ZM56.74,65.59c2.94,12.42,14.12,21.7,27.43,21.7s24.49-9.28,27.43-21.7h10.97c2.94,12.42,14.12,21.7,27.43,21.7s24.49-9.28,27.43-21.7h14.73c2.94,12.42,14.12,21.7,27.43,21.7s24.49-9.28,27.43-21.7h10.4v78.79h-1.35c-2.61-12.86-14.01-22.58-27.63-22.58s-25.02,9.71-27.63,22.58h-19.61c-2.61-12.86-14.01-22.58-27.63-22.58s-25.02,9.71-27.63,22.58h-10.45c-2.61-12.86-14.01-22.58-27.63-22.58s-25.02,9.71-27.63,22.58h-17.64v-78.79h14.16ZM244.47,150c0,2.31-.5,4.51-1.38,6.49h.04c-2.5,5.64-8.14,9.59-14.7,9.59s-12.2-3.95-14.7-9.59h.04c-.88-1.99-1.38-4.18-1.38-6.49,0-1.98.38-3.87,1.03-5.62h-.04c2.29-6.1,8.16-10.46,15.05-10.46s12.76,4.36,15.05,10.46h-.04c.66,1.75,1.03,3.64,1.03,5.62ZM169.6,150c0,2.31-.5,4.51-1.38,6.49h.04c-2.5,5.64-8.14,9.59-14.7,9.59s-12.2-3.95-14.7-9.59h.04c-.88-1.99-1.38-4.18-1.38-6.49,0-1.98.38-3.87,1.03-5.62h-.04c2.29-6.1,8.16-10.46,15.05-10.46s12.76,4.36,15.05,10.46h-.04c.66,1.75,1.03,3.64,1.03,5.62ZM103.9,150c0,2.31-.5,4.51-1.38,6.49h.04c-2.5,5.64-8.14,9.59-14.7,9.59s-12.2-3.95-14.7-9.59h.04c-.88-1.99-1.38-4.18-1.38-6.49,0-1.98.38-3.87,1.03-5.62h-.04c2.29-6.1,8.16-10.46,15.05-10.46s12.76,4.36,15.05,10.46h-.04c.66,1.75,1.03,3.64,1.03,5.62ZM30.47,270.48c0,4.7-3.82,8.52-8.52,8.52h-1.31c-4.7,0-8.52-3.82-8.52-8.52V29.52c0-4.7,3.82-8.52,8.52-8.52h1.31c4.7,0,8.52,3.82,8.52,8.52v240.96ZM93.41,256.99c-6.56,0-12.2-3.95-14.7-9.59h.04c-.88-1.99-1.38-4.18-1.38-6.49,0-1.98.38-3.87,1.03-5.62h-.04c2.29-6.1,8.16-10.46,15.05-10.46s12.76,4.36,15.05,10.46h-.04c.66,1.75,1.03,3.64,1.03,5.62,0,2.31-.5,4.51-1.38,6.49h.04c-2.5,5.64-8.14,9.59-14.7,9.59ZM150,256.99c-6.56,0-12.2-3.95-14.7-9.59h.04c-.88-1.99-1.38-4.18-1.38-6.49,0-1.98.38-3.87,1.03-5.62h-.04c2.29-6.1,8.16-10.46,15.05-10.46s12.76,4.36,15.05,10.46h-.04c.66,1.75,1.03,3.64,1.03,5.62,0,2.31-.5,4.51-1.38,6.49h.04c-2.5,5.64-8.14,9.59-14.7,9.59ZM206.59,256.99c-6.56,0-12.2-3.95-14.7-9.59h.04c-.88-1.99-1.38-4.18-1.38-6.49,0-1.98.38-3.87,1.03-5.62h-.04c2.29-6.1,8.16-10.46,15.05-10.46s12.76,4.36,15.05,10.46h-.04c.66,1.75,1.03,3.64,1.03,5.62,0,2.31-.5,4.51-1.38,6.49h.04c-2.5,5.64-8.14,9.59-14.7,9.59ZM234.22,235.29c-2.61-12.86-14.01-22.58-27.63-22.58s-25.02,9.71-27.63,22.58h-1.33c-2.61-12.86-14.01-22.58-27.63-22.58s-25.02,9.71-27.63,22.58h-1.33c-2.61-12.86-14.01-22.58-27.63-22.58s-25.02,9.71-27.63,22.58h-23.2v-78.79h17.84c2.94,12.42,14.12,21.7,27.43,21.7s24.49-9.28,27.43-21.7h10.85c2.94,12.42,14.12,21.7,27.43,21.7s24.49-9.28,27.43-21.7h20.01c2.94,12.42,14.12,21.7,27.43,21.7s24.49-9.28,27.43-21.7h1.55v78.79h-23.2ZM287.89,270.48c0,4.7-3.82,8.52-8.52,8.52h-1.31c-4.7,0-8.52-3.82-8.52-8.52V29.52c0-4.7,3.82-8.52,8.52-8.52h1.31c4.7,0,8.52,3.82,8.52,8.52v240.96Z"/>
  </g>
  <g id="BLACK" class="st2">
    <path class="st0" d="M279.37,8.88h-1.31c-11.38,0-20.63,9.26-20.63,20.63v23.96h-10.2c-2.61-12.86-14.01-22.58-27.63-22.58s-25.02,9.71-27.63,22.58h-14.33c-2.61-12.86-14.01-22.58-27.63-22.58s-25.02,9.71-27.63,22.58h-10.57c-2.61-12.86-14.01-22.58-27.63-22.58s-25.02,9.71-27.63,22.58h-13.96v-23.96c0-11.38-9.26-20.63-20.63-20.63h-1.31C9.26,8.88,0,18.14,0,29.52v240.96c0,11.38,9.26,20.64,20.63,20.64h1.31c11.38,0,20.63-9.26,20.63-20.64v-23.08h23.4c2.94,12.42,14.12,21.7,27.43,21.7s24.49-9.28,27.43-21.7h1.73c2.94,12.42,14.12,21.7,27.43,21.7s24.49-9.28,27.43-21.7h1.73c2.94,12.42,14.12,21.7,27.43,21.7s24.49-9.28,27.43-21.7h23.4v23.08c0,11.38,9.26,20.64,20.63,20.64h1.31c11.38,0,20.63-9.26,20.63-20.64V29.52c0-11.38-9.26-20.63-20.63-20.63ZM219.59,43.01c6.89,0,12.76,4.36,15.05,10.46h-.04c.66,1.75,1.03,3.64,1.03,5.62,0,2.31-.5,4.51-1.38,6.49h.04c-2.5,5.64-8.14,9.59-14.7,9.59s-12.2-3.95-14.7-9.59h.04c-.88-1.99-1.38-4.18-1.38-6.49,0-1.98.38-3.87,1.03-5.62h-.04c2.29-6.1,8.16-10.46,15.05-10.46ZM150,43.01c6.89,0,12.76,4.36,15.05,10.46h-.04c.66,1.75,1.03,3.64,1.03,5.62,0,2.31-.5,4.51-1.38,6.49h.04c-2.5,5.64-8.14,9.59-14.7,9.59s-12.2-3.95-14.7-9.59h.04c-.88-1.99-1.38-4.18-1.38-6.49,0-1.98.38-3.87,1.03-5.62h-.04c2.29-6.1,8.16-10.46,15.05-10.46ZM84.17,43.01c6.89,0,12.76,4.36,15.05,10.46h-.04c.66,1.75,1.03,3.64,1.03,5.62,0,2.31-.5,4.51-1.38,6.49h.04c-2.5,5.64-8.14,9.59-14.7,9.59s-12.2-3.95-14.7-9.59h.04c-.88-1.99-1.38-4.18-1.38-6.49,0-1.98.38-3.87,1.03-5.62h-.04c2.29-6.1,8.16-10.46,15.05-10.46ZM56.74,65.59c2.94,12.42,14.12,21.7,27.43,21.7s24.49-9.28,27.43-21.7h10.97c2.94,12.42,14.12,21.7,27.43,21.7s24.49-9.28,27.43-21.7h14.73c2.94,12.42,14.12,21.7,27.43,21.7s24.49-9.28,27.43-21.7h10.4v78.79h-1.35c-2.61-12.86-14.01-22.58-27.63-22.58s-25.02,9.71-27.63,22.58h-19.61c-2.61-12.86-14.01-22.58-27.63-22.58s-25.02,9.71-27.63,22.58h-10.45c-2.61-12.86-14.01-22.58-27.63-22.58s-25.02,9.71-27.63,22.58h-17.64v-78.79h14.16ZM244.47,150c0,2.31-.5,4.51-1.38,6.49h.04c-2.5,5.64-8.14,9.59-14.7,9.59s-12.2-3.95-14.7-9.59h.04c-.88-1.99-1.38-4.18-1.38-6.49,0-1.98.38-3.87,1.03-5.62h-.04c2.29-6.1,8.16-10.46,15.05-10.46s12.76,4.36,15.05,10.46h-.04c.66,1.75,1.03,3.64,1.03,5.62ZM169.6,150c0,2.31-.5,4.51-1.38,6.49h.04c-2.5,5.64-8.14,9.59-14.7,9.59s-12.2-3.95-14.7-9.59h.04c-.88-1.99-1.38-4.18-1.38-6.49,0-1.98.38-3.87,1.03-5.62h-.04c2.29-6.1,8.16-10.46,15.05-10.46s12.76,4.36,15.05,10.46h-.04c.66,1.75,1.03,3.64,1.03,5.62ZM103.9,150c0,2.31-.5,4.51-1.38,6.49h.04c-2.5,5.64-8.14,9.59-14.7,9.59s-12.2-3.95-14.7-9.59h.04c-.88-1.99-1.38-4.18-1.38-6.49,0-1.98.38-3.87,1.03-5.62h-.04c2.29-6.1,8.16-10.46,15.05-10.46s12.76,4.36,15.05,10.46h-.04c.66,1.75,1.03,3.64,1.03,5.62ZM30.47,270.48c0,4.7-3.82,8.52-8.52,8.52h-1.31c-4.7,0-8.52-3.82-8.52-8.52V29.52c0-4.7,3.82-8.52,8.52-8.52h1.31c4.7,0,8.52,3.82,8.52,8.52v240.96ZM93.41,256.99c-6.56,0-12.2-3.95-14.7-9.59h.04c-.88-1.99-1.38-4.18-1.38-6.49,0-1.98.38-3.87,1.03-5.62h-.04c2.29-6.1,8.16-10.46,15.05-10.46s12.76,4.36,15.05,10.46h-.04c.66,1.75,1.03,3.64,1.03,5.62,0,2.31-.5,4.51-1.38,6.49h.04c-2.5,5.64-8.14,9.59-14.7,9.59ZM150,256.99c-6.56,0-12.2-3.95-14.7-9.59h.04c-.88-1.99-1.38-4.18-1.38-6.49,0-1.98.38-3.87,1.03-5.62h-.04c2.29-6.1,8.16-10.46,15.05-10.46s12.76,4.36,15.05,10.46h-.04c.66,1.75,1.03,3.64,1.03,5.62,0,2.31-.5,4.51-1.38,6.49h.04c-2.5,5.64-8.14,9.59-14.7,9.59ZM206.59,256.99c-6.56,0-12.2-3.95-14.7-9.59h.04c-.88-1.99-1.38-4.18-1.38-6.49,0-1.98.38-3.87,1.03-5.62h-.04c2.29-6.1,8.16-10.46,15.05-10.46s12.76,4.36,15.05,10.46h-.04c.66,1.75,1.03,3.64,1.03,5.62,0,2.31-.5,4.51-1.38,6.49h.04c-2.5,5.64-8.14,9.59-14.7,9.59ZM234.22,235.29c-2.61-12.86-14.01-22.58-27.63-22.58s-25.02,9.71-27.63,22.58h-1.33c-2.61-12.86-14.01-22.58-27.63-22.58s-25.02,9.71-27.63,22.58h-1.33c-2.61-12.86-14.01-22.58-27.63-22.58s-25.02,9.71-27.63,22.58h-23.2v-78.79h17.84c2.94,12.42,14.12,21.7,27.43,21.7s24.49-9.28,27.43-21.7h10.85c2.94,12.42,14.12,21.7,27.43,21.7s24.49-9.28,27.43-21.7h20.01c2.94,12.42,14.12,21.7,27.43,21.7s24.49-9.28,27.43-21.7h1.55v78.79h-23.2ZM287.89,270.48c0,4.7-3.82,8.52-8.52,8.52h-1.31c-4.7,0-8.52-3.82-8.52-8.52V29.52c0-4.7,3.82-8.52,8.52-8.52h1.31c4.7,0,8.52,3.82,8.52,8.52v240.96Z"/>
  </g>
</svg>