<?xml version="1.0" encoding="UTF-8"?>
<svg xmlns="http://www.w3.org/2000/svg" version="1.1" viewBox="0 0 300 300">
  <!-- Generator: Adobe Illustrator 29.3.1, SVG Export Plug-In . SVG Version: 2.1.0 Build 151)  -->
  <defs>
    <style>
      .st0 {
        fill: #231f20;
      }

      .st1 {
        fill: #fff;
      }

      .st2 {
        display: none;
      }
    </style>
  </defs>
  <g id="WHITE">
    <path class="st1" d="M289.38,89.81c-10.31-22.37-28.88-40.13-54.09-45.91.64-4.05,2.24-7.94-2.23-10.44-4.49-1.12-8.45,1.62-12.93,1.12-7.03-.79-16.62-7.67-25.38-8.06-8-.35-13.5,2.92-20.63,5.4C178.81,17.89,202.35,8.29,176.79,0h-7.98c-14.11,3.61-22.83,22.87-26.6,35.93-7.24-2.65-13-7.39-20.91-9-7.51-1.54-23.52.22-28.31-4.94-2.58-2.78-3.78-9.6-8.68-10.07-10.07-.97-4.86,20.57-4.67,26.54-17.72,5.7-36.3,14.91-49.15,28.71-11.41,12.25-19.56,28.09-24.61,44.68-3.64,10.81-5.88,25.6-5.88,41.92s2.41,32.19,6.29,43.09c-.01.06-.03.12-.04.17,13.94,43.19,47.96,76.69,89.92,92.72h0c12.68,5.02,26.31,8.33,40.56,9.63l-22.99-4.06c-1.51-.38-3.01-.79-4.51-1.22,1.5.43,3,.83,4.51,1.22l23.17,4.09h.2c4.36.39,8.78.59,13.25.59,10.06,0,19.88-1.01,29.34-2.91,56.73-10,100.81-52.99,114.45-108.36,3.68-11.99,5.87-27.04,5.87-43.39,0-22.51-4.15-42.56-10.62-55.52ZM132.84,45.99c4.04,3.54,10.43,15.89,16.34,5.54,3.58-6.27,5.04-16.15,9.27-23.99,2.74-5.09,7.31-11.73,11.69-15.56-4.51,10.95-14.35,23.93-11.91,36.56,2.41,12.48,17.14-2.28,21.68-4.84,17-9.62,22.62-1.05,39.45,2.89-4.56,18-23.13,6.29-34.67,12.85-4.7,10.75,5.33,9.33,11.65,12.17,11.06,4.97,13.87,12.99,21.69,21.53-12.92,3.72-18.61,3.82-29.27-4.63-5.55-4.4-13.01-17.53-19.18-16.69-10.4,1.42-.59,14.63.26,19.65,1.97,11.5-1.52,23.51-7,33.59-8.88-7.68-17.64-15.86-18.02-28.54-.17-5.63,4.35-18.5-2.2-20.44-8.39-2.48-7.99,5.64-11.01,9.77-10.73,14.7-25.47,12.2-41.23,8.62,8.34-6.63,9.13-28,19.56-30.31,5.78-1.28,19.11,2.52,19.13-6.26.03-13.17-35.97-3.78-36.02-21.96,13.81,4.03,28.07-.23,39.8,10.06ZM104.83,292.78c.15.05.31.09.46.14-.15-.05-.31-.09-.46-.14ZM175.79,297.74c1.31-.19,2.6-.42,3.89-.65-1.29.23-2.59.46-3.89.65ZM224.55,266.7c-74.73,45.2-164.99,11.92-198.86-54.81.05-.04.1-.07.15-.11-.14-.14-.29-.29-.43-.44-13.87-27.66-18.07-61.02-7.51-96.9,9.65-32.78,35.13-56.91,68.35-65.13.97,4.29,5.42,6.77,9.42,7.92l-.15,1.8c-6.28,6.31-7.24,19.71-13.14,25.46-3.45,3.37-11.09,3.99-12.69,7.32-3.86,8.08,8.09,11.03,13.73,12.91,15.77,5.27,35.23,7.96,49.46-2.27,3.28,14.14,11.53,25.07,23.53,33.02,6.15,4.07,11.38,9.28,16.06.6,5.35-9.92,7.3-24.47,11.64-34.96,8.23,4.4,14.2,7.24,23.88,6.63,7.04-.44,38.38-9.89,29.23-19.89-2.63-2.87-10.38-3.99-14.57-8.05-3.34-3.23-4.74-8.41-8.65-11.31,7.21-2,11.79-7.44,15.87-13.3,32.14,6.28,51.16,34.15,55.79,65.33,8.17,55.05-12.33,116.61-61.13,146.14Z"/>
  </g>
  <g id="BLACK" class="st2">
    <path class="st0" d="M289.38,89.81c-10.31-22.37-28.88-40.13-54.09-45.91.64-4.05,2.24-7.94-2.23-10.44-4.49-1.12-8.45,1.62-12.93,1.12-7.03-.79-16.62-7.67-25.38-8.06-8-.35-13.5,2.92-20.63,5.4C178.81,17.89,202.35,8.29,176.79,0h-7.98c-14.11,3.61-22.83,22.87-26.6,35.93-7.24-2.65-13-7.39-20.91-9-7.51-1.54-23.52.22-28.31-4.94-2.58-2.78-3.78-9.6-8.68-10.07-10.07-.97-4.86,20.57-4.67,26.54-17.72,5.7-36.3,14.91-49.15,28.71-11.41,12.25-19.56,28.09-24.61,44.68-3.64,10.81-5.88,25.6-5.88,41.92s2.41,32.19,6.29,43.09c-.01.06-.03.12-.04.17,13.94,43.19,47.96,76.69,89.92,92.72h0c12.68,5.02,26.31,8.33,40.56,9.63l-22.99-4.06c-1.51-.38-3.01-.79-4.51-1.22,1.5.43,3,.83,4.51,1.22l23.17,4.09h.2c4.36.39,8.78.59,13.25.59,10.06,0,19.88-1.01,29.34-2.91,56.73-10,100.81-52.99,114.45-108.36,3.68-11.99,5.87-27.04,5.87-43.39,0-22.51-4.15-42.56-10.62-55.52ZM132.84,45.99c4.04,3.54,10.43,15.89,16.34,5.54,3.58-6.27,5.04-16.15,9.27-23.99,2.74-5.09,7.31-11.73,11.69-15.56-4.51,10.95-14.35,23.93-11.91,36.56,2.41,12.48,17.14-2.28,21.68-4.84,17-9.62,22.62-1.05,39.45,2.89-4.56,18-23.13,6.29-34.67,12.85-4.7,10.75,5.33,9.33,11.65,12.17,11.06,4.97,13.87,12.99,21.69,21.53-12.92,3.72-18.61,3.82-29.27-4.63-5.55-4.4-13.01-17.53-19.18-16.69-10.4,1.42-.59,14.63.26,19.65,1.97,11.5-1.52,23.51-7,33.59-8.88-7.68-17.64-15.86-18.02-28.54-.17-5.63,4.35-18.5-2.2-20.44-8.39-2.48-7.99,5.64-11.01,9.77-10.73,14.7-25.47,12.2-41.23,8.62,8.34-6.63,9.13-28,19.56-30.31,5.78-1.28,19.11,2.52,19.13-6.26.03-13.17-35.97-3.78-36.02-21.96,13.81,4.03,28.07-.23,39.8,10.06ZM104.83,292.78c.15.05.31.09.46.14-.15-.05-.31-.09-.46-.14ZM175.79,297.74c1.31-.19,2.6-.42,3.89-.65-1.29.23-2.59.46-3.89.65ZM224.55,266.7c-74.73,45.2-164.99,11.92-198.86-54.81.05-.04.1-.07.15-.11-.14-.14-.29-.29-.43-.44-13.87-27.66-18.07-61.02-7.51-96.9,9.65-32.78,35.13-56.91,68.35-65.13.97,4.29,5.42,6.77,9.42,7.92l-.15,1.8c-6.28,6.31-7.24,19.71-13.14,25.46-3.45,3.37-11.09,3.99-12.69,7.32-3.86,8.08,8.09,11.03,13.73,12.91,15.77,5.27,35.23,7.96,49.46-2.27,3.28,14.14,11.53,25.07,23.53,33.02,6.15,4.07,11.38,9.28,16.06.6,5.35-9.92,7.3-24.47,11.64-34.96,8.23,4.4,14.2,7.24,23.88,6.63,7.04-.44,38.38-9.89,29.23-19.89-2.63-2.87-10.38-3.99-14.57-8.05-3.34-3.23-4.74-8.41-8.65-11.31,7.21-2,11.79-7.44,15.87-13.3,32.14,6.28,51.16,34.15,55.79,65.33,8.17,55.05-12.33,116.61-61.13,146.14Z"/>
  </g>
</svg>