<?xml version="1.0" encoding="UTF-8"?>
<svg xmlns="http://www.w3.org/2000/svg" version="1.1" viewBox="0 0 300 300">
  <!-- Generator: Adobe Illustrator 29.3.1, SVG Export Plug-In . SVG Version: 2.1.0 Build 151)  -->
  <defs>
    <style>
      .st0 {
        fill: #fff;
      }

      .st1 {
        display: none;
      }
    </style>
  </defs>
  <g id="WHITE">
    <path class="st0" d="M234.17,300H65.83c-33.9,0-61.78-25.11-65.41-57.97H.06l-.06-11.02v-4.83h.4c2.3-25.83,15.54-49.78,37.64-67.87,23.26-19.04,53.88-29.53,86.22-29.53h51.5c32.34,0,62.96,10.49,86.22,29.53,22.1,18.09,35.34,42.04,37.64,67.87h.4v15.85h-.41c-3.63,32.86-31.51,57.97-65.41,57.97ZM9.75,235.91l.06,1.09c1.19,29.91,25.79,53.33,56.02,53.33h168.35c30.22,0,54.83-23.43,56.02-53.33l.06-2.74v-1.48l-.09-1.6c-1.97-52.01-52.22-92.75-114.41-92.75h-51.5c-62.19,0-112.44,40.74-114.41,92.75l-.09,4.72Z"/>
    <path class="st0" d="M132.15,217.17h15.46c9.51-24.64,14.75-51.35,14.75-79.26,0-2.12-.03-4.23-.1-6.34h-14.41c.07,2.11.11,4.22.11,6.34,0,28.05-5.63,54.81-15.81,79.26Z"/>
    <path class="st0" d="M183.35,217.17h15.46c9.49-24.59,14.73-51.23,14.75-79.08l-14.44-3.5c.02,1.11.05,2.21.05,3.32,0,28.05-5.63,54.81-15.81,79.26Z"/>
    <path class="st0" d="M80.95,217.17h15.46c9.51-24.64,14.75-51.35,14.75-79.26,0-2.07-.05-4.12-.11-6.17l-14.34,2.12c.03,1.35.06,2.69.06,4.05,0,28.05-5.63,54.81-15.81,79.26Z"/>
    <path class="st0" d="M104.33,87.76h.02c-.1-1.15-.16-2.33-.16-3.53,0-4.67.81-9.03,2.21-12.75h-.02c.03-.09.07-.17.1-.25,2.97-6.93,4.71-15.33,4.71-24.4,0-13.8-4.03-26.08-10.29-33.93l-8.15,13.19c3.66,3.75,6.27,9.96,6.91,17.2h-.02c.1,1.15.16,2.33.16,3.53,0,4.67-.81,9.03-2.21,12.75h.02c-.03.09-.07.17-.1.25-2.97,6.93-4.71,15.33-4.71,24.4,0,13.8,4.03,26.08,10.29,33.93l8.15-13.19c-3.66-3.75-6.27-9.96-6.91-17.2Z"/>
    <path class="st0" d="M152.33,74.86h.02c-.1-1.15-.16-2.33-.16-3.53,0-4.67.81-9.03,2.21-12.75h-.02c.03-.09.07-.17.1-.25,2.97-6.93,4.71-15.33,4.71-24.4C159.19,20.13,155.17,7.85,148.91,0l-8.15,13.19c3.66,3.75,6.27,9.96,6.91,17.2h-.02c.1,1.15.16,2.33.16,3.53,0,4.67-.81,9.03-2.21,12.75h.02c-.03.09-.07.17-.1.25-2.97,6.93-4.71,15.33-4.71,24.4,0,13.8,4.03,26.08,10.29,33.93l8.15-13.19c-3.66-3.75-6.27-9.96-6.91-17.2Z"/>
    <path class="st0" d="M200.33,87.76h.02c-.1-1.15-.16-2.33-.16-3.53,0-4.67.81-9.03,2.21-12.75h-.02c.03-.09.07-.17.1-.25,2.97-6.93,4.71-15.33,4.71-24.4,0-13.8-4.03-26.08-10.29-33.93l-8.15,13.19c3.66,3.75,6.27,9.96,6.91,17.2h-.02c.1,1.15.16,2.33.16,3.53,0,4.67-.81,9.03-2.21,12.75h.02c-.03.09-.07.17-.1.25-2.97,6.93-4.71,15.33-4.71,24.4,0,13.8,4.03,26.08,10.29,33.93l8.15-13.19c-3.66-3.75-6.27-9.96-6.91-17.2Z"/>
  </g>
  <g id="BLACK" class="st1">
    <path d="M234.17,300H65.83c-33.9,0-61.78-25.11-65.41-57.97H.06l-.06-11.02v-4.83h.4c2.3-25.83,15.54-49.78,37.64-67.87,23.26-19.04,53.88-29.53,86.22-29.53h51.5c32.34,0,62.96,10.49,86.22,29.53,22.1,18.09,35.34,42.04,37.64,67.87h.4v15.85h-.41c-3.63,32.86-31.51,57.97-65.41,57.97ZM9.75,235.91l.06,1.09c1.19,29.91,25.79,53.33,56.02,53.33h168.35c30.22,0,54.83-23.43,56.02-53.33l.06-2.74v-1.48l-.09-1.6c-1.97-52.01-52.22-92.75-114.41-92.75h-51.5c-62.19,0-112.44,40.74-114.41,92.75l-.09,4.72Z"/>
    <path d="M132.15,217.17h15.46c9.51-24.64,14.75-51.35,14.75-79.26,0-2.12-.03-4.23-.1-6.34h-14.41c.07,2.11.11,4.22.11,6.34,0,28.05-5.63,54.81-15.81,79.26Z"/>
    <path d="M183.35,217.17h15.46c9.49-24.59,14.73-51.23,14.75-79.08l-14.44-3.5c.02,1.11.05,2.21.05,3.32,0,28.05-5.63,54.81-15.81,79.26Z"/>
    <path d="M80.95,217.17h15.46c9.51-24.64,14.75-51.35,14.75-79.26,0-2.07-.05-4.12-.11-6.17l-14.34,2.12c.03,1.35.06,2.69.06,4.05,0,28.05-5.63,54.81-15.81,79.26Z"/>
    <path d="M104.33,87.76h.02c-.1-1.15-.16-2.33-.16-3.53,0-4.67.81-9.03,2.21-12.75h-.02c.03-.09.07-.17.1-.25,2.97-6.93,4.71-15.33,4.71-24.4,0-13.8-4.03-26.08-10.29-33.93l-8.15,13.19c3.66,3.75,6.27,9.96,6.91,17.2h-.02c.1,1.15.16,2.33.16,3.53,0,4.67-.81,9.03-2.21,12.75h.02c-.03.09-.07.17-.1.25-2.97,6.93-4.71,15.33-4.71,24.4,0,13.8,4.03,26.08,10.29,33.93l8.15-13.19c-3.66-3.75-6.27-9.96-6.91-17.2Z"/>
    <path d="M152.33,74.86h.02c-.1-1.15-.16-2.33-.16-3.53,0-4.67.81-9.03,2.21-12.75h-.02c.03-.09.07-.17.1-.25,2.97-6.93,4.71-15.33,4.71-24.4C159.19,20.13,155.17,7.85,148.91,0l-8.15,13.19c3.66,3.75,6.27,9.96,6.91,17.2h-.02c.1,1.15.16,2.33.16,3.53,0,4.67-.81,9.03-2.21,12.75h.02c-.03.09-.07.17-.1.25-2.97,6.93-4.71,15.33-4.71,24.4,0,13.8,4.03,26.08,10.29,33.93l8.15-13.19c-3.66-3.75-6.27-9.96-6.91-17.2Z"/>
    <path d="M200.33,87.76h.02c-.1-1.15-.16-2.33-.16-3.53,0-4.67.81-9.03,2.21-12.75h-.02c.03-.09.07-.17.1-.25,2.97-6.93,4.71-15.33,4.71-24.4,0-13.8-4.03-26.08-10.29-33.93l-8.15,13.19c3.66,3.75,6.27,9.96,6.91,17.2h-.02c.1,1.15.16,2.33.16,3.53,0,4.67-.81,9.03-2.21,12.75h.02c-.03.09-.07.17-.1.25-2.97,6.93-4.71,15.33-4.71,24.4,0,13.8,4.03,26.08,10.29,33.93l8.15-13.19c-3.66-3.75-6.27-9.96-6.91-17.2Z"/>
  </g>
</svg>