<?xml version="1.0" encoding="UTF-8"?>
<svg xmlns="http://www.w3.org/2000/svg" version="1.1" xmlns:xlink="http://www.w3.org/1999/xlink" viewBox="0 0 800 800">
  <!-- Generator: Adobe Illustrator 29.3.1, SVG Export Plug-In . SVG Version: 2.1.0 Build 151)  -->
  <defs>
    <style>
      .st0 {
        fill: #fff;
      }

      .st1 {
        display: none;
      }
    </style>
  </defs>
  <g id="WHITE">
    <g>
      <path class="st0" d="M510.67,356.31c1.49.51,3.03.75,4.52.75,5.87,0,11.35-3.69,13.33-9.56,4.41-12.92,18.5-19.87,31.42-15.49,27.62,9.35,57.77-5.48,67.13-33.11,2.51-7.35-1.44-15.36-8.8-17.87-7.39-2.49-15.36,1.45-17.87,8.81-4.39,12.94-18.49,19.88-31.42,15.49-27.58-9.31-57.75,5.49-67.13,33.11-2.49,7.35,1.45,15.36,8.81,17.87Z"/>
      <path class="st0" d="M543.98,258.21c1.49.51,3.03.75,4.52.75,5.87,0,11.35-3.69,13.33-9.56,2.13-6.27,6.56-11.33,12.5-14.26s12.66-3.35,18.92-1.22c27.62,9.35,57.75-5.48,67.13-33.13,2.51-7.35-1.45-15.36-8.8-17.87-7.36-2.53-15.36,1.45-17.85,8.81-4.39,12.95-18.46,19.89-31.42,15.5-13.4-4.55-27.75-3.62-40.42,2.65-12.67,6.25-22.16,17.08-26.71,30.47-2.52,7.36,1.44,15.36,8.8,17.87Z"/>
      <path class="st0" d="M577.26,160.1c1.51.51,3.03.75,4.53.75,5.87,0,11.35-3.69,13.33-9.56,3.24-9.55,13.67-14.68,23.2-11.45,11.76,3.98,24.36,3.17,35.49-2.31,11.12-5.49,19.44-14.98,23.44-26.74,2.51-7.35-1.44-15.36-8.8-17.87-7.39-2.52-15.36,1.45-17.87,8.81-1.58,4.63-4.86,8.38-9.24,10.53-4.38,2.15-9.33,2.48-13.98.89-24.24-8.18-50.7,4.83-58.92,29.06-2.49,7.38,1.44,15.37,8.8,17.88Z"/>
      <path class="st0" d="M679.25,355.26c-2.45-1.68-5.21-2.63-8.02-3,27.97-90.91,43.32-179.97,45.52-264.79.69-26.68-12.35-62.3-38.63-78.79-12.61-7.93-33.28-14.46-60.12-.65-42.05,21.7-72.13,85.51-96.28,136.82-1.39,2.96-2.76,5.84-4.11,8.7-5.34-24.54-21.55-45.53-44.62-56.48-5.43-26.13-26.16-46.6-52.2-51.91-.28-1.46-.63-2.9-1.07-4.35-5.36-18.33-21.54-32.13-40.25-34.35-10.55-1.25-20.99.93-29.92,6.15-7.6-4.24-16.13-6.49-24.89-6.49-24.48,0-45.05,17.08-50.42,39.93-26.76,7.29-46.39,31.86-46.6,60.41-30.54,7.88-52.78,35.48-52.78,68.3,0,8.7,1.63,17.32,4.77,25.44-7.93,9.78-12.32,22.03-12.32,34.89,0,7.72,1.59,15.15,4.59,22.02-14.06-15.35-33.86-27.89-56.09-27.07-7.77.25-13.88,6.74-13.64,14.52.24,7.62,6.49,13.64,14.06,13.64.48.01.92-.03,1.37-.03,13.19,0,25.45,8.73,34.38,18.87-22.33,6.43-49.25,16.91-61.81,40.59-7.56,14.29-8.45,31.82-3.41,51.89-2.44,4.07-3.77,8.8-3.52,13.84l23.96,340.52c2.18,42.7,37.38,76.14,80.12,76.14h395.21c42.74,0,77.94-33.44,80.11-75.88l24.57-352.36c0-.08.01-.17.01-.25.39-6.49-2.6-12.56-7.97-16.25ZM529.08,193.82c5.58-10.4,11.66-23.3,18.09-36.97,21.16-44.94,50.16-106.48,83.71-123.79,12.25-6.31,22.79-6.43,32.25-.54,16.32,10.25,25.92,36.11,25.45,54.22-2.15,83.23-17.36,170.83-45.21,260.37-.92,2.94-2.94,8.88-5.83,17.04l-23.99,10.66c-.52.24-1.03.49-1.52.8-6.93,4.15-14.7,6.21-22.47,6.29-7.77-.08-15.53-2.14-22.46-6.29l-10.04-6.03c-11.54-6.93-24.48-10.39-37.42-10.39-.15,0-.31.03-.48.03-13.09-.08-26.21,3.34-37.9,10.36l-10.02,6.03c-5.59,3.35-11.77,4.98-18.02,5.69.35-1.22.76-2.42,1.13-3.63,3.86-13.11,8-26.03,12.33-38.86,1.65-4.87,3.36-9.71,5.08-14.54,3.62-10.18,7.41-20.23,11.32-30.21,1.75-4.46,3.45-8.97,5.25-13.39,12.28-29.95,25.82-58.99,40.73-86.84ZM349.6,227.22c1.65-2.11,3.25-4.17,4.77-6.17,0-.03.01-.04.03-.06,1.11-1.48,2.08-3.01,2.9-4.55,3.46-6.52,4.28-13.84,2.67-20.99l58.76-12.85c.39,1.8.82,3.59,1.49,5.25,2.63,6.45,7.34,11.81,13.88,15.56,2.14,1.18,4.38,2.37,6.69,3.59,1.9,1,3.8,2.04,5.72,3.08.92.49,1.84.99,2.76,1.49,1.68.94,3.29,1.99,4.93,3.01,1.39.86,2.77,1.75,4.13,2.69,1.56,1.08,3.06,2.28,4.55,3.49,1.31,1.07,2.56,2.24,3.8,3.44,1.34,1.31,2.66,2.65,3.89,4.11,2.17,2.59,4.25,5.28,5.96,8.5-5.97,13.18-11.59,26.62-17.02,40.18-.84,2.1-1.75,4.14-2.58,6.24-15.43,3.91-30.34,11.23-48.75,24.34-23.2,16.49-40.48,20.86-68.94,16.74l-8.55-39.12c-5.8-26.45,6.77-42.48,18.92-57.98ZM419.42,141.72c.37-.07.73-.11,1.1-.11,2.66,0,5.15,1.9,5.73,4.58.45,2.03-.31,3.62-.82,4.39-.49.76-1.6,2.1-3.62,2.53l-77.77,17.02c-3.1.68-6.25-1.38-6.93-4.45-.68-3.08,1.37-6.25,4.45-6.93l41.32-9.04,36.53-8ZM373.92,359.47c-1.07.07-2.15.1-3.22.21-7.67.77-15.25,2.72-22.44,5.96l-2.69-12.32c4.05.34,8.1.68,11.88.68,24.55,0,44.32-7.31,67.04-23.47,7.15-5.1,13.49-8.95,19.51-12.15-1.3,3.67-2.58,7.34-3.83,11.02-.9,2.65-1.87,5.25-2.75,7.91-4.14,12.53-8.08,25.16-11.76,37.9l-9.36-5.6c-11.54-6.93-24.48-10.39-37.42-10.39-.17,0-.35.03-.52.03-1.49-.03-2.97.14-4.45.23ZM205.52,213.89l9.22-7.6-5.98-10.32c-3.74-6.48-5.73-13.8-5.73-21.2,0-22.81,17.87-41.41,40.67-42.36l17.09-.72-3.98-16.64c-.68-2.79-1.01-5.53-1.01-8.14,0-18.13,14.16-33.41,32.24-34.79l13.01-.99v-14.01c.41-12.66,10.84-22.84,23.61-22.84,7.35,0,12.61,3.35,15.73,6.17l9.87,8.91,9.46-9.35c4.34-4.28,10.29-6.28,16.43-5.58,7.55.89,14.36,6.77,16.56,14.33.75,2.53.96,4.98.66,7.48l-1.65,15.73h15.85c20.23,0,37.15,15.81,38.55,36l.63,9.25,8.74,3.07c22.01,7.73,36.48,28.55,35.99,51.85-.21,9.95-3.42,19.54-9.24,27.95-9.42-8-19.57-13.39-28.1-17.88-2.21-1.17-4.35-2.29-6.5-3.49-.61-.34-1.34-.93-1.59-2.41-.34-2.03.42-4.46,1.96-6.25,6.14-7.12,8.6-16.84,6.62-26l-1.7-7.76c-1.7-7.83-6.38-14.52-13.14-18.85-6.74-4.32-14.77-5.77-22.58-4.05l-3.77.83s-.08,0-.13.01l-41.32,9.04-40.32,8.8c-7.81,1.7-14.5,6.36-18.84,13.14-4.34,6.74-5.77,14.78-4.07,22.6l.84,3.83v.04s.01.03.01.06l.83,3.82c2.04,9.38,8.56,17.27,17.42,21.08,2.2.94,4.03,2.73,4.66,4.55.37,1.04.15,1.58-.66,2.93h0c-1.39,1.89-2.9,3.79-4.43,5.74-1.55,1.97-3.15,4.04-4.79,6.18-.55.72-1.07,1.46-1.62,2.2-1.17,1.59-2.34,3.21-3.49,4.9-.63.92-1.24,1.86-1.86,2.82-1.07,1.65-2.1,3.35-3.11,5.1-.59,1.01-1.17,2.01-1.73,3.07-1.06,1.97-2.01,4.04-2.96,6.15-.41.9-.84,1.76-1.21,2.7-1.24,3.07-2.34,6.28-3.21,9.66-.14.53-.2,1.11-.32,1.66-.68,2.87-1.22,5.84-1.58,8.94-.14,1.24-.17,2.53-.25,3.82-.11,1.66-.32,3.24-.32,4.97-.06-.07-.11-.14-.17-.21-.2-.25-.39-.48-.58-.73-2.45-3.22-4.9-6.19-7.36-9.01-.77-.89-1.56-1.75-2.35-2.59-2.07-2.24-4.14-4.34-6.22-6.31-.68-.63-1.35-1.32-2.04-1.94-2.63-2.35-5.28-4.51-7.94-6.42-.75-.53-1.51-.99-2.25-1.49-2-1.34-4-2.58-6.03-3.67-.99-.53-1.96-1.06-2.96-1.53-2.1-1.03-4.21-1.9-6.34-2.66-.7-.25-1.41-.59-2.11-.82-2.31-.73-4.63-1.32-6.97-1.76-.27-.06-.53-.03-.8-.07-.48-.08-.94-.27-1.42-.34-1.63-.24-3.18-.14-4.79-.25-1.13-.07-2.24-.31-3.36-.31-.34,0-.69.08-1.04.08-2.18.03-4.29.28-6.42.55-1.06.14-2.11.23-3.17.42-2.77.51-5.46,1.21-8.12,2.06-.41.13-.8.23-1.21.37-7.01,2.38-13.66,5.74-19.88,9.81-1.28-3.17-1.96-6.57-1.96-10.08.01-8.24,3.67-15.97,10.05-21.2ZM115.07,330.78c5.96-11.22,20.41-19.78,45.52-26.96,11.74-3.35,22.64-9.62,31.48-18.06,4.01-3.84,7.77-7.1,11.4-10.05,11.35-9.22,21.13-14.23,29.99-15.37.2-.03.39-.06.59-.07,2.8-.31,5.52-.23,8.15.24.69.13,1.39.37,2.1.55,1.31.32,2.6.65,3.91,1.17.84.32,1.69.82,2.55,1.21,1.22.59,2.44,1.13,3.66,1.87.96.58,1.91,1.32,2.87,1.99,1.14.8,2.28,1.53,3.44,2.46,1.07.86,2.14,1.9,3.21,2.87s2.14,1.86,3.21,2.94c1.18,1.2,2.38,2.59,3.58,3.93.97,1.08,1.94,2.08,2.93,3.25,1.34,1.6,2.69,3.44,4.04,5.21.86,1.13,1.7,2.14,2.56,3.34,1.53,2.14,3.08,4.52,4.63,6.88.68,1.04,1.37,1.97,2.04,3.04,2.24,3.53,4.49,7.29,6.76,11.29,10.36,18.29,13.8,45.31,9.29,68.83-.75-.07-1.48-.18-2.22-.3-5.36-.92-10.53-2.63-15.23-5.45l-10.04-6.03c-11.54-6.93-24.48-10.39-37.42-10.39-.15,0-.31.03-.48.03-13.09-.08-26.21,3.34-37.9,10.36l-4.89,2.93c-8.52,5.11-18.06,7.69-27.61,7.77-9.56-.08-19.09-2.65-27.61-7.77l-18.94-11.38s-.01,0-.01-.01c-2.49-1.48-5.18-2.49-7.94-3-2.21-11.14-1.42-20.15,2.38-27.33ZM634.59,722.43c-1.42,27.71-24.27,49.42-52.01,49.42H187.36c-27.75,0-50.59-21.71-52.02-49.68l-23.43-332.85,12.25,7.35c13.28,7.97,28.19,11.88,43.05,11.8,14.88.08,29.78-3.83,43.05-11.8l4.89-2.93c6.93-4.17,14.68-6.22,22.46-6.31,7.77.08,15.53,2.14,22.47,6.31l10.04,6.03c12.7,7.62,27.09,10.88,41.31,10.11,1.27-.06,2.53-.06,3.82-.17.15-.01.3-.1.46-.11,9.62-1.08,19.05-4.11,27.75-9.07.82-.3,1.69-.31,2.45-.76l10.04-6.03c6.93-4.17,14.68-6.22,22.46-6.31,7.77.08,15.53,2.14,22.47,6.31l10.04,6.03c10.66,6.38,22.51,9.69,34.44,10.18.24.01.49.04.73.04,4.11.13,8.22,0,12.3-.58,2.34-.3,4.6-.89,6.9-1.41,1.11-.27,2.22-.51,3.32-.83,6.25-1.73,12.38-4,18.08-7.42h0l10.04-6.03c6.93-4.17,14.68-6.22,22.46-6.31,7.77.08,15.53,2.14,22.47,6.31l10.04,6.03c11.63,6.97,24.68,10.39,37.72,10.33.21,0,.44.04.65.04,12.64,0,25.3-3.29,36.65-9.91l27.62-12.28c.59-.27,1.01-.77,1.56-1.11l2.15-.96-23.44,336.57Z"/>
      <path class="st0" d="M167.69,605.44h98.55c7.77,0,14.08-6.29,14.08-14.08s-6.31-14.08-14.08-14.08h-98.55c-7.77,0-14.08,6.29-14.08,14.08s6.31,14.08,14.08,14.08Z"/>
      <path class="st0" d="M167.69,661.76h126.71c7.77,0,14.08-6.29,14.08-14.08s-6.31-14.08-14.08-14.08h-126.71c-7.77,0-14.08,6.29-14.08,14.08s6.31,14.08,14.08,14.08Z"/>
      <path class="st0" d="M322.56,689.92h-154.87c-7.77,0-14.08,6.29-14.08,14.08s6.31,14.08,14.08,14.08h154.87c7.77,0,14.08-6.29,14.08-14.08s-6.31-14.08-14.08-14.08Z"/>
      <path class="st0" d="M407.03,689.92h-28.16c-7.77,0-14.08,6.29-14.08,14.08s6.31,14.08,14.08,14.08h28.16c7.77,0,14.08-6.29,14.08-14.08s-6.31-14.08-14.08-14.08Z"/>
    </g>
  </g>
  <g id="BLACK" class="st1">
    <g>
      <path d="M510.67,356.31c1.49.51,3.03.75,4.52.75,5.87,0,11.35-3.69,13.33-9.56,4.41-12.92,18.5-19.87,31.42-15.49,27.62,9.35,57.77-5.48,67.13-33.11,2.51-7.35-1.44-15.36-8.8-17.87-7.39-2.49-15.36,1.45-17.87,8.81-4.39,12.94-18.49,19.88-31.42,15.49-27.58-9.31-57.75,5.49-67.13,33.11-2.49,7.35,1.45,15.36,8.81,17.87Z"/>
      <path d="M543.98,258.21c1.49.51,3.03.75,4.52.75,5.87,0,11.35-3.69,13.33-9.56,2.13-6.27,6.56-11.33,12.5-14.26s12.66-3.35,18.92-1.22c27.62,9.35,57.75-5.48,67.13-33.13,2.51-7.35-1.45-15.36-8.8-17.87-7.36-2.53-15.36,1.45-17.85,8.81-4.39,12.95-18.46,19.89-31.42,15.5-13.4-4.55-27.75-3.62-40.42,2.65-12.67,6.25-22.16,17.08-26.71,30.47-2.52,7.36,1.44,15.36,8.8,17.87Z"/>
      <path d="M577.26,160.1c1.51.51,3.03.75,4.53.75,5.87,0,11.35-3.69,13.33-9.56,3.24-9.55,13.67-14.68,23.2-11.45,11.76,3.98,24.36,3.17,35.49-2.31,11.12-5.49,19.44-14.98,23.44-26.74,2.51-7.35-1.44-15.36-8.8-17.87-7.39-2.52-15.36,1.45-17.87,8.81-1.58,4.63-4.86,8.38-9.24,10.53-4.38,2.15-9.33,2.48-13.98.89-24.24-8.18-50.7,4.83-58.92,29.06-2.49,7.38,1.44,15.37,8.8,17.88Z"/>
      <path d="M679.25,355.26c-2.45-1.68-5.21-2.63-8.02-3,27.97-90.91,43.32-179.97,45.52-264.79.69-26.68-12.35-62.3-38.63-78.79-12.61-7.93-33.28-14.46-60.12-.65-42.05,21.7-72.13,85.51-96.28,136.82-1.39,2.96-2.76,5.84-4.11,8.7-5.34-24.54-21.55-45.53-44.62-56.48-5.43-26.13-26.16-46.6-52.2-51.91-.28-1.46-.63-2.9-1.07-4.35-5.36-18.33-21.54-32.13-40.25-34.35-10.55-1.25-20.99.93-29.92,6.15-7.6-4.24-16.13-6.49-24.89-6.49-24.48,0-45.05,17.08-50.42,39.93-26.76,7.29-46.39,31.86-46.6,60.41-30.54,7.88-52.78,35.48-52.78,68.3,0,8.7,1.63,17.32,4.77,25.44-7.93,9.78-12.32,22.03-12.32,34.89,0,7.72,1.59,15.15,4.59,22.02-14.06-15.35-33.86-27.89-56.09-27.07-7.77.25-13.88,6.74-13.64,14.52.24,7.62,6.49,13.64,14.06,13.64.48.01.92-.03,1.37-.03,13.19,0,25.45,8.73,34.38,18.87-22.33,6.43-49.25,16.91-61.81,40.59-7.56,14.29-8.45,31.82-3.41,51.89-2.44,4.07-3.77,8.8-3.52,13.84l23.96,340.52c2.18,42.7,37.38,76.14,80.12,76.14h395.21c42.74,0,77.94-33.44,80.11-75.88l24.57-352.36c0-.08.01-.17.01-.25.39-6.49-2.6-12.56-7.97-16.25ZM529.08,193.82c5.58-10.4,11.66-23.3,18.09-36.97,21.16-44.94,50.16-106.48,83.71-123.79,12.25-6.31,22.79-6.43,32.25-.54,16.32,10.25,25.92,36.11,25.45,54.22-2.15,83.23-17.36,170.83-45.21,260.37-.92,2.94-2.94,8.88-5.83,17.04l-23.99,10.66c-.52.24-1.03.49-1.52.8-6.93,4.15-14.7,6.21-22.47,6.29-7.77-.08-15.53-2.14-22.46-6.29l-10.04-6.03c-11.54-6.93-24.48-10.39-37.42-10.39-.15,0-.31.03-.48.03-13.09-.08-26.21,3.34-37.9,10.36l-10.02,6.03c-5.59,3.35-11.77,4.98-18.02,5.69.35-1.22.76-2.42,1.13-3.63,3.86-13.11,8-26.03,12.33-38.86,1.65-4.87,3.36-9.71,5.08-14.54,3.62-10.18,7.41-20.23,11.32-30.21,1.75-4.46,3.45-8.97,5.25-13.39,12.28-29.95,25.82-58.99,40.73-86.84ZM349.6,227.22c1.65-2.11,3.25-4.17,4.77-6.17,0-.03.01-.04.03-.06,1.11-1.48,2.08-3.01,2.9-4.55,3.46-6.52,4.28-13.84,2.67-20.99l58.76-12.85c.39,1.8.82,3.59,1.49,5.25,2.63,6.45,7.34,11.81,13.88,15.56,2.14,1.18,4.38,2.37,6.69,3.59,1.9,1,3.8,2.04,5.72,3.08.92.49,1.84.99,2.76,1.49,1.68.94,3.29,1.99,4.93,3.01,1.39.86,2.77,1.75,4.13,2.69,1.56,1.08,3.06,2.28,4.55,3.49,1.31,1.07,2.56,2.24,3.8,3.44,1.34,1.31,2.66,2.65,3.89,4.11,2.17,2.59,4.25,5.28,5.96,8.5-5.97,13.18-11.59,26.62-17.02,40.18-.84,2.1-1.75,4.14-2.58,6.24-15.43,3.91-30.34,11.23-48.75,24.34-23.2,16.49-40.48,20.86-68.94,16.74l-8.55-39.12c-5.8-26.45,6.77-42.48,18.92-57.98ZM419.42,141.72c.37-.07.73-.11,1.1-.11,2.66,0,5.15,1.9,5.73,4.58.45,2.03-.31,3.62-.82,4.39-.49.76-1.6,2.1-3.62,2.53l-77.77,17.02c-3.1.68-6.25-1.38-6.93-4.45-.68-3.08,1.37-6.25,4.45-6.93l41.32-9.04,36.53-8ZM373.92,359.47c-1.07.07-2.15.1-3.22.21-7.67.77-15.25,2.72-22.44,5.96l-2.69-12.32c4.05.34,8.1.68,11.88.68,24.55,0,44.32-7.31,67.04-23.47,7.15-5.1,13.49-8.95,19.51-12.15-1.3,3.67-2.58,7.34-3.83,11.02-.9,2.65-1.87,5.25-2.75,7.91-4.14,12.53-8.08,25.16-11.76,37.9l-9.36-5.6c-11.54-6.93-24.48-10.39-37.42-10.39-.17,0-.35.03-.52.03-1.49-.03-2.97.14-4.45.23ZM205.52,213.89l9.22-7.6-5.98-10.32c-3.74-6.48-5.73-13.8-5.73-21.2,0-22.81,17.87-41.41,40.67-42.36l17.09-.72-3.98-16.64c-.68-2.79-1.01-5.53-1.01-8.14,0-18.13,14.16-33.41,32.24-34.79l13.01-.99v-14.01c.41-12.66,10.84-22.84,23.61-22.84,7.35,0,12.61,3.35,15.73,6.17l9.87,8.91,9.46-9.35c4.34-4.28,10.29-6.28,16.43-5.58,7.55.89,14.36,6.77,16.56,14.33.75,2.53.96,4.98.66,7.48l-1.65,15.73h15.85c20.23,0,37.15,15.81,38.55,36l.63,9.25,8.74,3.07c22.01,7.73,36.48,28.55,35.99,51.85-.21,9.95-3.42,19.54-9.24,27.95-9.42-8-19.57-13.39-28.1-17.88-2.21-1.17-4.35-2.29-6.5-3.49-.61-.34-1.34-.93-1.59-2.41-.34-2.03.42-4.46,1.96-6.25,6.14-7.12,8.6-16.84,6.62-26l-1.7-7.76c-1.7-7.83-6.38-14.52-13.14-18.85-6.74-4.32-14.77-5.77-22.58-4.05l-3.77.83s-.08,0-.13.01l-41.32,9.04-40.32,8.8c-7.81,1.7-14.5,6.36-18.84,13.14-4.34,6.74-5.77,14.78-4.07,22.6l.84,3.83v.04s.01.03.01.06l.83,3.82c2.04,9.38,8.56,17.27,17.42,21.08,2.2.94,4.03,2.73,4.66,4.55.37,1.04.15,1.58-.66,2.93h0c-1.39,1.89-2.9,3.79-4.43,5.74-1.55,1.97-3.15,4.04-4.79,6.18-.55.72-1.07,1.46-1.62,2.2-1.17,1.59-2.34,3.21-3.49,4.9-.63.92-1.24,1.86-1.86,2.82-1.07,1.65-2.1,3.35-3.11,5.1-.59,1.01-1.17,2.01-1.73,3.07-1.06,1.97-2.01,4.04-2.96,6.15-.41.9-.84,1.76-1.21,2.7-1.24,3.07-2.34,6.28-3.21,9.66-.14.53-.2,1.11-.32,1.66-.68,2.87-1.22,5.84-1.58,8.94-.14,1.24-.17,2.53-.25,3.82-.11,1.66-.32,3.24-.32,4.97-.06-.07-.11-.14-.17-.21-.2-.25-.39-.48-.58-.73-2.45-3.22-4.9-6.19-7.36-9.01-.77-.89-1.56-1.75-2.35-2.59-2.07-2.24-4.14-4.34-6.22-6.31-.68-.63-1.35-1.32-2.04-1.94-2.63-2.35-5.28-4.51-7.94-6.42-.75-.53-1.51-.99-2.25-1.49-2-1.34-4-2.58-6.03-3.67-.99-.53-1.96-1.06-2.96-1.53-2.1-1.03-4.21-1.9-6.34-2.66-.7-.25-1.41-.59-2.11-.82-2.31-.73-4.63-1.32-6.97-1.76-.27-.06-.53-.03-.8-.07-.48-.08-.94-.27-1.42-.34-1.63-.24-3.18-.14-4.79-.25-1.13-.07-2.24-.31-3.36-.31-.34,0-.69.08-1.04.08-2.18.03-4.29.28-6.42.55-1.06.14-2.11.23-3.17.42-2.77.51-5.46,1.21-8.12,2.06-.41.13-.8.23-1.21.37-7.01,2.38-13.66,5.74-19.88,9.81-1.28-3.17-1.96-6.57-1.96-10.08.01-8.24,3.67-15.97,10.05-21.2ZM115.07,330.78c5.96-11.22,20.41-19.78,45.52-26.96,11.74-3.35,22.64-9.62,31.48-18.06,4.01-3.84,7.77-7.1,11.4-10.05,11.35-9.22,21.13-14.23,29.99-15.37.2-.03.39-.06.59-.07,2.8-.31,5.52-.23,8.15.24.69.13,1.39.37,2.1.55,1.31.32,2.6.65,3.91,1.17.84.32,1.69.82,2.55,1.21,1.22.59,2.44,1.13,3.66,1.87.96.58,1.91,1.32,2.87,1.99,1.14.8,2.28,1.53,3.44,2.46,1.07.86,2.14,1.9,3.21,2.87s2.14,1.86,3.21,2.94c1.18,1.2,2.38,2.59,3.58,3.93.97,1.08,1.94,2.08,2.93,3.25,1.34,1.6,2.69,3.44,4.04,5.21.86,1.13,1.7,2.14,2.56,3.34,1.53,2.14,3.08,4.52,4.63,6.88.68,1.04,1.37,1.97,2.04,3.04,2.24,3.53,4.49,7.29,6.76,11.29,10.36,18.29,13.8,45.31,9.29,68.83-.75-.07-1.48-.18-2.22-.3-5.36-.92-10.53-2.63-15.23-5.45l-10.04-6.03c-11.54-6.93-24.48-10.39-37.42-10.39-.15,0-.31.03-.48.03-13.09-.08-26.21,3.34-37.9,10.36l-4.89,2.93c-8.52,5.11-18.06,7.69-27.61,7.77-9.56-.08-19.09-2.65-27.61-7.77l-18.94-11.38s-.01,0-.01-.01c-2.49-1.48-5.18-2.49-7.94-3-2.21-11.14-1.42-20.15,2.38-27.33ZM634.59,722.43c-1.42,27.71-24.27,49.42-52.01,49.42H187.36c-27.75,0-50.59-21.71-52.02-49.68l-23.43-332.85,12.25,7.35c13.28,7.97,28.19,11.88,43.05,11.8,14.88.08,29.78-3.83,43.05-11.8l4.89-2.93c6.93-4.17,14.68-6.22,22.46-6.31,7.77.08,15.53,2.14,22.47,6.31l10.04,6.03c12.7,7.62,27.09,10.88,41.31,10.11,1.27-.06,2.53-.06,3.82-.17.15-.01.3-.1.46-.11,9.62-1.08,19.05-4.11,27.75-9.07.82-.3,1.69-.31,2.45-.76l10.04-6.03c6.93-4.17,14.68-6.22,22.46-6.31,7.77.08,15.53,2.14,22.47,6.31l10.04,6.03c10.66,6.38,22.51,9.69,34.44,10.18.24.01.49.04.73.04,4.11.13,8.22,0,12.3-.58,2.34-.3,4.6-.89,6.9-1.41,1.11-.27,2.22-.51,3.32-.83,6.25-1.73,12.38-4,18.08-7.42h0l10.04-6.03c6.93-4.17,14.68-6.22,22.46-6.31,7.77.08,15.53,2.14,22.47,6.31l10.04,6.03c11.63,6.97,24.68,10.39,37.72,10.33.21,0,.44.04.65.04,12.64,0,25.3-3.29,36.65-9.91l27.62-12.28c.59-.27,1.01-.77,1.56-1.11l2.15-.96-23.44,336.57Z"/>
      <path d="M167.69,605.44h98.55c7.77,0,14.08-6.29,14.08-14.08s-6.31-14.08-14.08-14.08h-98.55c-7.77,0-14.08,6.29-14.08,14.08s6.31,14.08,14.08,14.08Z"/>
      <path d="M167.69,661.76h126.71c7.77,0,14.08-6.29,14.08-14.08s-6.31-14.08-14.08-14.08h-126.71c-7.77,0-14.08,6.29-14.08,14.08s6.31,14.08,14.08,14.08Z"/>
      <path d="M322.56,689.92h-154.87c-7.77,0-14.08,6.29-14.08,14.08s6.31,14.08,14.08,14.08h154.87c7.77,0,14.08-6.29,14.08-14.08s-6.31-14.08-14.08-14.08Z"/>
      <path d="M407.03,689.92h-28.16c-7.77,0-14.08,6.29-14.08,14.08s6.31,14.08,14.08,14.08h28.16c7.77,0,14.08-6.29,14.08-14.08s-6.31-14.08-14.08-14.08Z"/>
    </g>
  </g>
</svg>