<?xml version="1.0" encoding="UTF-8"?>
<svg xmlns="http://www.w3.org/2000/svg" version="1.1" viewBox="0 0 300 300">
  <!-- Generator: Adobe Illustrator 29.3.1, SVG Export Plug-In . SVG Version: 2.1.0 Build 151)  -->
  <defs>
    <style>
      .st0 {
        fill: #231f20;
      }

      .st1 {
        fill: #fff;
      }

      .st2 {
        display: none;
      }
    </style>
  </defs>
  <g id="WHITE" class="st2">
    <path class="st1" d="M149.86,83.31c-16.77,0-30.41-13.64-30.41-30.41s13.64-30.4,30.41-30.4,30.4,13.64,30.4,30.4-13.64,30.41-30.4,30.41ZM149.86,33.33c-10.8,0-19.59,8.78-19.59,19.58s8.79,19.59,19.59,19.59,19.58-8.79,19.58-19.59-8.78-19.58-19.58-19.58Z"/>
    <path class="st1" d="M102.01,153.32H9.21c-1.86,0-3.6-.96-4.59-2.54-.98-1.58-1.09-3.56-.27-5.24L50.75,50.28c1.81-3.71,7.91-3.71,9.72,0l46.4,95.26c.82,1.68.71,3.66-.27,5.24-.99,1.59-2.73,2.54-4.59,2.54ZM17.86,142.5h75.5l-37.75-77.49-37.75,77.49Z"/>
    <rect class="st1" x="144.46" y="77.9" width="10.82" height="130.78"/>
    <path class="st1" d="M214.53,277.49H85.09c-2.99,0-5.41-2.42-5.41-5.41v-27.65c0-2.99,2.42-5.41,5.41-5.41h129.44c2.99,0,5.41,2.42,5.41,5.41v27.65c0,2.99-2.42,5.41-5.41,5.41ZM90.5,266.67h118.63v-16.83h-118.63v16.83Z"/>
    <path class="st1" d="M197.99,153.32h92.8c1.86,0,3.6-.96,4.59-2.54.98-1.58,1.09-3.56.27-5.24l-46.4-95.26c-1.81-3.71-7.91-3.71-9.72,0l-46.4,95.26c-.82,1.68-.71,3.66.27,5.24.99,1.59,2.73,2.54,4.59,2.54ZM282.14,142.5h-75.5l37.75-77.49,37.75,77.49Z"/>
    <path class="st1" d="M243.09,197.1c29.94,0,54.93-21.44,56.9-48.8.11-1.5-.41-2.98-1.43-4.07-1.02-1.1-2.46-1.72-3.96-1.72h-103c-1.5,0-2.94.62-3.96,1.72-1.02,1.1-1.54,2.58-1.43,4.07,1.95,27.37,26.95,48.81,56.9,48.81ZM288.32,153.32c-4.39,18.89-23.13,32.96-45.23,32.96s-40.84-14.07-45.23-32.96h90.45Z"/>
    <path class="st1" d="M56.91,197.1C26.97,197.1,1.98,175.66.01,148.3c-.11-1.5.41-2.98,1.43-4.07,1.02-1.1,2.46-1.72,3.96-1.72h103c1.5,0,2.94.62,3.96,1.72,1.02,1.1,1.54,2.58,1.43,4.07-1.95,27.37-26.95,48.81-56.9,48.81ZM11.68,153.32c4.39,18.89,23.13,32.96,45.23,32.96s40.84-14.07,45.23-32.96H11.68Z"/>
    <path class="st1" d="M130.63,52.91c0-1.88.28-3.69.76-5.41H55.61v10.82h75.78c-.48-1.72-.76-3.53-.76-5.41Z"/>
    <path class="st1" d="M168.34,47.5c.49,1.72.76,3.53.76,5.41s-.27,3.69-.76,5.41h76.05v-10.82h-76.05Z"/>
    <path class="st1" d="M194.3,249.84h-88.61c-1.82,0-3.51-.91-4.51-2.42s-1.18-3.43-.47-5.1c10.38-24.45,28.81-39.04,49.29-39.04s38.9,14.6,49.28,39.04c.71,1.67.53,3.59-.47,5.1s-2.69,2.42-4.51,2.42ZM114.35,239.02h71.29c-8.8-15.76-21.73-24.93-35.64-24.93s-26.85,9.17-35.65,24.93Z"/>
  </g>
  <g id="BLACK">
    <path class="st0" d="M149.86,83.31c-16.77,0-30.41-13.64-30.41-30.41s13.64-30.4,30.41-30.4,30.4,13.64,30.4,30.4-13.64,30.41-30.4,30.41ZM149.86,33.33c-10.8,0-19.59,8.78-19.59,19.58s8.79,19.59,19.59,19.59,19.58-8.79,19.58-19.59-8.78-19.58-19.58-19.58Z"/>
    <path class="st0" d="M102.01,153.32H9.21c-1.86,0-3.6-.96-4.59-2.54-.98-1.58-1.09-3.56-.27-5.24L50.75,50.28c1.81-3.71,7.91-3.71,9.72,0l46.4,95.26c.82,1.68.71,3.66-.27,5.24-.99,1.59-2.73,2.54-4.59,2.54ZM17.86,142.5h75.5l-37.75-77.49-37.75,77.49Z"/>
    <rect class="st0" x="144.46" y="77.9" width="10.82" height="130.78"/>
    <path class="st0" d="M214.53,277.49H85.09c-2.99,0-5.41-2.42-5.41-5.41v-27.65c0-2.99,2.42-5.41,5.41-5.41h129.44c2.99,0,5.41,2.42,5.41,5.41v27.65c0,2.99-2.42,5.41-5.41,5.41ZM90.5,266.67h118.63v-16.83h-118.63v16.83Z"/>
    <path class="st0" d="M197.99,153.32h92.8c1.86,0,3.6-.96,4.59-2.54.98-1.58,1.09-3.56.27-5.24l-46.4-95.26c-1.81-3.71-7.91-3.71-9.72,0l-46.4,95.26c-.82,1.68-.71,3.66.27,5.24.99,1.59,2.73,2.54,4.59,2.54ZM282.14,142.5h-75.5l37.75-77.49,37.75,77.49Z"/>
    <path class="st0" d="M243.09,197.1c29.94,0,54.93-21.44,56.9-48.8.11-1.5-.41-2.98-1.43-4.07-1.02-1.1-2.46-1.72-3.96-1.72h-103c-1.5,0-2.94.62-3.96,1.72-1.02,1.1-1.54,2.58-1.43,4.07,1.95,27.37,26.95,48.81,56.9,48.81ZM288.32,153.32c-4.39,18.89-23.13,32.96-45.23,32.96s-40.84-14.07-45.23-32.96h90.45Z"/>
    <path class="st0" d="M56.91,197.1C26.97,197.1,1.98,175.66.01,148.3c-.11-1.5.41-2.98,1.43-4.07,1.02-1.1,2.46-1.72,3.96-1.72h103c1.5,0,2.94.62,3.96,1.72,1.02,1.1,1.54,2.58,1.43,4.07-1.95,27.37-26.95,48.81-56.9,48.81ZM11.68,153.32c4.39,18.89,23.13,32.96,45.23,32.96s40.84-14.07,45.23-32.96H11.68Z"/>
    <path class="st0" d="M130.63,52.91c0-1.88.28-3.69.76-5.41H55.61v10.82h75.78c-.48-1.72-.76-3.53-.76-5.41Z"/>
    <path class="st0" d="M168.34,47.5c.49,1.72.76,3.53.76,5.41s-.27,3.69-.76,5.41h76.05v-10.82h-76.05Z"/>
    <path class="st0" d="M194.3,249.84h-88.61c-1.82,0-3.51-.91-4.51-2.42s-1.18-3.43-.47-5.1c10.38-24.45,28.81-39.04,49.29-39.04s38.9,14.6,49.28,39.04c.71,1.67.53,3.59-.47,5.1s-2.69,2.42-4.51,2.42ZM114.35,239.02h71.29c-8.8-15.76-21.73-24.93-35.64-24.93s-26.85,9.17-35.65,24.93Z"/>
  </g>
</svg>