<?xml version="1.0" encoding="UTF-8"?>
<svg xmlns="http://www.w3.org/2000/svg" version="1.1" viewBox="0 0 300 300">
  <!-- Generator: Adobe Illustrator 29.3.1, SVG Export Plug-In . SVG Version: 2.1.0 Build 151)  -->
  <defs>
    <style>
      .st0 {
        fill: #231f20;
      }

      .st1 {
        fill: #fff;
      }

      .st2 {
        display: none;
      }
    </style>
  </defs>
  <g id="WHITE" class="st2">
    <path class="st1" d="M180.13,186.75l56.65-56.65,53.54-14.35c4.5-1.21,8.02-4.73,9.23-9.23,1.21-4.5-.08-9.31-3.38-12.61L206.08,3.82c-3.3-3.3-8.1-4.58-12.61-3.38-4.5,1.21-8.02,4.73-9.23,9.23l-14.35,53.54-56.65,56.65-53.54,14.35c-4.51,1.21-8.02,4.72-9.23,9.23-1.21,4.5.08,9.31,3.38,12.61l33.11,33.11s-.09.08-.13.12L1.37,290.45c-1.95,2.3-1.8,5.71.33,7.85s5.54,2.28,7.85.33l101.17-85.46s.08-.09.12-.13l33.11,33.11c3.3,3.3,8.1,4.59,12.61,3.38,4.51-1.21,8.02-4.72,9.23-9.23l14.35-53.54ZM155.82,176.62l-9.4,35.08-58.12-58.12,35.08-9.4c2.21-.59,4.23-1.76,5.85-3.38l61.6-61.6c1.62-1.62,2.79-3.64,3.38-5.85l9.4-35.08,58.12,58.12-35.08,9.4c-2.21.59-4.23,1.76-5.85,3.38l-61.6,61.6c-1.62,1.62-2.79,3.64-3.38,5.85Z"/>
  </g>
  <g id="BLACK">
    <path class="st0" d="M180.13,186.75l56.65-56.65,53.54-14.35c4.5-1.21,8.02-4.73,9.23-9.23,1.21-4.5-.08-9.31-3.38-12.61L206.08,3.82c-3.3-3.3-8.1-4.58-12.61-3.38-4.5,1.21-8.02,4.73-9.23,9.23l-14.35,53.54-56.65,56.65-53.54,14.35c-4.51,1.21-8.02,4.72-9.23,9.23-1.21,4.5.08,9.31,3.38,12.61l33.11,33.11s-.09.08-.13.12L1.37,290.45c-1.95,2.3-1.8,5.71.33,7.85s5.54,2.28,7.85.33l101.17-85.46s.08-.09.12-.13l33.11,33.11c3.3,3.3,8.1,4.59,12.61,3.38,4.51-1.21,8.02-4.72,9.23-9.23l14.35-53.54ZM155.82,176.62l-9.4,35.08-58.12-58.12,35.08-9.4c2.21-.59,4.23-1.76,5.85-3.38l61.6-61.6c1.62-1.62,2.79-3.64,3.38-5.85l9.4-35.08,58.12,58.12-35.08,9.4c-2.21.59-4.23,1.76-5.85,3.38l-61.6,61.6c-1.62,1.62-2.79,3.64-3.38,5.85Z"/>
  </g>
</svg>