<?xml version="1.0" encoding="UTF-8"?>
<svg xmlns="http://www.w3.org/2000/svg" version="1.1" viewBox="0 0 300 300">
  <!-- Generator: Adobe Illustrator 29.3.1, SVG Export Plug-In . SVG Version: 2.1.0 Build 151)  -->
  <defs>
    <style>
      .st0 {
        fill: #231f20;
      }

      .st1 {
        fill: #fff;
      }

      .st2 {
        display: none;
      }
    </style>
  </defs>
  <g id="WHITE">
    <path class="st1" d="M150,152.55c-37.11,0-67.3-30.19-67.3-67.3S112.89,17.96,150,17.96s67.3,30.19,67.3,67.3-30.19,67.3-67.3,67.3ZM150,36.88c-26.68,0-48.38,21.7-48.38,48.38s21.7,48.38,48.38,48.38,48.38-21.7,48.38-48.38-21.7-48.38-48.38-48.38Z"/>
    <path class="st1" d="M67.3,282.04C30.19,282.04,0,251.85,0,214.74s30.19-67.3,67.3-67.3,67.3,30.19,67.3,67.3-30.19,67.3-67.3,67.3ZM67.3,166.37c-26.68,0-48.38,21.7-48.38,48.38s21.7,48.38,48.38,48.38,48.38-21.7,48.38-48.38-21.7-48.38-48.38-48.38Z"/>
    <path class="st1" d="M232.7,279.27c-37.11,0-67.3-30.19-67.3-67.3s30.19-67.3,67.3-67.3,67.3,30.19,67.3,67.3-30.19,67.3-67.3,67.3ZM232.7,163.6c-26.68,0-48.38,21.7-48.38,48.38s21.7,48.38,48.38,48.38,48.38-21.7,48.38-48.38-21.7-48.38-48.38-48.38Z"/>
  </g>
  <g id="BLACK" class="st2">
    <path class="st0" d="M150,152.55c-37.11,0-67.3-30.19-67.3-67.3S112.89,17.96,150,17.96s67.3,30.19,67.3,67.3-30.19,67.3-67.3,67.3ZM150,36.88c-26.68,0-48.38,21.7-48.38,48.38s21.7,48.38,48.38,48.38,48.38-21.7,48.38-48.38-21.7-48.38-48.38-48.38Z"/>
    <path class="st0" d="M67.3,282.04C30.19,282.04,0,251.85,0,214.74s30.19-67.3,67.3-67.3,67.3,30.19,67.3,67.3-30.19,67.3-67.3,67.3ZM67.3,166.37c-26.68,0-48.38,21.7-48.38,48.38s21.7,48.38,48.38,48.38,48.38-21.7,48.38-48.38-21.7-48.38-48.38-48.38Z"/>
    <path class="st0" d="M232.7,279.27c-37.11,0-67.3-30.19-67.3-67.3s30.19-67.3,67.3-67.3,67.3,30.19,67.3,67.3-30.19,67.3-67.3,67.3ZM232.7,163.6c-26.68,0-48.38,21.7-48.38,48.38s21.7,48.38,48.38,48.38,48.38-21.7,48.38-48.38-21.7-48.38-48.38-48.38Z"/>
  </g>
</svg>