<?xml version="1.0" encoding="UTF-8"?>
<svg xmlns="http://www.w3.org/2000/svg" version="1.1" viewBox="0 0 300 300">
  <!-- Generator: Adobe Illustrator 29.3.1, SVG Export Plug-In . SVG Version: 2.1.0 Build 151)  -->
  <defs>
    <style>
      .st0 {
        fill: #231f20;
      }

      .st1 {
        fill: #fff;
      }

      .st2 {
        display: none;
      }
    </style>
  </defs>
  <g id="WHITE">
    <path class="st1" d="M127.48,300c-5.85,0-10.6-4.74-10.6-10.6V10.6c0-4,2.26-7.67,5.83-9.47,3.58-1.8,7.86-1.43,11.08.96,11.91,8.84,21.98,19.61,29.92,31.99,12.14,18.94,15.61,35.92,17.47,45.04,2.98,14.61,2.05,28.15.19,55.13-.34,4.89-.97,13.99-7.57,22.02-7.2,8.75-17.25,11.27-22.08,12.49-4.47,1.12-9.04,1.64-13.65,1.55v119.1c0,5.85-4.74,10.6-10.6,10.6ZM138.08,149.11c2.87.09,5.72-.21,8.48-.9,3.04-.76,8.12-2.04,10.89-5.41,2.12-2.58,2.51-5.92,2.79-10.01,1.73-25.06,2.6-37.64.19-49.43-1.59-7.77-4.54-22.24-14.55-37.85-2.37-3.7-4.98-7.22-7.8-10.56v114.15Z"/>
  </g>
  <g id="BLACK" class="st2">
    <path class="st0" d="M127.48,300c-5.85,0-10.6-4.74-10.6-10.6V10.6c0-4,2.26-7.67,5.83-9.47,3.58-1.8,7.86-1.43,11.08.96,11.91,8.84,21.98,19.61,29.92,31.99,12.14,18.94,15.61,35.92,17.47,45.04,2.98,14.61,2.05,28.15.19,55.13-.34,4.89-.97,13.99-7.57,22.02-7.2,8.75-17.25,11.27-22.08,12.49-4.47,1.12-9.04,1.64-13.65,1.55v119.1c0,5.85-4.74,10.6-10.6,10.6ZM138.08,149.11c2.87.09,5.72-.21,8.48-.9,3.04-.76,8.12-2.04,10.89-5.41,2.12-2.58,2.51-5.92,2.79-10.01,1.73-25.06,2.6-37.64.19-49.43-1.59-7.77-4.54-22.24-14.55-37.85-2.37-3.7-4.98-7.22-7.8-10.56v114.15Z"/>
  </g>
</svg>