<?xml version="1.0" encoding="UTF-8"?>
<svg xmlns="http://www.w3.org/2000/svg" version="1.1" viewBox="0 0 300 300">
  <!-- Generator: Adobe Illustrator 29.3.1, SVG Export Plug-In . SVG Version: 2.1.0 Build 151)  -->
  <defs>
    <style>
      .st0 {
        fill: #d8d8d8;
      }

      .st1 {
        fill: #607c8a;
      }

      .st2 {
        fill: #231f20;
      }

      .st3 {
        fill: #fff;
      }

      .st4 {
        fill: #8196a1;
      }

      .st5 {
        fill: silver;
      }

      .st6 {
        display: none;
      }
    </style>
  </defs>
  <g id="LINK_BLUE_GRAY" class="st6">
    <path class="st1" d="M150,27C74.61,27,13.5,88.11,13.5,163.5s61.11,136.5,136.5,136.5,136.5-61.11,136.5-136.5S225.39,27,150,27ZM150,275.43c-61.82,0-111.93-50.11-111.93-111.93s50.11-111.93,111.93-111.93,111.93,50.11,111.93,111.93-50.11,111.93-111.93,111.93Z"/>
    <rect class="st1" x="137.72" y="76.14" width="24.57" height="104.76" rx="12" ry="12"/>
    <rect class="st1" x="164.19" y="149.21" width="24.57" height="93.98" rx="12" ry="12" transform="translate(440 210.14) rotate(135)"/>
    <rect class="st1" x="131.67" y="14.7" width="36.67" height="31.27"/>
    <rect class="st1" x="120" y="-.12" width="60" height="16"/>
  </g>
  <g id="LINK_BLUE_GRAY_MO" class="st6">
    <path class="st4" d="M150,27C74.61,27,13.5,88.11,13.5,163.5s61.11,136.5,136.5,136.5,136.5-61.11,136.5-136.5S225.39,27,150,27ZM150,275.43c-61.82,0-111.93-50.11-111.93-111.93s50.11-111.93,111.93-111.93,111.93,50.11,111.93,111.93-50.11,111.93-111.93,111.93Z"/>
    <rect class="st4" x="137.72" y="76.14" width="24.57" height="104.76" rx="12" ry="12"/>
    <rect class="st4" x="164.19" y="149.21" width="24.57" height="93.98" rx="12" ry="12" transform="translate(440 210.14) rotate(135)"/>
    <rect class="st4" x="131.67" y="14.7" width="36.67" height="31.27"/>
    <rect class="st4" x="120" y="-.12" width="60" height="16"/>
  </g>
  <g id="MEDIUM_GRAY" class="st6">
    <path class="st5" d="M150,27C74.61,27,13.5,88.11,13.5,163.5s61.11,136.5,136.5,136.5,136.5-61.11,136.5-136.5S225.39,27,150,27ZM150,275.43c-61.82,0-111.93-50.11-111.93-111.93s50.11-111.93,111.93-111.93,111.93,50.11,111.93,111.93-50.11,111.93-111.93,111.93Z"/>
    <rect class="st5" x="137.72" y="76.14" width="24.57" height="104.76" rx="12" ry="12"/>
    <rect class="st5" x="164.19" y="149.21" width="24.57" height="93.98" rx="12" ry="12" transform="translate(440 210.14) rotate(135)"/>
    <rect class="st5" x="131.67" y="14.7" width="36.67" height="31.27"/>
    <rect class="st5" x="120" y="-.12" width="60" height="16"/>
  </g>
  <g id="MEDIUM_GRAY_MO" class="st6">
    <path class="st0" d="M150,27C74.61,27,13.5,88.11,13.5,163.5s61.11,136.5,136.5,136.5,136.5-61.11,136.5-136.5S225.39,27,150,27ZM150,275.43c-61.82,0-111.93-50.11-111.93-111.93s50.11-111.93,111.93-111.93,111.93,50.11,111.93,111.93-50.11,111.93-111.93,111.93Z"/>
    <rect class="st0" x="137.72" y="76.14" width="24.57" height="104.76" rx="12" ry="12"/>
    <rect class="st0" x="164.19" y="149.21" width="24.57" height="93.98" rx="12" ry="12" transform="translate(440 210.14) rotate(135)"/>
    <rect class="st0" x="131.67" y="14.7" width="36.67" height="31.27"/>
    <rect class="st0" x="120" y="-.12" width="60" height="16"/>
  </g>
  <g id="WHITE">
    <path class="st3" d="M150,27C74.61,27,13.5,88.11,13.5,163.5s61.11,136.5,136.5,136.5,136.5-61.11,136.5-136.5S225.39,27,150,27ZM150,275.43c-61.82,0-111.93-50.11-111.93-111.93s50.11-111.93,111.93-111.93,111.93,50.11,111.93,111.93-50.11,111.93-111.93,111.93Z"/>
    <rect class="st3" x="137.72" y="76.14" width="24.57" height="104.76" rx="12" ry="12"/>
    <rect class="st3" x="164.19" y="149.21" width="24.57" height="93.98" rx="12" ry="12" transform="translate(440 210.14) rotate(135)"/>
    <rect class="st3" x="131.67" y="14.7" width="36.67" height="31.27"/>
    <rect class="st3" x="120" y="-.12" width="60" height="16"/>
  </g>
  <g id="BLACK" class="st6">
    <path class="st2" d="M150,27C74.61,27,13.5,88.11,13.5,163.5s61.11,136.5,136.5,136.5,136.5-61.11,136.5-136.5S225.39,27,150,27ZM150,275.43c-61.82,0-111.93-50.11-111.93-111.93s50.11-111.93,111.93-111.93,111.93,50.11,111.93,111.93-50.11,111.93-111.93,111.93Z"/>
    <rect class="st2" x="137.72" y="76.14" width="24.57" height="104.76" rx="12" ry="12"/>
    <rect class="st2" x="164.19" y="149.21" width="24.57" height="93.98" rx="12" ry="12" transform="translate(440 210.14) rotate(135)"/>
    <rect class="st2" x="131.67" y="14.7" width="36.67" height="31.27"/>
    <rect class="st2" x="120" y="-.12" width="60" height="16"/>
  </g>
</svg>