<?xml version="1.0" encoding="UTF-8"?>
<svg xmlns="http://www.w3.org/2000/svg" version="1.1" viewBox="0 0 300 300">
  <!-- Generator: Adobe Illustrator 29.3.1, SVG Export Plug-In . SVG Version: 2.1.0 Build 151)  -->
  <defs>
    <style>
      .st0 {
        fill: #231f20;
      }

      .st1 {
        fill: #fff;
      }

      .st2 {
        display: none;
      }
    </style>
  </defs>
  <g id="WHITE">
    <path class="st1" d="M192.57,270.23c2.49,0,4.51-2.02,4.51-4.51v-78.66c0-2.49-2.02-4.51-4.51-4.51s-4.51,2.02-4.51,4.51v78.66c0,2.49,2.02,4.51,4.51,4.51Z"/>
    <path class="st1" d="M202.06,89.31c-8.18-8.44-18.54-22.53-21.88-42.08-.98-5.76-1.27-11.59-.91-17.44,5.95-2.11,10.23-7.78,10.23-14.44,0-8.46-6.88-15.34-15.34-15.34h-48.32c-8.46,0-15.34,6.88-15.34,15.34,0,6.66,4.28,12.33,10.23,14.44.36,5.85.07,11.69-.91,17.44-3.34,19.55-13.7,33.64-21.88,42.08-7.63,4.58-12.77,12.91-12.77,22.43v162.1c0,14.43,11.74,26.16,26.16,26.16h77.32c14.43,0,26.16-11.74,26.16-26.16V111.74c0-9.53-5.14-17.86-12.77-22.43ZM95.07,111.74c0-4.29,1.6-8.21,4.21-11.22.85-.76,1.76-1.6,2.72-2.52,2.86-2.13,6.39-3.41,10.22-3.41h75.59c3.83,0,7.36,1.28,10.22,3.41.95.91,1.86,1.76,2.72,2.52,2.61,3.01,4.21,6.93,4.21,11.22v47.28c-2.51-.5-4.95-1.16-7.3-2.04-4.23-1.59-6.83-3.27-9.35-4.9-3.34-2.17-6.8-4.4-12.96-5.71-9.46-2-18.6-1.21-26.43,2.3-3.13,1.4-5.18,2.86-7,4.14-2.31,1.63-4.13,2.92-8.06,4.07-2.53.74-6.35,1.85-10.81,1.09-1.39-.24-1.78-.42-4.43-1.75-1.61-.81-3.82-1.92-7.28-3.52-5.66-2.61-9.07-4.18-13.46-5.45-.92-.27-1.86-.47-2.79-.69v-34.8ZM173.29,9.02c3.48,0,6.32,2.83,6.32,6.32s-2.83,6.32-6.32,6.32h-46.58c-3.48,0-6.32-2.83-6.32-6.32s2.83-6.32,6.32-6.32h46.58ZM128.72,48.74c1.02-5.97,1.37-12.01,1.09-18.07h40.39c-.28,6.06.07,12.1,1.09,18.07,2.62,15.33,9.09,27.62,15.85,36.83h-74.27c6.76-9.21,13.23-21.5,15.85-36.83ZM112.21,290.98c-9.45,0-17.14-7.69-17.14-17.14v-118c.09.03.19.05.28.07,3.59,1.04,6.33,2.27,12.2,4.97,3.32,1.53,5.44,2.6,7,3.38,2.79,1.4,4.19,2.11,6.96,2.58,6.51,1.12,11.73-.41,14.86-1.32,5.38-1.57,8.23-3.58,10.74-5.36,1.62-1.15,3.16-2.23,5.48-3.27,5.99-2.68,13.41-3.29,20.88-1.71,4.53.96,6.79,2.43,9.92,4.46,2.78,1.8,5.94,3.85,11.08,5.78,3.37,1.26,6.87,2.18,10.47,2.78v105.64c0,9.45-7.69,17.14-17.14,17.14h-75.59Z"/>
  </g>
  <g id="BLACK" class="st2">
    <path class="st0" d="M192.57,270.23c2.49,0,4.51-2.02,4.51-4.51v-78.66c0-2.49-2.02-4.51-4.51-4.51s-4.51,2.02-4.51,4.51v78.66c0,2.49,2.02,4.51,4.51,4.51Z"/>
    <path class="st0" d="M202.06,89.31c-8.18-8.44-18.54-22.53-21.88-42.08-.98-5.76-1.27-11.59-.91-17.44,5.95-2.11,10.23-7.78,10.23-14.44,0-8.46-6.88-15.34-15.34-15.34h-48.32c-8.46,0-15.34,6.88-15.34,15.34,0,6.66,4.28,12.33,10.23,14.44.36,5.85.07,11.69-.91,17.44-3.34,19.55-13.7,33.64-21.88,42.08-7.63,4.58-12.77,12.91-12.77,22.43v162.1c0,14.43,11.74,26.16,26.16,26.16h77.32c14.43,0,26.16-11.74,26.16-26.16V111.74c0-9.53-5.14-17.86-12.77-22.43ZM95.07,111.74c0-4.29,1.6-8.21,4.21-11.22.85-.76,1.76-1.6,2.72-2.52,2.86-2.13,6.39-3.41,10.22-3.41h75.59c3.83,0,7.36,1.28,10.22,3.41.95.91,1.86,1.76,2.72,2.52,2.61,3.01,4.21,6.93,4.21,11.22v47.28c-2.51-.5-4.95-1.16-7.3-2.04-4.23-1.59-6.83-3.27-9.35-4.9-3.34-2.17-6.8-4.4-12.96-5.71-9.46-2-18.6-1.21-26.43,2.3-3.13,1.4-5.18,2.86-7,4.14-2.31,1.63-4.13,2.92-8.06,4.07-2.53.74-6.35,1.85-10.81,1.09-1.39-.24-1.78-.42-4.43-1.75-1.61-.81-3.82-1.92-7.28-3.52-5.66-2.61-9.07-4.18-13.46-5.45-.92-.27-1.86-.47-2.79-.69v-34.8ZM173.29,9.02c3.48,0,6.32,2.83,6.32,6.32s-2.83,6.32-6.32,6.32h-46.58c-3.48,0-6.32-2.83-6.32-6.32s2.83-6.32,6.32-6.32h46.58ZM128.72,48.74c1.02-5.97,1.37-12.01,1.09-18.07h40.39c-.28,6.06.07,12.1,1.09,18.07,2.62,15.33,9.09,27.62,15.85,36.83h-74.27c6.76-9.21,13.23-21.5,15.85-36.83ZM112.21,290.98c-9.45,0-17.14-7.69-17.14-17.14v-118c.09.03.19.05.28.07,3.59,1.04,6.33,2.27,12.2,4.97,3.32,1.53,5.44,2.6,7,3.38,2.79,1.4,4.19,2.11,6.96,2.58,6.51,1.12,11.73-.41,14.86-1.32,5.38-1.57,8.23-3.58,10.74-5.36,1.62-1.15,3.16-2.23,5.48-3.27,5.99-2.68,13.41-3.29,20.88-1.71,4.53.96,6.79,2.43,9.92,4.46,2.78,1.8,5.94,3.85,11.08,5.78,3.37,1.26,6.87,2.18,10.47,2.78v105.64c0,9.45-7.69,17.14-17.14,17.14h-75.59Z"/>
  </g>
</svg>