<?xml version="1.0" encoding="utf-8"?>
<!-- Generator: Adobe Illustrator 26.1.0, SVG Export Plug-In . SVG Version: 6.00 Build 0)  -->
<svg version="1.1" xmlns="http://www.w3.org/2000/svg" xmlns:xlink="http://www.w3.org/1999/xlink" x="0px" y="0px"
	 viewBox="0 0 300 300" style="enable-background:new 0 0 300 300;" xml:space="preserve">
<style type="text/css">
	.st0{display:none;}
	.st1{display:inline;}
	.st2{fill:#A1A1A1;}
	.st3{fill:#BBBBBB;}
	.st4{fill:#D8D8D8;}
	.st5{fill:#FFFFFF;}
</style>
<g id="GRAY_00000160182552623044995460000001576412195663037330_" class="st0">
	<g class="st1">
		<path class="st2" d="M133.61,300c-3.98-1.36-8.17-2.68-10.58-6.3c-2-3-3.69-6.44-4.55-9.93c-1.44-5.85-2.16-11.89-3.05-17.87
			c-0.26-1.77-1.03-2.66-2.71-3.31c-5.27-2.03-10.43-4.34-15.71-6.33c-1.02-0.38-2.67-0.21-3.57,0.39
			c-5.11,3.42-10.05,7.08-15.09,10.6c-8.61,6.01-17.67,5.32-25.22-2.03c-5.87-5.72-11.67-11.53-17.4-17.39
			c-7.44-7.61-8.12-16.75-1.98-25.46c3.43-4.86,7.01-9.63,10.34-14.56c0.6-0.89,0.72-2.56,0.32-3.58
			c-2.09-5.35-4.55-10.55-6.6-15.91c-0.73-1.91-1.71-2.75-3.65-3.05c-5.97-0.93-11.93-1.97-17.89-3
			c-10.01-1.74-16.16-8.96-16.23-19.14c-0.06-8.3-0.06-16.6,0-24.89c0.07-10.28,6.34-17.54,16.49-19.23
			c5.96-0.99,11.94-1.92,17.88-3.05c0.92-0.18,2.06-1.1,2.43-1.97c2.47-5.72,4.82-11.49,7.04-17.31c0.33-0.86,0.08-2.27-0.45-3.05
			c-3.41-5-6.99-9.88-10.47-14.82c-6.4-9.09-5.63-18.25,2.22-26.14c5.58-5.61,11.17-11.2,16.81-16.75c7.81-7.68,17-8.37,25.92-2.02
			c4.61,3.29,9.23,6.56,13.76,9.96c1.57,1.18,2.8,1.42,4.71,0.53c5.11-2.4,10.33-4.59,15.6-6.59c1.83-0.7,2.56-1.67,2.86-3.48
			c1.11-6.73,2.1-13.5,3.58-20.15c1.78-7.99,8.57-13.69,16.74-13.93c9.56-0.28,19.14-0.31,28.7,0.01c8.88,0.3,15.61,6.83,17.2,15.98
			c1.04,5.96,2.05,11.92,2.97,17.89c0.25,1.66,0.98,2.45,2.57,3.06c5.72,2.2,11.4,4.53,17.01,7.01c1.58,0.7,2.61,0.55,3.95-0.43
			c4.8-3.52,9.67-6.95,14.54-10.37c8.72-6.12,17.87-5.44,25.46,1.98c5.86,5.74,11.66,11.54,17.39,17.4
			c7.33,7.51,8.04,16.64,2.03,25.24c-3.41,4.88-6.87,9.72-10.41,14.51c-1.05,1.41-1.22,2.55-0.48,4.22
			c2.33,5.25,4.53,10.56,6.59,15.92c0.69,1.8,1.68,2.56,3.53,2.84c5.98,0.9,11.95,1.88,17.89,2.99c7.9,1.47,13.18,5.95,15.35,13.84
			c0.13,0.46,0.37,0.89,0.57,1.33c0,10.93,0,21.87,0,32.8c-0.2,0.43-0.47,0.84-0.59,1.29c-2.28,7.93-7.61,12.48-15.64,13.91
			c-5.95,1.06-11.91,2.07-17.89,2.92c-1.82,0.26-2.65,1.06-3.29,2.71c-2.09,5.35-4.24,10.67-6.6,15.9c-0.8,1.78-0.63,2.94,0.49,4.44
			c3.49,4.69,6.85,9.49,10.21,14.28c6.12,8.73,5.47,17.88-1.92,25.47c-5.72,5.87-11.52,11.66-17.39,17.38
			c-7.62,7.43-16.77,8.11-25.45,1.99c-4.94-3.48-9.8-7.09-14.8-10.48c-0.83-0.56-2.38-0.72-3.32-0.36
			c-5.63,2.17-11.22,4.45-16.72,6.93c-1.06,0.48-2.15,1.92-2.38,3.08c-1.18,5.92-2.06,11.9-3.09,17.85
			c-1.2,6.94-4.9,11.98-11.43,14.81c-1.23,0.54-2.52,0.95-3.78,1.41C155.48,300,144.55,300,133.61,300z M283.23,149.98
			c0-3.61-0.16-7.23,0.05-10.83c0.17-2.83-0.88-3.96-3.68-4.36c-7.43-1.07-14.81-2.5-22.23-3.62c-4.92-0.74-7.48-3.42-9.14-8.14
			c-2.81-7.96-6.15-15.77-9.76-23.4c-2.08-4.4-2.08-8.05,0.81-11.97c4.59-6.19,8.91-12.58,13.46-18.8c1.34-1.84,1.35-3.15-0.33-4.79
			c-5.52-5.38-10.99-10.83-16.36-16.36c-1.65-1.7-2.94-1.65-4.76-0.31c-6.28,4.64-12.69,9.1-18.98,13.72
			c-3.62,2.67-7.25,3.02-11.17,0.78c-8-4.57-16.44-8.05-25.36-10.39c-4.08-1.07-6.46-3.68-7.14-7.94
			c-1.26-7.89-2.71-15.76-3.95-23.66c-0.34-2.16-1.25-2.97-3.45-2.94c-7.61,0.1-15.23,0.14-22.85-0.02
			c-2.58-0.05-3.65,0.83-4.03,3.34c-1.14,7.42-2.61,14.79-3.66,22.22c-0.73,5.16-3.41,7.95-8.32,9.72
			c-7.85,2.83-15.57,6.12-23.1,9.72c-4.47,2.13-8.21,2.25-12.23-0.74c-6.11-4.54-12.42-8.81-18.55-13.31
			c-1.91-1.4-3.21-1.5-4.96,0.32c-5.28,5.49-10.68,10.86-16.16,16.15c-1.77,1.71-1.83,3.04-0.39,4.99
			c4.56,6.21,8.87,12.62,13.48,18.79c2.99,4,2.98,7.71,0.87,12.21c-3.54,7.56-6.78,15.31-9.47,23.21c-1.7,5.01-4.53,7.6-9.66,8.33
			c-7.43,1.07-14.82,2.45-22.24,3.61c-2.24,0.35-3.09,1.35-3.05,3.69c0.13,7.61,0.13,15.23,0,22.84c-0.04,2.47,0.86,3.45,3.25,3.82
			c7.71,1.2,15.37,2.7,23.08,3.85c4.75,0.71,7.19,3.4,8.84,7.76c3.03,7.99,6.3,15.92,9.94,23.64c2.07,4.38,2.14,8.06-0.76,11.98
			c-4.58,6.2-8.92,12.57-13.48,18.79c-1.38,1.88-1.22,3.18,0.42,4.77c5.45,5.31,10.86,10.68,16.15,16.16
			c1.7,1.76,3.01,1.87,4.98,0.42c6.21-4.57,12.6-8.89,18.79-13.48c3.99-2.96,7.74-2.97,12.24-0.86c7.48,3.49,15.15,6.65,22.94,9.39
			c4.64,1.63,7.12,4.34,7.85,9.08c1.14,7.52,2.51,15,3.63,22.52c0.38,2.54,1.5,3.38,4.05,3.33c7.42-0.15,14.84-0.16,22.26,0
			c2.73,0.06,3.76-0.94,4.15-3.57c1.16-7.71,2.61-15.38,3.83-23.08c0.69-4.37,3.12-6.99,7.33-8.11c8.53-2.27,16.63-5.59,24.24-10.04
			c4.13-2.42,7.87-2.06,11.68,0.75c6.21,4.57,12.59,8.9,18.79,13.48c1.95,1.44,3.25,1.44,4.99-0.37
			c5.21-5.42,10.51-10.75,15.95-15.94c2.03-1.93,1.92-3.37,0.36-5.48c-4.41-5.96-8.51-12.15-12.97-18.07
			c-3.15-4.18-3.18-8.02-0.88-12.73c3.57-7.33,6.79-14.89,9.4-22.6c1.81-5.35,4.84-8.01,10.33-8.72c7.35-0.96,14.63-2.39,21.95-3.55
			c2.09-0.33,3.05-1.28,2.99-3.48C283.15,157.79,283.23,153.88,283.23,149.98z"/>
		<path class="st2" d="M214.75,149.9c0.27,35.43-28.66,64.47-64.51,64.78c-35.47,0.3-64.46-28.47-64.86-64.38
			c-0.4-35.49,28.81-64.86,64.62-64.96C185.55,85.23,214.48,114.08,214.75,149.9z M197.87,150.37
			c0.54-25.84-20.61-47.37-47.33-48.16c-25.84-0.76-47.67,20.69-48.3,47.45c-0.61,25.93,21.01,47.8,47.59,48.15
			C175.84,198.15,197.31,176.94,197.87,150.37z"/>
	</g>
</g>
<g id="MEDIUM_GRAY" class="st0">
	<g class="st1">
		<path class="st3" d="M133.61,300c-3.98-1.36-8.17-2.68-10.58-6.3c-2-3-3.69-6.44-4.55-9.93c-1.44-5.85-2.16-11.89-3.05-17.87
			c-0.26-1.77-1.03-2.66-2.71-3.31c-5.27-2.03-10.43-4.34-15.71-6.33c-1.02-0.38-2.67-0.21-3.57,0.39
			c-5.11,3.42-10.05,7.08-15.09,10.6c-8.61,6.01-17.67,5.32-25.22-2.03c-5.87-5.72-11.67-11.53-17.4-17.39
			c-7.44-7.61-8.12-16.75-1.98-25.46c3.43-4.86,7.01-9.63,10.34-14.56c0.6-0.89,0.72-2.56,0.32-3.58
			c-2.09-5.35-4.55-10.55-6.6-15.91c-0.73-1.91-1.71-2.75-3.65-3.05c-5.97-0.93-11.93-1.97-17.89-3
			c-10.01-1.74-16.16-8.96-16.23-19.14c-0.06-8.3-0.06-16.6,0-24.89c0.07-10.28,6.34-17.54,16.49-19.23
			c5.96-0.99,11.94-1.92,17.88-3.05c0.92-0.18,2.06-1.1,2.43-1.97c2.47-5.72,4.82-11.49,7.04-17.31c0.33-0.86,0.08-2.27-0.45-3.05
			c-3.41-5-6.99-9.88-10.47-14.82c-6.4-9.09-5.63-18.25,2.22-26.14c5.58-5.61,11.17-11.2,16.81-16.75c7.81-7.68,17-8.37,25.92-2.02
			c4.61,3.29,9.23,6.56,13.76,9.96c1.57,1.18,2.8,1.42,4.71,0.53c5.11-2.4,10.33-4.59,15.6-6.59c1.83-0.7,2.56-1.67,2.86-3.48
			c1.11-6.73,2.1-13.5,3.58-20.15c1.78-7.99,8.57-13.69,16.74-13.93c9.56-0.28,19.14-0.31,28.7,0.01c8.88,0.3,15.61,6.83,17.2,15.98
			c1.04,5.96,2.05,11.92,2.97,17.89c0.25,1.66,0.98,2.45,2.57,3.06c5.72,2.2,11.4,4.53,17.01,7.01c1.58,0.7,2.61,0.55,3.95-0.43
			c4.8-3.52,9.67-6.95,14.54-10.37c8.72-6.12,17.87-5.44,25.46,1.98c5.86,5.74,11.66,11.54,17.39,17.4
			c7.33,7.51,8.04,16.64,2.03,25.24c-3.41,4.88-6.87,9.72-10.41,14.51c-1.05,1.41-1.22,2.55-0.48,4.22
			c2.33,5.25,4.53,10.56,6.59,15.92c0.69,1.8,1.68,2.56,3.53,2.84c5.98,0.9,11.95,1.88,17.89,2.99c7.9,1.47,13.18,5.95,15.35,13.84
			c0.13,0.46,0.37,0.89,0.57,1.33c0,10.93,0,21.87,0,32.8c-0.2,0.43-0.47,0.84-0.59,1.29c-2.28,7.93-7.61,12.48-15.64,13.91
			c-5.95,1.06-11.91,2.07-17.89,2.92c-1.82,0.26-2.65,1.06-3.29,2.71c-2.09,5.35-4.24,10.67-6.6,15.9c-0.8,1.78-0.63,2.94,0.49,4.44
			c3.49,4.69,6.85,9.49,10.21,14.28c6.12,8.73,5.47,17.88-1.92,25.47c-5.72,5.87-11.52,11.66-17.39,17.38
			c-7.62,7.43-16.77,8.11-25.45,1.99c-4.94-3.48-9.8-7.09-14.8-10.48c-0.83-0.56-2.38-0.72-3.32-0.36
			c-5.63,2.17-11.22,4.45-16.72,6.93c-1.06,0.48-2.15,1.92-2.38,3.08c-1.18,5.92-2.06,11.9-3.09,17.85
			c-1.2,6.94-4.9,11.98-11.43,14.81c-1.23,0.54-2.52,0.95-3.78,1.41C155.48,300,144.55,300,133.61,300z M283.23,149.98
			c0-3.61-0.16-7.23,0.05-10.83c0.17-2.83-0.88-3.96-3.68-4.36c-7.43-1.07-14.81-2.5-22.23-3.62c-4.92-0.74-7.48-3.42-9.14-8.14
			c-2.81-7.96-6.15-15.77-9.76-23.4c-2.08-4.4-2.08-8.05,0.81-11.97c4.59-6.19,8.91-12.58,13.46-18.8c1.34-1.84,1.35-3.15-0.33-4.79
			c-5.52-5.38-10.99-10.83-16.36-16.36c-1.65-1.7-2.94-1.65-4.76-0.31c-6.28,4.64-12.69,9.1-18.98,13.72
			c-3.62,2.67-7.25,3.02-11.17,0.78c-8-4.57-16.44-8.05-25.36-10.39c-4.08-1.07-6.46-3.68-7.14-7.94
			c-1.26-7.89-2.71-15.76-3.95-23.66c-0.34-2.16-1.25-2.97-3.45-2.94c-7.61,0.1-15.23,0.14-22.85-0.02
			c-2.58-0.05-3.65,0.83-4.03,3.34c-1.14,7.42-2.61,14.79-3.66,22.22c-0.73,5.16-3.41,7.95-8.32,9.72
			c-7.85,2.83-15.57,6.12-23.1,9.72c-4.47,2.13-8.21,2.25-12.23-0.74c-6.11-4.54-12.42-8.81-18.55-13.31
			c-1.91-1.4-3.21-1.5-4.96,0.32c-5.28,5.49-10.68,10.86-16.16,16.15c-1.77,1.71-1.83,3.04-0.39,4.99
			c4.56,6.21,8.87,12.62,13.48,18.79c2.99,4,2.98,7.71,0.87,12.21c-3.54,7.56-6.78,15.31-9.47,23.21c-1.7,5.01-4.53,7.6-9.66,8.33
			c-7.43,1.07-14.82,2.45-22.24,3.61c-2.24,0.35-3.09,1.35-3.05,3.69c0.13,7.61,0.13,15.23,0,22.84c-0.04,2.47,0.86,3.45,3.25,3.82
			c7.71,1.2,15.37,2.7,23.08,3.85c4.75,0.71,7.19,3.4,8.84,7.76c3.03,7.99,6.3,15.92,9.94,23.64c2.07,4.38,2.14,8.06-0.76,11.98
			c-4.58,6.2-8.92,12.57-13.48,18.79c-1.38,1.88-1.22,3.18,0.42,4.77c5.45,5.31,10.86,10.68,16.15,16.16
			c1.7,1.76,3.01,1.87,4.98,0.42c6.21-4.57,12.6-8.89,18.79-13.48c3.99-2.96,7.74-2.97,12.24-0.86c7.48,3.49,15.15,6.65,22.94,9.39
			c4.64,1.63,7.12,4.34,7.85,9.08c1.14,7.52,2.51,15,3.63,22.52c0.38,2.54,1.5,3.38,4.05,3.33c7.42-0.15,14.84-0.16,22.26,0
			c2.73,0.06,3.76-0.94,4.15-3.57c1.16-7.71,2.61-15.38,3.83-23.08c0.69-4.37,3.12-6.99,7.33-8.11c8.53-2.27,16.63-5.59,24.24-10.04
			c4.13-2.42,7.87-2.06,11.68,0.75c6.21,4.57,12.59,8.9,18.79,13.48c1.95,1.44,3.25,1.44,4.99-0.37
			c5.21-5.42,10.51-10.75,15.95-15.94c2.03-1.93,1.92-3.37,0.36-5.48c-4.41-5.96-8.51-12.15-12.97-18.07
			c-3.15-4.18-3.18-8.02-0.88-12.73c3.57-7.33,6.79-14.89,9.4-22.6c1.81-5.35,4.84-8.01,10.33-8.72c7.35-0.96,14.63-2.39,21.95-3.55
			c2.09-0.33,3.05-1.28,2.99-3.48C283.15,157.79,283.23,153.88,283.23,149.98z"/>
		<path class="st3" d="M214.75,149.9c0.27,35.43-28.66,64.47-64.51,64.78c-35.47,0.3-64.46-28.47-64.86-64.38
			c-0.4-35.49,28.81-64.86,64.62-64.96C185.55,85.23,214.48,114.08,214.75,149.9z M197.87,150.37
			c0.54-25.84-20.61-47.37-47.33-48.16c-25.84-0.76-47.67,20.69-48.3,47.45c-0.61,25.93,21.01,47.8,47.59,48.15
			C175.84,198.15,197.31,176.94,197.87,150.37z"/>
	</g>
</g>
<g id="MEDIUM_GRAY_MO_00000150096431330652540230000012838072160517032327_" class="st0">
	<g class="st1">
		<path class="st4" d="M133.61,300c-3.98-1.36-8.17-2.68-10.58-6.3c-2-3-3.69-6.44-4.55-9.93c-1.44-5.85-2.16-11.89-3.05-17.87
			c-0.26-1.77-1.03-2.66-2.71-3.31c-5.27-2.03-10.43-4.34-15.71-6.33c-1.02-0.38-2.67-0.21-3.57,0.39
			c-5.11,3.42-10.05,7.08-15.09,10.6c-8.61,6.01-17.67,5.32-25.22-2.03c-5.87-5.72-11.67-11.53-17.4-17.39
			c-7.44-7.61-8.12-16.75-1.98-25.46c3.43-4.86,7.01-9.63,10.34-14.56c0.6-0.89,0.72-2.56,0.32-3.58
			c-2.09-5.35-4.55-10.55-6.6-15.91c-0.73-1.91-1.71-2.75-3.65-3.05c-5.97-0.93-11.93-1.97-17.89-3
			c-10.01-1.74-16.16-8.96-16.23-19.14c-0.06-8.3-0.06-16.6,0-24.89c0.07-10.28,6.34-17.54,16.49-19.23
			c5.96-0.99,11.94-1.92,17.88-3.05c0.92-0.18,2.06-1.1,2.43-1.97c2.47-5.72,4.82-11.49,7.04-17.31c0.33-0.86,0.08-2.27-0.45-3.05
			c-3.41-5-6.99-9.88-10.47-14.82c-6.4-9.09-5.63-18.25,2.22-26.14c5.58-5.61,11.17-11.2,16.81-16.75c7.81-7.68,17-8.37,25.92-2.02
			c4.61,3.29,9.23,6.56,13.76,9.96c1.57,1.18,2.8,1.42,4.71,0.53c5.11-2.4,10.33-4.59,15.6-6.59c1.83-0.7,2.56-1.67,2.86-3.48
			c1.11-6.73,2.1-13.5,3.58-20.15c1.78-7.99,8.57-13.69,16.74-13.93c9.56-0.28,19.14-0.31,28.7,0.01c8.88,0.3,15.61,6.83,17.2,15.98
			c1.04,5.96,2.05,11.92,2.97,17.89c0.25,1.66,0.98,2.45,2.57,3.06c5.72,2.2,11.4,4.53,17.01,7.01c1.58,0.7,2.61,0.55,3.95-0.43
			c4.8-3.52,9.67-6.95,14.54-10.37c8.72-6.12,17.87-5.44,25.46,1.98c5.86,5.74,11.66,11.54,17.39,17.4
			c7.33,7.51,8.04,16.64,2.03,25.24c-3.41,4.88-6.87,9.72-10.41,14.51c-1.05,1.41-1.22,2.55-0.48,4.22
			c2.33,5.25,4.53,10.56,6.59,15.92c0.69,1.8,1.68,2.56,3.53,2.84c5.98,0.9,11.95,1.88,17.89,2.99c7.9,1.47,13.18,5.95,15.35,13.84
			c0.13,0.46,0.37,0.89,0.57,1.33c0,10.93,0,21.87,0,32.8c-0.2,0.43-0.47,0.84-0.59,1.29c-2.28,7.93-7.61,12.48-15.64,13.91
			c-5.95,1.06-11.91,2.07-17.89,2.92c-1.82,0.26-2.65,1.06-3.29,2.71c-2.09,5.35-4.24,10.67-6.6,15.9c-0.8,1.78-0.63,2.94,0.49,4.44
			c3.49,4.69,6.85,9.49,10.21,14.28c6.12,8.73,5.47,17.88-1.92,25.47c-5.72,5.87-11.52,11.66-17.39,17.38
			c-7.62,7.43-16.77,8.11-25.45,1.99c-4.94-3.48-9.8-7.09-14.8-10.48c-0.83-0.56-2.38-0.72-3.32-0.36
			c-5.63,2.17-11.22,4.45-16.72,6.93c-1.06,0.48-2.15,1.92-2.38,3.08c-1.18,5.92-2.06,11.9-3.09,17.85
			c-1.2,6.94-4.9,11.98-11.43,14.81c-1.23,0.54-2.52,0.95-3.78,1.41C155.48,300,144.55,300,133.61,300z M283.23,149.98
			c0-3.61-0.16-7.23,0.05-10.83c0.17-2.83-0.88-3.96-3.68-4.36c-7.43-1.07-14.81-2.5-22.23-3.62c-4.92-0.74-7.48-3.42-9.14-8.14
			c-2.81-7.96-6.15-15.77-9.76-23.4c-2.08-4.4-2.08-8.05,0.81-11.97c4.59-6.19,8.91-12.58,13.46-18.8c1.34-1.84,1.35-3.15-0.33-4.79
			c-5.52-5.38-10.99-10.83-16.36-16.36c-1.65-1.7-2.94-1.65-4.76-0.31c-6.28,4.64-12.69,9.1-18.98,13.72
			c-3.62,2.67-7.25,3.02-11.17,0.78c-8-4.57-16.44-8.05-25.36-10.39c-4.08-1.07-6.46-3.68-7.14-7.94
			c-1.26-7.89-2.71-15.76-3.95-23.66c-0.34-2.16-1.25-2.97-3.45-2.94c-7.61,0.1-15.23,0.14-22.85-0.02
			c-2.58-0.05-3.65,0.83-4.03,3.34c-1.14,7.42-2.61,14.79-3.66,22.22c-0.73,5.16-3.41,7.95-8.32,9.72
			c-7.85,2.83-15.57,6.12-23.1,9.72c-4.47,2.13-8.21,2.25-12.23-0.74c-6.11-4.54-12.42-8.81-18.55-13.31
			c-1.91-1.4-3.21-1.5-4.96,0.32c-5.28,5.49-10.68,10.86-16.16,16.15c-1.77,1.71-1.83,3.04-0.39,4.99
			c4.56,6.21,8.87,12.62,13.48,18.79c2.99,4,2.98,7.71,0.87,12.21c-3.54,7.56-6.78,15.31-9.47,23.21c-1.7,5.01-4.53,7.6-9.66,8.33
			c-7.43,1.07-14.82,2.45-22.24,3.61c-2.24,0.35-3.09,1.35-3.05,3.69c0.13,7.61,0.13,15.23,0,22.84c-0.04,2.47,0.86,3.45,3.25,3.82
			c7.71,1.2,15.37,2.7,23.08,3.85c4.75,0.71,7.19,3.4,8.84,7.76c3.03,7.99,6.3,15.92,9.94,23.64c2.07,4.38,2.14,8.06-0.76,11.98
			c-4.58,6.2-8.92,12.57-13.48,18.79c-1.38,1.88-1.22,3.18,0.42,4.77c5.45,5.31,10.86,10.68,16.15,16.16
			c1.7,1.76,3.01,1.87,4.98,0.42c6.21-4.57,12.6-8.89,18.79-13.48c3.99-2.96,7.74-2.97,12.24-0.86c7.48,3.49,15.15,6.65,22.94,9.39
			c4.64,1.63,7.12,4.34,7.85,9.08c1.14,7.52,2.51,15,3.63,22.52c0.38,2.54,1.5,3.38,4.05,3.33c7.42-0.15,14.84-0.16,22.26,0
			c2.73,0.06,3.76-0.94,4.15-3.57c1.16-7.71,2.61-15.38,3.83-23.08c0.69-4.37,3.12-6.99,7.33-8.11c8.53-2.27,16.63-5.59,24.24-10.04
			c4.13-2.42,7.87-2.06,11.68,0.75c6.21,4.57,12.59,8.9,18.79,13.48c1.95,1.44,3.25,1.44,4.99-0.37
			c5.21-5.42,10.51-10.75,15.95-15.94c2.03-1.93,1.92-3.37,0.36-5.48c-4.41-5.96-8.51-12.15-12.97-18.07
			c-3.15-4.18-3.18-8.02-0.88-12.73c3.57-7.33,6.79-14.89,9.4-22.6c1.81-5.35,4.84-8.01,10.33-8.72c7.35-0.96,14.63-2.39,21.95-3.55
			c2.09-0.33,3.05-1.28,2.99-3.48C283.15,157.79,283.23,153.88,283.23,149.98z"/>
		<path class="st4" d="M214.75,149.9c0.27,35.43-28.66,64.47-64.51,64.78c-35.47,0.3-64.46-28.47-64.86-64.38
			c-0.4-35.49,28.81-64.86,64.62-64.96C185.55,85.23,214.48,114.08,214.75,149.9z M197.87,150.37
			c0.54-25.84-20.61-47.37-47.33-48.16c-25.84-0.76-47.67,20.69-48.3,47.45c-0.61,25.93,21.01,47.8,47.59,48.15
			C175.84,198.15,197.31,176.94,197.87,150.37z"/>
	</g>
</g>
<g id="WHITE_00000062883060493605948940000005999109953635993769_">
	<g>
		<path class="st5" d="M133.61,300c-3.98-1.36-8.17-2.68-10.58-6.3c-2-3-3.69-6.44-4.55-9.93c-1.44-5.85-2.16-11.89-3.05-17.87
			c-0.26-1.77-1.03-2.66-2.71-3.31c-5.27-2.03-10.43-4.34-15.71-6.33c-1.02-0.38-2.67-0.21-3.57,0.39
			c-5.11,3.42-10.05,7.08-15.09,10.6c-8.61,6.01-17.67,5.32-25.22-2.03c-5.87-5.72-11.67-11.53-17.4-17.39
			c-7.44-7.61-8.12-16.75-1.98-25.46c3.43-4.86,7.01-9.63,10.34-14.56c0.6-0.89,0.72-2.56,0.32-3.58
			c-2.09-5.35-4.55-10.55-6.6-15.91c-0.73-1.91-1.71-2.75-3.65-3.05c-5.97-0.93-11.93-1.97-17.89-3
			c-10.01-1.74-16.16-8.96-16.23-19.14c-0.06-8.3-0.06-16.6,0-24.89c0.07-10.28,6.34-17.54,16.49-19.23
			c5.96-0.99,11.94-1.92,17.88-3.05c0.92-0.18,2.06-1.1,2.43-1.97c2.47-5.72,4.82-11.49,7.04-17.31c0.33-0.86,0.08-2.27-0.45-3.05
			c-3.41-5-6.99-9.88-10.47-14.82c-6.4-9.09-5.63-18.25,2.22-26.14c5.58-5.61,11.17-11.2,16.81-16.75c7.81-7.68,17-8.37,25.92-2.02
			c4.61,3.29,9.23,6.56,13.76,9.96c1.57,1.18,2.8,1.42,4.71,0.53c5.11-2.4,10.33-4.59,15.6-6.59c1.83-0.7,2.56-1.67,2.86-3.48
			c1.11-6.73,2.1-13.5,3.58-20.15c1.78-7.99,8.57-13.69,16.74-13.93c9.56-0.28,19.14-0.31,28.7,0.01c8.88,0.3,15.61,6.83,17.2,15.98
			c1.04,5.96,2.05,11.92,2.97,17.89c0.25,1.66,0.98,2.45,2.57,3.06c5.72,2.2,11.4,4.53,17.01,7.01c1.58,0.7,2.61,0.55,3.95-0.43
			c4.8-3.52,9.67-6.95,14.54-10.37c8.72-6.12,17.87-5.44,25.46,1.98c5.86,5.74,11.66,11.54,17.39,17.4
			c7.33,7.51,8.04,16.64,2.03,25.24c-3.41,4.88-6.87,9.72-10.41,14.51c-1.05,1.41-1.22,2.55-0.48,4.22
			c2.33,5.25,4.53,10.56,6.59,15.92c0.69,1.8,1.68,2.56,3.53,2.84c5.98,0.9,11.95,1.88,17.89,2.99c7.9,1.47,13.18,5.95,15.35,13.84
			c0.13,0.46,0.37,0.89,0.57,1.33c0,10.93,0,21.87,0,32.8c-0.2,0.43-0.47,0.84-0.59,1.29c-2.28,7.93-7.61,12.48-15.64,13.91
			c-5.95,1.06-11.91,2.07-17.89,2.92c-1.82,0.26-2.65,1.06-3.29,2.71c-2.09,5.35-4.24,10.67-6.6,15.9c-0.8,1.78-0.63,2.94,0.49,4.44
			c3.49,4.69,6.85,9.49,10.21,14.28c6.12,8.73,5.47,17.88-1.92,25.47c-5.72,5.87-11.52,11.66-17.39,17.38
			c-7.62,7.43-16.77,8.11-25.45,1.99c-4.94-3.48-9.8-7.09-14.8-10.48c-0.83-0.56-2.38-0.72-3.32-0.36
			c-5.63,2.17-11.22,4.45-16.72,6.93c-1.06,0.48-2.15,1.92-2.38,3.08c-1.18,5.92-2.06,11.9-3.09,17.85
			c-1.2,6.94-4.9,11.98-11.43,14.81c-1.23,0.54-2.52,0.95-3.78,1.41C155.48,300,144.55,300,133.61,300z M283.23,149.98
			c0-3.61-0.16-7.23,0.05-10.83c0.17-2.83-0.88-3.96-3.68-4.36c-7.43-1.07-14.81-2.5-22.23-3.62c-4.92-0.74-7.48-3.42-9.14-8.14
			c-2.81-7.96-6.15-15.77-9.76-23.4c-2.08-4.4-2.08-8.05,0.81-11.97c4.59-6.19,8.91-12.58,13.46-18.8c1.34-1.84,1.35-3.15-0.33-4.79
			c-5.52-5.38-10.99-10.83-16.36-16.36c-1.65-1.7-2.94-1.65-4.76-0.31c-6.28,4.64-12.69,9.1-18.98,13.72
			c-3.62,2.67-7.25,3.02-11.17,0.78c-8-4.57-16.44-8.05-25.36-10.39c-4.08-1.07-6.46-3.68-7.14-7.94
			c-1.26-7.89-2.71-15.76-3.95-23.66c-0.34-2.16-1.25-2.97-3.45-2.94c-7.61,0.1-15.23,0.14-22.85-0.02
			c-2.58-0.05-3.65,0.83-4.03,3.34c-1.14,7.42-2.61,14.79-3.66,22.22c-0.73,5.16-3.41,7.95-8.32,9.72
			c-7.85,2.83-15.57,6.12-23.1,9.72c-4.47,2.13-8.21,2.25-12.23-0.74c-6.11-4.54-12.42-8.81-18.55-13.31
			c-1.91-1.4-3.21-1.5-4.96,0.32c-5.28,5.49-10.68,10.86-16.16,16.15c-1.77,1.71-1.83,3.04-0.39,4.99
			c4.56,6.21,8.87,12.62,13.48,18.79c2.99,4,2.98,7.71,0.87,12.21c-3.54,7.56-6.78,15.31-9.47,23.21c-1.7,5.01-4.53,7.6-9.66,8.33
			c-7.43,1.07-14.82,2.45-22.24,3.61c-2.24,0.35-3.09,1.35-3.05,3.69c0.13,7.61,0.13,15.23,0,22.84c-0.04,2.47,0.86,3.45,3.25,3.82
			c7.71,1.2,15.37,2.7,23.08,3.85c4.75,0.71,7.19,3.4,8.84,7.76c3.03,7.99,6.3,15.92,9.94,23.64c2.07,4.38,2.14,8.06-0.76,11.98
			c-4.58,6.2-8.92,12.57-13.48,18.79c-1.38,1.88-1.22,3.18,0.42,4.77c5.45,5.31,10.86,10.68,16.15,16.16
			c1.7,1.76,3.01,1.87,4.98,0.42c6.21-4.57,12.6-8.89,18.79-13.48c3.99-2.96,7.74-2.97,12.24-0.86c7.48,3.49,15.15,6.65,22.94,9.39
			c4.64,1.63,7.12,4.34,7.85,9.08c1.14,7.52,2.51,15,3.63,22.52c0.38,2.54,1.5,3.38,4.05,3.33c7.42-0.15,14.84-0.16,22.26,0
			c2.73,0.06,3.76-0.94,4.15-3.57c1.16-7.71,2.61-15.38,3.83-23.08c0.69-4.37,3.12-6.99,7.33-8.11c8.53-2.27,16.63-5.59,24.24-10.04
			c4.13-2.42,7.87-2.06,11.68,0.75c6.21,4.57,12.59,8.9,18.79,13.48c1.95,1.44,3.25,1.44,4.99-0.37
			c5.21-5.42,10.51-10.75,15.95-15.94c2.03-1.93,1.92-3.37,0.36-5.48c-4.41-5.96-8.51-12.15-12.97-18.07
			c-3.15-4.18-3.18-8.02-0.88-12.73c3.57-7.33,6.79-14.89,9.4-22.6c1.81-5.35,4.84-8.01,10.33-8.72c7.35-0.96,14.63-2.39,21.95-3.55
			c2.09-0.33,3.05-1.28,2.99-3.48C283.15,157.79,283.23,153.88,283.23,149.98z"/>
		<path class="st5" d="M214.75,149.9c0.27,35.43-28.66,64.47-64.51,64.78c-35.47,0.3-64.46-28.47-64.86-64.38
			c-0.4-35.49,28.81-64.86,64.62-64.96C185.55,85.23,214.48,114.08,214.75,149.9z M197.87,150.37
			c0.54-25.84-20.61-47.37-47.33-48.16c-25.84-0.76-47.67,20.69-48.3,47.45c-0.61,25.93,21.01,47.8,47.59,48.15
			C175.84,198.15,197.31,176.94,197.87,150.37z"/>
	</g>
</g>
<g id="BLACK_00000067231557158900698590000005452724094937840062_" class="st0">
	<g class="st1">
		<path d="M133.61,300c-3.98-1.36-8.17-2.68-10.58-6.3c-2-3-3.69-6.44-4.55-9.93c-1.44-5.85-2.16-11.89-3.05-17.87
			c-0.26-1.77-1.03-2.66-2.71-3.31c-5.27-2.03-10.43-4.34-15.71-6.33c-1.02-0.38-2.67-0.21-3.57,0.39
			c-5.11,3.42-10.05,7.08-15.09,10.6c-8.61,6.01-17.67,5.32-25.22-2.03c-5.87-5.72-11.67-11.53-17.4-17.39
			c-7.44-7.61-8.12-16.75-1.98-25.46c3.43-4.86,7.01-9.63,10.34-14.56c0.6-0.89,0.72-2.56,0.32-3.58
			c-2.09-5.35-4.55-10.55-6.6-15.91c-0.73-1.91-1.71-2.75-3.65-3.05c-5.97-0.93-11.93-1.97-17.89-3
			c-10.01-1.74-16.16-8.96-16.23-19.14c-0.06-8.3-0.06-16.6,0-24.89c0.07-10.28,6.34-17.54,16.49-19.23
			c5.96-0.99,11.94-1.92,17.88-3.05c0.92-0.18,2.06-1.1,2.43-1.97c2.47-5.72,4.82-11.49,7.04-17.31c0.33-0.86,0.08-2.27-0.45-3.05
			c-3.41-5-6.99-9.88-10.47-14.82c-6.4-9.09-5.63-18.25,2.22-26.14c5.58-5.61,11.17-11.2,16.81-16.75c7.81-7.68,17-8.37,25.92-2.02
			c4.61,3.29,9.23,6.56,13.76,9.96c1.57,1.18,2.8,1.42,4.71,0.53c5.11-2.4,10.33-4.59,15.6-6.59c1.83-0.7,2.56-1.67,2.86-3.48
			c1.11-6.73,2.1-13.5,3.58-20.15c1.78-7.99,8.57-13.69,16.74-13.93c9.56-0.28,19.14-0.31,28.7,0.01c8.88,0.3,15.61,6.83,17.2,15.98
			c1.04,5.96,2.05,11.92,2.97,17.89c0.25,1.66,0.98,2.45,2.57,3.06c5.72,2.2,11.4,4.53,17.01,7.01c1.58,0.7,2.61,0.55,3.95-0.43
			c4.8-3.52,9.67-6.95,14.54-10.37c8.72-6.12,17.87-5.44,25.46,1.98c5.86,5.74,11.66,11.54,17.39,17.4
			c7.33,7.51,8.04,16.64,2.03,25.24c-3.41,4.88-6.87,9.72-10.41,14.51c-1.05,1.41-1.22,2.55-0.48,4.22
			c2.33,5.25,4.53,10.56,6.59,15.92c0.69,1.8,1.68,2.56,3.53,2.84c5.98,0.9,11.95,1.88,17.89,2.99c7.9,1.47,13.18,5.95,15.35,13.84
			c0.13,0.46,0.37,0.89,0.57,1.33c0,10.93,0,21.87,0,32.8c-0.2,0.43-0.47,0.84-0.59,1.29c-2.28,7.93-7.61,12.48-15.64,13.91
			c-5.95,1.06-11.91,2.07-17.89,2.92c-1.82,0.26-2.65,1.06-3.29,2.71c-2.09,5.35-4.24,10.67-6.6,15.9c-0.8,1.78-0.63,2.94,0.49,4.44
			c3.49,4.69,6.85,9.49,10.21,14.28c6.12,8.73,5.47,17.88-1.92,25.47c-5.72,5.87-11.52,11.66-17.39,17.38
			c-7.62,7.43-16.77,8.11-25.45,1.99c-4.94-3.48-9.8-7.09-14.8-10.48c-0.83-0.56-2.38-0.72-3.32-0.36
			c-5.63,2.17-11.22,4.45-16.72,6.93c-1.06,0.48-2.15,1.92-2.38,3.08c-1.18,5.92-2.06,11.9-3.09,17.85
			c-1.2,6.94-4.9,11.98-11.43,14.81c-1.23,0.54-2.52,0.95-3.78,1.41C155.48,300,144.55,300,133.61,300z M283.23,149.98
			c0-3.61-0.16-7.23,0.05-10.83c0.17-2.83-0.88-3.96-3.68-4.36c-7.43-1.07-14.81-2.5-22.23-3.62c-4.92-0.74-7.48-3.42-9.14-8.14
			c-2.81-7.96-6.15-15.77-9.76-23.4c-2.08-4.4-2.08-8.05,0.81-11.97c4.59-6.19,8.91-12.58,13.46-18.8c1.34-1.84,1.35-3.15-0.33-4.79
			c-5.52-5.38-10.99-10.83-16.36-16.36c-1.65-1.7-2.94-1.65-4.76-0.31c-6.28,4.64-12.69,9.1-18.98,13.72
			c-3.62,2.67-7.25,3.02-11.17,0.78c-8-4.57-16.44-8.05-25.36-10.39c-4.08-1.07-6.46-3.68-7.14-7.94
			c-1.26-7.89-2.71-15.76-3.95-23.66c-0.34-2.16-1.25-2.97-3.45-2.94c-7.61,0.1-15.23,0.14-22.85-0.02
			c-2.58-0.05-3.65,0.83-4.03,3.34c-1.14,7.42-2.61,14.79-3.66,22.22c-0.73,5.16-3.41,7.95-8.32,9.72
			c-7.85,2.83-15.57,6.12-23.1,9.72c-4.47,2.13-8.21,2.25-12.23-0.74c-6.11-4.54-12.42-8.81-18.55-13.31
			c-1.91-1.4-3.21-1.5-4.96,0.32c-5.28,5.49-10.68,10.86-16.16,16.15c-1.77,1.71-1.83,3.04-0.39,4.99
			c4.56,6.21,8.87,12.62,13.48,18.79c2.99,4,2.98,7.71,0.87,12.21c-3.54,7.56-6.78,15.31-9.47,23.21c-1.7,5.01-4.53,7.6-9.66,8.33
			c-7.43,1.07-14.82,2.45-22.24,3.61c-2.24,0.35-3.09,1.35-3.05,3.69c0.13,7.61,0.13,15.23,0,22.84c-0.04,2.47,0.86,3.45,3.25,3.82
			c7.71,1.2,15.37,2.7,23.08,3.85c4.75,0.71,7.19,3.4,8.84,7.76c3.03,7.99,6.3,15.92,9.94,23.64c2.07,4.38,2.14,8.06-0.76,11.98
			c-4.58,6.2-8.92,12.57-13.48,18.79c-1.38,1.88-1.22,3.18,0.42,4.77c5.45,5.31,10.86,10.68,16.15,16.16
			c1.7,1.76,3.01,1.87,4.98,0.42c6.21-4.57,12.6-8.89,18.79-13.48c3.99-2.96,7.74-2.97,12.24-0.86c7.48,3.49,15.15,6.65,22.94,9.39
			c4.64,1.63,7.12,4.34,7.85,9.08c1.14,7.52,2.51,15,3.63,22.52c0.38,2.54,1.5,3.38,4.05,3.33c7.42-0.15,14.84-0.16,22.26,0
			c2.73,0.06,3.76-0.94,4.15-3.57c1.16-7.71,2.61-15.38,3.83-23.08c0.69-4.37,3.12-6.99,7.33-8.11c8.53-2.27,16.63-5.59,24.24-10.04
			c4.13-2.42,7.87-2.06,11.68,0.75c6.21,4.57,12.59,8.9,18.79,13.48c1.95,1.44,3.25,1.44,4.99-0.37
			c5.21-5.42,10.51-10.75,15.95-15.94c2.03-1.93,1.92-3.37,0.36-5.48c-4.41-5.96-8.51-12.15-12.97-18.07
			c-3.15-4.18-3.18-8.02-0.88-12.73c3.57-7.33,6.79-14.89,9.4-22.6c1.81-5.35,4.84-8.01,10.33-8.72c7.35-0.96,14.63-2.39,21.95-3.55
			c2.09-0.33,3.05-1.28,2.99-3.48C283.15,157.79,283.23,153.88,283.23,149.98z"/>
		<path d="M214.75,149.9c0.27,35.43-28.66,64.47-64.51,64.78c-35.47,0.3-64.46-28.47-64.86-64.38
			c-0.4-35.49,28.81-64.86,64.62-64.96C185.55,85.23,214.48,114.08,214.75,149.9z M197.87,150.37
			c0.54-25.84-20.61-47.37-47.33-48.16c-25.84-0.76-47.67,20.69-48.3,47.45c-0.61,25.93,21.01,47.8,47.59,48.15
			C175.84,198.15,197.31,176.94,197.87,150.37z"/>
	</g>
</g>
</svg>
