<?xml version="1.0" encoding="UTF-8"?>
<svg xmlns="http://www.w3.org/2000/svg" version="1.1" viewBox="0 0 300 300">
  <!-- Generator: Adobe Illustrator 29.3.1, SVG Export Plug-In . SVG Version: 2.1.0 Build 151)  -->
  <defs>
    <style>
      .st0 {
        fill: #231f20;
      }

      .st1 {
        fill: #fff;
      }

      .st2 {
        display: none;
      }
    </style>
  </defs>
  <g id="WHITE">
    <path class="st1" d="M299.17,135.49c-2.61-6.08-10.77-9.35-18.19-7.29l-18.68,5.17v-5.52h.66c7.32,0,13.27-5.96,13.27-13.28s-5.96-13.27-13.27-13.27h-4.52c-5.82-5.38-13.23-10.33-22.12-14.7-23.06-11.33-53.61-17.57-86.02-17.57s-62.96,6.24-86.02,17.57c-8.88,4.36-16.29,9.31-22.11,14.7h-5.13c-7.32,0-13.27,5.96-13.27,13.27s5.96,13.28,13.27,13.28h.66v5.53l-18.69-5.18c-7.42-2.05-15.58,1.22-18.19,7.29-1.26,2.94-1.08,6.12.5,8.95,1.65,2.95,4.75,5.24,8.49,6.27l25.43,7.04c.8.22,1.62.38,2.45.48v63.61c0,20.18,16.42,36.6,36.6,36.6h151.41c20.18,0,36.6-16.42,36.6-36.6v-63.61c.83-.1,1.64-.26,2.44-.48l25.43-7.04c3.74-1.04,6.83-3.32,8.49-6.27,1.59-2.83,1.77-6.01.5-8.95ZM68.56,95.29c21.76-10.69,50.79-16.58,81.75-16.58s59.99,5.89,81.75,16.58c3.87,1.9,7.4,3.91,10.61,6H57.95c3.2-2.09,6.74-4.1,10.61-6ZM37.04,118.16c-1.98,0-3.59-1.61-3.59-3.59s1.61-3.59,3.59-3.59h225.93c1.98,0,3.59,1.61,3.59,3.59s-1.61,3.59-3.59,3.59H37.04ZM12.65,143.02c-1.35-.37-2.39-1.12-2.95-2.11-.33-.58-.62-1.51-.15-2.6.7-1.62,2.73-2.65,4.88-2.65.58,0,1.17.08,1.75.24l21.52,5.96v8.11l-25.05-6.94ZM252.62,190.99v30.85c0,14.84-12.07,26.91-26.91,26.91H74.3c-14.84,0-26.91-12.07-26.91-26.91v-94h205.22v63.15ZM290.29,140.91c-.55.99-1.6,1.74-2.95,2.11l-25.04,6.94v-8.11l21.51-5.96c.58-.16,1.17-.24,1.75-.24,2.15,0,4.18,1.03,4.88,2.65.47,1.09.18,2.01-.15,2.6Z"/>
    <path class="st1" d="M180.58,55.29c0-7.58-6.16-13.74-13.74-13.74h-33.07c-7.58,0-13.74,6.16-13.74,13.74s6.16,13.74,13.74,13.74h33.07c7.58,0,13.74-6.16,13.74-13.74ZM133.78,60.15c-2.68,0-4.86-2.18-4.86-4.86s2.18-4.86,4.86-4.86h33.07c2.68,0,4.86,2.18,4.86,4.86s-2.18,4.86-4.86,4.86h-33.07Z"/>
  </g>
  <g id="BLACK" class="st2">
    <path class="st0" d="M299.17,135.49c-2.61-6.08-10.77-9.35-18.19-7.29l-18.68,5.17v-5.52h.66c7.32,0,13.27-5.96,13.27-13.28s-5.96-13.27-13.27-13.27h-4.52c-5.82-5.38-13.23-10.33-22.12-14.7-23.06-11.33-53.61-17.57-86.02-17.57s-62.96,6.24-86.02,17.57c-8.88,4.36-16.29,9.31-22.11,14.7h-5.13c-7.32,0-13.27,5.96-13.27,13.27s5.96,13.28,13.27,13.28h.66v5.53l-18.69-5.18c-7.42-2.05-15.58,1.22-18.19,7.29-1.26,2.94-1.08,6.12.5,8.95,1.65,2.95,4.75,5.24,8.49,6.27l25.43,7.04c.8.22,1.62.38,2.45.48v63.61c0,20.18,16.42,36.6,36.6,36.6h151.41c20.18,0,36.6-16.42,36.6-36.6v-63.61c.83-.1,1.64-.26,2.44-.48l25.43-7.04c3.74-1.04,6.83-3.32,8.49-6.27,1.59-2.83,1.77-6.01.5-8.95ZM68.56,95.29c21.76-10.69,50.79-16.58,81.75-16.58s59.99,5.89,81.75,16.58c3.87,1.9,7.4,3.91,10.61,6H57.95c3.2-2.09,6.74-4.1,10.61-6ZM37.04,118.16c-1.98,0-3.59-1.61-3.59-3.59s1.61-3.59,3.59-3.59h225.93c1.98,0,3.59,1.61,3.59,3.59s-1.61,3.59-3.59,3.59H37.04ZM12.65,143.02c-1.35-.37-2.39-1.12-2.95-2.11-.33-.58-.62-1.51-.15-2.6.7-1.62,2.73-2.65,4.88-2.65.58,0,1.17.08,1.75.24l21.52,5.96v8.11l-25.05-6.94ZM252.62,190.99v30.85c0,14.84-12.07,26.91-26.91,26.91H74.3c-14.84,0-26.91-12.07-26.91-26.91v-94h205.22v63.15ZM290.29,140.91c-.55.99-1.6,1.74-2.95,2.11l-25.04,6.94v-8.11l21.51-5.96c.58-.16,1.17-.24,1.75-.24,2.15,0,4.18,1.03,4.88,2.65.47,1.09.18,2.01-.15,2.6Z"/>
    <path class="st0" d="M180.58,55.29c0-7.58-6.16-13.74-13.74-13.74h-33.07c-7.58,0-13.74,6.16-13.74,13.74s6.16,13.74,13.74,13.74h33.07c7.58,0,13.74-6.16,13.74-13.74ZM133.78,60.15c-2.68,0-4.86-2.18-4.86-4.86s2.18-4.86,4.86-4.86h33.07c2.68,0,4.86,2.18,4.86,4.86s-2.18,4.86-4.86,4.86h-33.07Z"/>
  </g>
</svg>