<?xml version="1.0" encoding="UTF-8"?>
<svg xmlns="http://www.w3.org/2000/svg" version="1.1" viewBox="0 0 300 300">
  <!-- Generator: Adobe Illustrator 29.3.1, SVG Export Plug-In . SVG Version: 2.1.0 Build 151)  -->
  <defs>
    <style>
      .st0, .st1 {
        fill: #231f20;
      }

      .st1, .st2 {
        font-family: BookAntiqua, 'Book Antiqua';
        font-size: 238.12px;
      }

      .st3, .st2 {
        fill: #fff;
      }

      .st4 {
        display: none;
      }
    </style>
  </defs>
  <g id="WHITE">
    <path class="st3" d="M150,300C67.29,300,0,232.71,0,150S67.29,0,150,0s150,67.29,150,150-67.29,150-150,150ZM150,18.75c-72.37,0-131.25,58.88-131.25,131.25s58.88,131.25,131.25,131.25,131.25-58.88,131.25-131.25S222.37,18.75,150,18.75Z"/>
    <text class="st2" transform="translate(115.35 223.01)"><tspan x="0" y="0">i</tspan></text>
  </g>
  <g id="BLACK" class="st4">
    <path class="st0" d="M150,300C67.29,300,0,232.71,0,150S67.29,0,150,0s150,67.29,150,150-67.29,150-150,150ZM150,18.75c-72.37,0-131.25,58.88-131.25,131.25s58.88,131.25,131.25,131.25,131.25-58.88,131.25-131.25S222.37,18.75,150,18.75Z"/>
    <text class="st1" transform="translate(115.35 223.01)"><tspan x="0" y="0">i</tspan></text>
  </g>
</svg>