<?xml version="1.0" encoding="UTF-8"?>
<svg xmlns="http://www.w3.org/2000/svg" version="1.1" viewBox="0 0 300 300">
  <!-- Generator: Adobe Illustrator 29.3.1, SVG Export Plug-In . SVG Version: 2.1.0 Build 151)  -->
  <defs>
    <style>
      .st0 {
        fill: #231f20;
      }

      .st1 {
        fill: #fff;
      }

      .st2 {
        display: none;
      }
    </style>
  </defs>
  <g id="WHITE">
    <path class="st1" d="M89.24,90c0-8.28,6.31-15,14.09-15h93.33c7.78,0,14.09,6.72,14.09,15s-6.31,15-14.09,15h-93.33c-7.78,0-14.09-6.72-14.09-15Z"/>
    <path class="st1" d="M89.24,150c0-8.28,6.31-15,14.09-15h93.33c7.78,0,14.09,6.72,14.09,15s-6.31,15-14.09,15h-93.33c-7.78,0-14.09-6.72-14.09-15Z"/>
    <path class="st1" d="M89.24,210c0-8.28,6.31-15,14.09-15h93.33c7.78,0,14.09,6.72,14.09,15s-6.31,15-14.09,15h-93.33c-7.78,0-14.09-6.72-14.09-15Z"/>
    <path class="st1" d="M89.44,35.04L49.38,1.33c-2.11-1.77-5.19-1.77-7.3,0L2.03,35.04c-4.04,3.4-1.64,10,3.65,10h25.06v76.81c0,8.28,6.72,15,15,15s15-6.72,15-15V45.04h25.06c5.29,0,7.69-6.6,3.65-10Z"/>
    <path class="st1" d="M210.56,264.96l40.06,33.71c2.11,1.77,5.19,1.77,7.3,0l40.06-33.71c4.04-3.4,1.64-10-3.65-10h-25.06v-76.81c0-8.28-6.72-15-15-15s-15,6.72-15,15v76.81h-25.06c-5.29,0-7.69,6.6-3.65,10Z"/>
  </g>
  <g id="BLACK" class="st2">
    <line class="st0" x1="398.25" y1="122.56" x2="398.25" y2="23.23"/>
    <path class="st0" d="M89.24,90c0-8.28,6.31-15,14.09-15h93.33c7.78,0,14.09,6.72,14.09,15s-6.31,15-14.09,15h-93.33c-7.78,0-14.09-6.72-14.09-15Z"/>
    <path class="st0" d="M89.24,150c0-8.28,6.31-15,14.09-15h93.33c7.78,0,14.09,6.72,14.09,15s-6.31,15-14.09,15h-93.33c-7.78,0-14.09-6.72-14.09-15Z"/>
    <path class="st0" d="M89.24,210c0-8.28,6.31-15,14.09-15h93.33c7.78,0,14.09,6.72,14.09,15s-6.31,15-14.09,15h-93.33c-7.78,0-14.09-6.72-14.09-15Z"/>
    <path class="st0" d="M89.44,35.04L49.38,1.33c-2.11-1.77-5.19-1.77-7.3,0L2.03,35.04c-4.04,3.4-1.64,10,3.65,10h25.06v76.81c0,8.28,6.72,15,15,15s15-6.72,15-15V45.04h25.06c5.29,0,7.69-6.6,3.65-10Z"/>
    <path class="st0" d="M210.56,264.96l40.06,33.71c2.11,1.77,5.19,1.77,7.3,0l40.06-33.71c4.04-3.4,1.64-10-3.65-10h-25.06v-76.81c0-8.28-6.72-15-15-15s-15,6.72-15,15v76.81h-25.06c-5.29,0-7.69,6.6-3.65,10Z"/>
  </g>
</svg>