<?xml version="1.0" encoding="UTF-8"?>
<svg id="BLACK" xmlns="http://www.w3.org/2000/svg" version="1.1" viewBox="0 0 2896.99 799.5">
  <!-- Generator: Adobe Illustrator 30.5.0, SVG Export Plug-In . SVG Version: 2.1.4 Build 167)  -->
  <defs>
    <style>
      .st0, .st1 {
        stroke-width: 4px;
      }

      .st0, .st1, .st2, .st3 {
        stroke: #000;
        stroke-miterlimit: 10;
      }

      .st1, .st2, .st3 {
        fill: #fff;
      }

      .st2 {
        stroke-width: 2px;
      }

      .st3 {
        stroke-width: 5px;
      }
    </style>
  </defs>
  <path id="Ear" d="M151.64,299.92c13.25,56.23-76.66,89.18-116.47,68.38C-4.64,347.5-5.53,287.42,7.48,224.59,20.49,161.75,139.53,3.07,179.34,23.87c39.81,20.8-50.96,177.39-27.71,276.05Z"/>
  <path id="Ear1" data-name="Ear" d="M365.54,299.92c-13.25,56.23,76.66,89.18,116.47,68.38,39.81-20.8,40.7-80.88,27.69-143.71-13.01-62.85-132.05-221.52-171.86-200.72-39.81,20.8,50.96,177.39,27.71,276.05Z"/>
  <path class="st1" d="M285.03,323.5h-52.88c-74.32,0-134.56,60.24-134.56,134.56v61.88c0,38.46,16.13,73.14,42,97.66v122.83c0,31.51,25.55,57.06,57.06,57.06h2.87c31.51,0,57.06-25.55,57.06-57.06v-85.94h4v85.94c0,31.51,25.55,57.06,57.06,57.06h2.87c31.51,0,57.06-25.55,57.06-57.06v-122.83c25.87-24.52,42-59.21,42-97.66v-61.88c0-74.32-60.24-134.56-134.56-134.56Z"/>
  <g>
    <path d="M246.13,498.42c-6.03-.24-11.88-.66-17.5-1.24l-6.05,156.03c6.56,1.02,13.42,1.83,20.5,2.41l3.05-157.2Z"/>
    <path d="M224.64,496.75c-6.38-.75-12.44-1.71-18.09-2.84l-11.9,153.22c7.36,2.14,15.38,3.97,23.95,5.43l6.04-155.82Z"/>
    <path d="M190.73,645.94l11.87-152.87c-6.05-1.35-11.57-2.92-16.46-4.66l-17.33,148.46c6.19,3.38,13.58,6.43,21.92,9.07Z"/>
    <path d="M182.29,486.94c-7.68-3.12-13.44-6.72-16.74-10.63l-22.18,141.99c4.97,4.48,10.27,8.61,15.85,12.33,1.76,1.39,3.7,2.74,5.82,4.05l17.25-147.74Z"/>
    <path d="M139.84,615.01l22.66-145.04c-.04-.3-.07-.61-.09-.91,0-.06,0-.12,0-.18,0-.07,0-.13,0-.2,0-.07,0-.15,0-.22,0-.11,0-.22.01-.33.04-.73.17-1.46.38-2.18l26.57-139.36c-7.1,2.52-13.94,5.6-20.45,9.2l-50.15,253.26c5.95,9.5,13.04,18.21,21.07,25.96Z"/>
    <path d="M258.59,498.67c-2.85,0-5.68-.04-8.47-.12l-3.05,157.36c3.78.26,7.62.46,11.51.58v-157.83Z"/>
  </g>
  <g>
    <path d="M271.05,498.42c6.03-.24,11.88-.66,17.5-1.24l6.05,156.03c-6.56,1.02-13.42,1.83-20.5,2.41l-3.05-157.2Z"/>
    <path d="M292.54,496.75c6.38-.75,12.44-1.71,18.09-2.84l11.9,153.22c-7.36,2.14-15.38,3.97-23.95,5.43l-6.04-155.82Z"/>
    <path d="M326.44,645.94l-11.87-152.87c6.05-1.35,11.57-2.92,16.46-4.66l17.33,148.46c-6.19,3.38-13.58,6.43-21.92,9.07Z"/>
    <path d="M334.89,486.94c7.68-3.12,13.44-6.72,16.74-10.63l22.18,141.99c-4.97,4.48-10.27,8.61-15.85,12.33-1.76,1.39-3.7,2.74-5.82,4.05l-17.25-147.74Z"/>
    <path d="M377.34,615.01l-22.66-145.04c.04-.3.07-.61.09-.91,0-.06,0-.12,0-.18,0-.07,0-.13,0-.2,0-.07,0-.15,0-.22,0-.11,0-.22-.01-.33-.04-.73-.17-1.46-.38-2.18l-26.57-139.36c7.1,2.52,13.94,5.6,20.45,9.2l50.15,253.26c-5.95,9.5-13.04,18.21-21.07,25.96Z"/>
    <path d="M258.59,498.67c2.85,0,5.68-.04,8.47-.12l3.05,157.36c-3.78.26-7.62.46-11.51.58v-157.83Z"/>
  </g>
  <path id="Head" class="st3" d="M290.73,2.5h-64.29c-62.14,0-112.51,50.37-112.51,112.51l16.65,153.49c14,80,42,201,111.93,196.89h32.15c69.93,4.11,97.93-116.89,111.93-196.89l16.65-153.49c0-62.14-50.37-112.51-112.51-112.51Z"/>
  <path id="Shades" d="M135.36,127.93h95.37c12.27,0,22.23,9.96,22.23,22.23v.94c0,29.44-23.91,53.35-53.35,53.35h-33.13c-29.44,0-53.35-23.91-53.35-53.35v-.94c0-12.27,9.96-22.23,22.23-22.23Z"/>
  <rect id="Shades1" data-name="Shades" class="st0" x="242.52" y="142.13" width="32.15" height="14.47"/>
  <path id="Shades2" data-name="Shades" d="M286.44,128.03h95.37c12.27,0,22.23,9.96,22.23,22.23v.94c0,29.44-23.91,53.35-53.35,53.35h-33.13c-29.44,0-53.35-23.91-53.35-53.35v-.94c0-12.27,9.96-22.23,22.23-22.23Z"/>
  <rect x="335.34" y="537.1" width="22.5" height="3.21" transform="translate(-163.35 151.03) rotate(-20)"/>
  <rect x="336.99" y="541.63" width="22.5" height="3.21" transform="translate(-164.8 151.87) rotate(-20)"/>
  <rect class="st2" x="275.37" y="475.41" width="103.38" height="19.29" transform="translate(-16.87 958.28) rotate(-110)"/>
  <rect id="Nose" x="190.59" y="379.96" width="137.61" height="90.02" rx="45.01" ry="45.01"/>
  <g>
    <path d="M2054.53,568.92c-53.97-1.86-89.55-40.48-101.46-91.36-11.05-47.23-4.66-100.61,21.6-141.96,18.63-29.33,47.1-50.1,80.88-59.04,33.06-8.75,67.66-7.55,100.52,2.81l.05-59.76c-.17-12.68-1.49-24.59-4.51-36.76-4.17-16.52-12.08-30.61-23.5-43.64l102.39-32.15.02,346.75c.76,16.65,1.32,32.1,4.43,48.04,3.19,17.04,10.73,31.07,24.35,43.72l-100.77,22.31-.27-58.59c-8.86,13.41-16.92,24.37-28.56,33.9-21.06,17.85-47.37,26.83-75.16,25.74ZM2043.37,496.97c10.24,16.29,25.54,26.72,44.41,28.75,26.14,2.8,51.54-7.07,68.32-27.05v-153.94c-4.02-24.75-15.2-51.95-39.4-60.58-18.69-6.67-39.56-2.57-54.52,10.36-7.97,6.88-14.08,14.7-18.94,24.02-19.46,37.29-21.79,92-15.46,133.25,2.49,16.23,7.12,31.05,15.59,45.18Z"/>
    <path d="M1811.35,563.92c-35.23,8.09-70.73,6.84-105.6-4.65l1.16,70.01c.35,21.28,4.73,41.34,11.95,62.18h-101.82c8.5-23.75,12.6-47.39,13.5-71.88l.69-18.82v-224.44c-1.03-29.52-8.39-53.56-27.86-76.16l99.84-32.12.08,49.71c1.83,1.16,4.64.51,5.29-1.32l7.61-8.34c39.49-43.32,112.29-51.97,155.96-10.12,41.76,40.03,49.88,111.58,36.68,165.93-12.23,50.36-46.46,87.12-97.47,100.02ZM1833.65,473.7c5.51-38.47,5.45-91.79-12.71-126.27-10.54-19.98-29.03-32.38-51.53-34.47-22.87-2.12-45.66,3.43-63.77,18.25l.24,136.68c.05,27.13,8.3,61.31,29.23,78.81,20.18,16.88,49.17,16.2,67.99-2.1,18.28-17.78,26.91-45.56,30.54-70.9Z"/>
    <path d="M2876.35,645.19c-41.78,48.43-135.55,52.86-195.66,43.52-23.5-3.65-48.9-11.63-66.06-27.44-19.47-17.95-18.36-46.68,1.81-63.79,11.3-9.59,24.83-15.03,39.96-18.95l-18.61-10.61c-11.93-8.8-18.62-21.93-19.56-36.74-2.4-37.99,26.03-62.47,61.78-72.73-26.88-13.57-47.9-34.68-55.75-63.27-8.58-31.26.06-64.08,22.08-87.72,13.86-14.88,31.11-24.69,50.58-30.79,41.45-11.91,87.72-6.3,122.15,20.88l77.83-46.46.1,59.82-67.9-4.77c8.57,9.73,15.38,19.29,20.24,30.93,14.13,33.84,6.17,71.94-19.49,98.11-36.41,37.14-94.65,44.46-142.62,26.6l-9.77,7.26c-9.01,8.4-11.93,22.32-5.33,33,7.61,12.32,31.33,15.6,46.75,16.18l69.32,2.62c18.02.68,35.19,4.16,52.11,9.9,28.99,9.84,52.79,29.54,54.35,61.47.97,19.75-5.45,38.06-18.31,52.97ZM2757.3,455.73c29.24-17.89,28.63-80.94,25.43-113.29-1.94-19.68-7.71-44.46-24.18-55.45-11.75-7.83-27.81-8.13-39.8-.73-15.35,9.47-21.25,32.32-23.27,50.36-2.49,22.18-2.67,44.07-.15,66.24,2.13,18.73,8.09,41.98,23.75,52.36,11.21,7.43,26.44,7.73,38.22.52ZM2842.48,649.36c9.22-10.51,11.1-25.55,3.66-36.94-4.82-7.38-12.57-11.6-20.86-14.26-11.45-3.69-22.98-5.86-35.23-6.48l-84-4.23c-14.09-.71-27.28-2.89-40.88-6.63-8.37,9.03-12.08,20.92-12.29,33.24-.3,16.85,7.23,31.68,20.81,41.38,22.41,16.02,53.94,19.28,81.53,19.21,28.09-.07,68.39-3.77,87.27-25.29Z"/>
    <path d="M1548.95,464.78c0,13.85,1.15,25.79,3.21,38.56,1.5,9.27,4.52,18.29,9.69,26.02,4.05,6.04,9.13,10.17,14.95,16.26l-98.84,22.28-.21-70.16c-9.6,16.81-18.98,31.88-32.48,44.94-21.59,20.89-50.17,30.5-79.9,24.84-21.75-4.14-39.16-17.88-48.68-38.04-7.39-15.65-11.17-32.4-11.21-50.22l-.3-139.22c-.03-13.13-2.84-25.13-7.63-37.02-4.11-8.71-9.78-15.37-16.28-23.46l97.93-.06.1,195.33c0,9.3,2.86,17.94,6.69,25.68,5.79,11.71,16.85,18.6,29.55,20.32,27.21,3.68,47.1-9.22,59.48-33.38v-147.56s-2.95-22.47-2.95-22.47c-3.45-14.71-11.07-26.49-22.15-37.84l98.98-.09.04,185.28Z"/>
    <path d="M1242.26,485.89c-41.99,80.25-143.85,108.38-220.61,57.88-21.61-14.22-39.17-33.11-51.52-55.9-39.71-73.22-6.67-160.57,64.49-199.02,50.2-27.12,110.9-23.28,157.69,9.3,60.78,42.32,85.16,120.44,49.95,187.74ZM1109.95,558.1c34.48-2.08,52.77-33.14,61.41-64.47,6.67-24.2,8.63-48.51,8.6-73.74-.03-26.52-2.43-52.22-10.14-77.44-9.68-31.65-29.35-60.38-63.98-60.34-45.01.05-63.96,48.07-69.99,88.37-5.09,34.01-5.07,68.04.29,102.02,6.67,42.32,26.78,88.43,73.81,85.6Z"/>
    <path d="M2570.85,486.69c-38.65,72.65-127.49,103.4-202.39,67.14-62.46-30.24-99.72-98.63-82.02-167.14,11.83-45.8,44.03-83.27,87.08-102.67,77.41-34.89,166.92,2.24,201.35,78.19,18.18,40.12,16.66,85.64-4.01,124.48ZM2477.77,538.65c16.38-18.54,24.44-46.07,27.98-70.84,5.92-41.53,4.7-93.21-9.42-132.74-4.39-12.3-10.25-23.16-18.63-33.02-19.52-22.97-53.81-26.84-77.37-7.83-40.84,32.95-42.67,119.96-36.47,169.71,3.44,27.62,12.2,59.65,32.16,78.89,22.75,21.93,59.83,20.65,81.75-4.17Z"/>
    <path d="M720.47,552.97l-6.98-77.62c.9-.9,3.22-1.41,4.25-.97,24.86,42.37,62.85,94.15,117.31,82.97,18.1-3.72,31.18-17.38,33.66-35.64,1.59-11.78-.42-23.62-7.79-33.19-24.02-31.18-79.57-36.81-116.48-70.7-16.47-15.12-25.24-35.62-26.27-57.92-1.35-29.25,8.77-55.39,34.05-71,14.64-9.04,30.43-13.97,47.75-16.25,33.61-4.42,67.71-.86,99.87,9.54l6.39,66.87c-1.24.47-3.1.76-4.41.71-23.36-35.91-60.86-79.92-106.79-66.29-13.85,4.11-24.23,15.04-27.5,27.73-7.93,30.81,17.35,48.4,44.5,60.06l38.54,16.55c37.02,15.9,68.75,39.58,73.1,81.9,1.54,15.01.52,29.51-4.84,43.63-13.84,36.42-52.28,51.61-89.58,54.8-36.82,3.15-73.11-2.52-108.78-15.19Z"/>
  </g>
</svg>