<?xml version="1.0" encoding="UTF-8"?>
<svg xmlns="http://www.w3.org/2000/svg" version="1.1" viewBox="0 0 2352.01 800">
  <!-- Generator: Adobe Illustrator 30.5.0, SVG Export Plug-In . SVG Version: 2.1.4 Build 167)  -->
  <defs>
    <style>
      .st0 {
        fill: #fff;
      }

      .st1 {
        font-family: CanelaTrial-Medium, 'Canela Trial';
        font-size: 469.83px;
        font-weight: 500;
        letter-spacing: 0em;
      }

      .st2 {
        display: none;
      }
    </style>
  </defs>
  <g id="BLACK">
    <g id="Text">
      <g class="st2">
        <path d="M1666,537.53c-43.95-1.52-72.92-32.96-82.62-74.4-9-38.45-3.79-81.93,17.59-115.6,15.17-23.89,38.35-40.8,65.86-48.08,26.92-7.12,55.09-6.15,81.85,2.29l.04-48.66c-.14-10.33-1.21-20.03-3.67-29.94-3.4-13.45-9.84-24.93-19.14-35.54l83.37-26.18v282.36c.64,13.56,1.09,26.14,3.62,39.12,2.6,13.88,8.74,25.3,19.83,35.6l-82.05,18.17-.22-47.71c-7.21,10.92-13.78,19.84-23.26,27.61-17.15,14.54-38.57,21.85-61.2,20.96ZM1656.91,478.94c8.33,13.26,20.79,21.76,36.16,23.41,21.29,2.28,41.96-5.75,55.63-22.03v-125.35c-3.27-20.15-12.38-42.3-32.08-49.33-15.22-5.43-32.21-2.09-44.39,8.43-6.49,5.61-11.47,11.97-15.43,19.56-15.85,30.37-17.74,74.91-12.59,108.51,2.03,13.21,5.79,25.29,12.7,36.79Z"/>
        <path d="M1467.98,533.45c-28.69,6.59-57.59,5.57-85.99-3.78l.95,57c.29,17.33,3.85,33.67,9.73,50.64h-82.91c6.92-19.34,10.26-38.59,10.99-58.53l.56-15.32v-182.76c-.84-24.04-6.83-43.62-22.69-62.02l81.3-26.16.06,40.48c1.49.94,3.78.41,4.3-1.08l6.19-6.79c32.16-35.28,91.44-42.32,127-8.24,34.01,32.59,40.62,90.86,29.87,135.11-9.96,41.01-37.83,70.94-79.37,81.45ZM1486.14,459.99c4.49-31.33,4.44-74.74-10.35-102.82-8.58-16.27-23.64-26.37-41.96-28.07-18.62-1.73-37.18,2.79-51.93,14.86l.2,111.3c.04,22.09,6.76,49.92,23.8,64.17,16.43,13.74,40.04,13.19,55.36-1.71,14.88-14.47,21.91-37.1,24.87-57.73Z"/>
        <path d="M2335.19,599.63c-34.02,39.44-110.38,43.04-159.32,35.44-19.13-2.97-39.82-9.47-53.79-22.34-15.86-14.61-14.95-38.01,1.48-51.94,9.2-7.81,20.22-12.24,32.54-15.43l-15.15-8.64c-9.72-7.17-15.16-17.85-15.93-29.92-1.95-30.93,21.19-50.87,50.31-59.22-21.89-11.05-39.01-28.24-45.4-51.52-6.99-25.45.05-52.18,17.98-71.43,11.28-12.12,25.33-20.1,41.19-25.07,33.75-9.69,71.43-5.13,99.47,17l63.37-37.83.08,48.71-55.29-3.88c6.98,7.92,12.52,15.7,16.48,25.19,11.5,27.55,5.03,58.58-15.87,79.89-29.65,30.24-77.07,36.21-116.13,21.66l-7.95,5.91c-7.34,6.84-9.72,18.17-4.34,26.87,6.2,10.03,25.51,12.7,38.07,13.18l56.45,2.14c14.67.56,28.65,3.38,42.43,8.06,23.61,8.01,42.98,24.05,44.26,50.06.79,16.08-4.44,31-14.91,43.14ZM2238.26,445.35c23.81-14.56,23.31-65.91,20.71-92.25-1.58-16.02-6.28-36.21-19.69-45.15-9.57-6.38-22.64-6.62-32.41-.6-12.5,7.71-17.3,26.32-18.95,41.01-2.03,18.06-2.18,35.89-.12,53.94,1.73,15.25,6.59,34.18,19.34,42.63,9.13,6.05,21.53,6.29,31.13.42ZM2307.62,603.03c7.51-8.56,9.03-20.81,2.98-30.08-3.92-6.01-10.24-9.44-16.99-11.62-9.32-3-18.71-4.77-28.69-5.27l-68.4-3.44c-11.47-.58-22.21-2.36-33.29-5.4-6.82,7.36-9.83,17.04-10.01,27.06-.24,13.72,5.89,25.79,16.95,33.7,18.25,13.04,43.93,15.7,66.39,15.64,22.87-.06,55.69-3.07,71.07-20.59Z"/>
        <path d="M1254.31,452.72c0,11.28.94,21,2.61,31.4,1.22,7.55,3.68,14.9,7.89,21.18,3.29,4.92,7.44,8.28,12.17,13.24l-80.49,18.15-.17-57.13c-7.82,13.69-15.45,25.96-26.44,36.59-17.58,17.01-40.85,24.84-65.06,20.23-17.71-3.37-31.88-14.56-39.64-30.98-6.02-12.74-9.09-26.38-9.12-40.9l-.25-113.36c-.02-10.69-2.32-20.46-6.22-30.14-3.35-7.09-7.96-12.52-13.25-19.1l79.75-.05.08,159.05c0,7.57,2.33,14.61,5.44,20.91,4.72,9.54,13.72,15.14,24.06,16.54,22.16,3,38.35-7.51,48.44-27.18v-120.15s-2.4-18.3-2.4-18.3c-2.81-11.98-9.02-21.57-18.04-30.81l80.6-.07.03,150.88Z"/>
        <path d="M1004.57,469.92c-34.19,65.35-117.13,88.26-179.64,47.13-17.59-11.58-31.89-26.96-41.96-45.52-32.34-59.62-5.43-130.75,52.52-162.06,40.88-22.09,90.3-18.96,128.41,7.57,49.49,34.46,69.35,98.07,40.67,152.88ZM896.83,528.71c28.08-1.69,42.97-26.99,50-52.5,5.43-19.7,7.02-39.5,7-60.05-.02-21.6-1.98-42.52-8.26-63.06-7.88-25.77-23.9-49.16-52.1-49.13-36.65.04-52.08,39.15-56.99,71.96-4.14,27.7-4.13,55.41.23,83.07,5.43,34.46,21.8,72.01,60.11,69.7Z"/>
        <path d="M2086.43,470.57c-31.47,59.16-103.82,84.2-164.81,54.67-50.86-24.62-81.2-80.31-66.79-136.1,9.63-37.29,35.85-67.8,70.9-83.6,63.04-28.41,135.92,1.82,163.95,63.67,14.81,32.67,13.57,69.73-3.26,101.36ZM2010.64,512.87c13.34-15.09,19.9-37.52,22.78-57.68,4.82-33.82,3.82-75.9-7.67-108.09-3.58-10.02-8.35-18.86-15.17-26.89-15.89-18.7-43.81-21.85-63-6.37-33.26,26.83-34.75,97.68-29.7,138.19,2.8,22.49,9.93,48.58,26.19,64.24,18.53,17.85,48.72,16.81,66.57-3.4Z"/>
        <path d="M579.69,524.53l-5.68-63.2c.73-.74,2.62-1.15,3.46-.79,20.24,34.5,51.18,76.66,95.53,67.56,14.74-3.03,25.39-14.15,27.41-29.02,1.3-9.59-.34-19.24-6.34-27.03-19.56-25.39-64.79-29.97-94.85-57.57-13.41-12.31-20.55-29.01-21.39-47.16-1.1-23.82,7.14-45.1,27.73-57.81,11.92-7.36,24.78-11.37,38.89-13.23,27.37-3.6,55.13-.7,81.32,7.77l5.2,54.45c-1.01.38-2.53.62-3.59.58-19.02-29.24-49.55-65.08-86.96-53.98-11.28,3.35-19.73,12.25-22.39,22.58-6.46,25.09,14.13,39.41,36.24,48.91l31.38,13.48c30.14,12.95,55.98,32.23,59.52,66.69,1.26,12.22.42,24.03-3.94,35.52-11.27,29.65-42.57,42.03-72.95,44.63-29.98,2.57-59.53-2.06-88.58-12.37Z"/>
      </g>
      <text id="font" class="st1" transform="translate(545.51 521.92)"><tspan x="0" y="0">soupdog</tspan></text>
    </g>
  </g>
  <g id="Round">
    <path d="M280.2,799.92c-19.45-.04-35.05-12.85-40.94-30.83-6.54,18.11-22.17,29.82-41.09,30.81l-39.75.03c-16.72.01-31.01-10.17-37.06-25.46-3.38-10.18-2.92-20.3,1.07-30.51v-116.97c-22.96-26.33-30.96-56.39-33.72-90.97l.59-110.44c1.49-35.43,18.06-67.61,44.88-89.86l-3.74-14.4c-24.25,31.48-65,44.37-98.06,23.47C6.12,328.2-1.17,297.51.15,267.07c2.49-57.52,28.05-109.31,61.22-155.55,22.19-30.93,46.63-59.5,75.98-83.84C156.58,11.73,180.1,1.37,205.16.51c23.02-.8,44.64-.51,67.63-.09,33.82.63,62.72,20.25,86.7,43.22,33.26,31.88,61.65,68.61,84.6,108.73,19.19,33.55,31.01,69.61,34.84,107.96,1.93,19.38.46,38.01-7.22,55.5-14.37,32.74-50.53,47.33-83.85,34.41-15.7-5.74-28.71-16.49-39.53-30.34l-4.56,16.16c28.27,22.48,42.65,55.79,45.45,92.27l-.57,114.31c-.16,31.59-13,60.6-33.01,84.24l-.1,115.29c3.34,8.09,4.22,15.77,3.76,24.28-3.03,19.09-21.66,33.6-39.54,33.57l-39.56-.08ZM247.62,136.89c2.57-6.9,8.53-10.88,15.54-10.88l92.22-.03c5.3,0,9.67,2.29,13.3,6.43,8.54-39.58-6.43-80.67-39.85-104.68-17.61-12.65-38.02-20.57-59.97-20.63l-54.95-.14c-61.37-.16-110.86,49.95-105.93,108.83l1.39,16.67c4.68-4.85,9.41-6.56,15.83-6.56l88.84.04c7.54,0,13.63,4.08,16.5,11.02l17.07-.07ZM141.38,333.05c7.52,28.4,18.17,62.2,41.7,80.28-6.41-10.64-10.59-20.22-9.78-32.65,1.29-20.03,16.94-38.17,37.98-39.67,17.93-1.28,35.56-.59,53.61-.25,15.82.29,28.81,11.43,35.23,23.27,8.47,15.59,5.64,30.77-1.84,46.38,9.92-8.33,16.27-18.5,21.67-29.43,14.66-29.66,29.37-91.6,33.84-125.17l14.18-106.43-6.22,18.21c-4.91,14.37-17.57,26.33-33.34,27.86-14.65,1.42-29.3,1.8-43.66-.16-22-3.01-37.09-21.59-37.42-42.79l-16.32-.22c-1.09,7.69-2.3,15.05-6.24,21.68-8.53,14.34-24.1,22.22-40.67,22.29l-26.6.11c-19.96.08-36.48-13.17-42.01-32.19-1.41-4.86-2.81-9.31-5-13.93,7.1,62.54,14.89,122.52,30.87,182.82ZM113.99,577l2.17-16.39,10.47-73.27,16.64-118.86-6.83-25.24c-23.31,20.03-37.92,48.9-39.44,80.37l-.54,92.2c2.12,21.5,5.79,41.72,17.54,61.19ZM381.81,506.8l.19-69.52c.1-34.6-12.98-70.81-39.91-93.38l-6.59,22.23,6.7,52.49,21.69,158.47c12.03-21.85,17.85-45.25,17.92-70.28ZM324.4,460.98l-.93-15.37-5.93-47.42c-4.29,6-8.28,10.47-13.66,15.77l20.52,47.01ZM243.42,753c.07,22.23,18.49,39.62,39.78,39.49l36.56-.22c11.87-.07,22.31-7.93,27.91-18.02,10.99-19.8-3.01-39.92-22.38-49.99,9.37-.85,16.96,3.64,23.31,9.85l-.18-127.73-4.92,3.22-13.93-109.07-4.56,2.9,14.2,110.49c-7.03,5.69-14.02,10.12-22.12,14.14l-5.89-51.49-9.77-95.29c-.65-6.36-2.38-12.43-4.97-18.13l-15.14-33.39c-6.64,3.53-13.14,6.03-20.61,6.73-14.36,1.35-28.37.94-42.99.41-25.34-.91-42.78-17.92-56.71-37.81l-25.92,210.31-5.15-3.98-.04,129.92c5.8-7.48,13.48-11.76,22.72-11.16-6.04,4.1-11.98,7.88-16.68,13.42-9.22,10.87-11.97,25.94-4.48,38.36,5.58,9.25,15.78,15.54,26.91,16.19,13.7.79,27.07,1.08,40.8-.07,19.55-1.64,35.48-17.37,35.56-37.31l.44-111.21-7.82-.42,1.27-65.49.94-61.69.8-43.29,17.37-.11.75,28.95.86,49.14.96,50.13,1.1,42.27-8.3.92.33,109.06ZM311.47,486.89l15.73-9.41-14.68-30.37-15.43-34.78-12.8,12.02c7.69,15.5,14.49,31.25,20.99,47.26l6.19,15.27ZM327.32,483.03c.56-.29,1.29-2.05.9-1.9l-1.99.75c-5.17,1.95-10.8,5.9-13.25,10.65,4.05-3.19,10.42-7.48,14.34-9.5ZM355.96,614.62c12.08-17.18,19.61-35.4,23.55-55.55-6.43,14.8-12.98,28.78-24.27,40.53l.72,15.02ZM122.59,598.67c-10.94-10.3-16.56-23.41-23.27-36.71,3.97,19.13,10.67,36.55,22.7,52.78l.57-16.06Z"/>
    <path class="st0" d="M243.42,753l-.33-109.06,8.3-.92-1.1-42.27-.96-50.13-.86-49.14-.75-28.95-17.37.11-.8,43.29-.94,61.69-1.27,65.49,7.82.42-.44,111.21c-.08,19.94-16.01,35.67-35.56,37.31-13.74,1.15-27.1.87-40.8.07-11.13-.65-21.33-6.94-26.91-16.19-7.49-12.42-4.74-27.5,4.48-38.36,4.7-5.54,10.64-9.32,16.68-13.42-9.24-.6-16.92,3.68-22.72,11.16l.04-129.92,5.15,3.98,25.92-210.31c13.93,19.9,31.37,36.9,56.71,37.81,14.63.53,28.64.94,42.99-.41,7.48-.7,13.97-3.21,20.61-6.73l15.14,33.39c2.59,5.71,4.32,11.77,4.97,18.13l9.77,95.29,5.89,51.49c8.09-4.02,15.09-8.45,22.12-14.14l-14.2-110.49,4.56-2.9,13.93,109.07,4.92-3.22.18,127.73c-6.34-6.22-13.93-10.7-23.31-9.85,19.36,10.07,33.36,30.19,22.38,49.99-5.6,10.1-16.04,17.95-27.91,18.02l-36.56.22c-21.29.13-39.71-17.26-39.78-39.49ZM161.41,627.57l5.33-49.1,11.4-113.2-19.5-7.83-6.44,53.72-12.63,102.24c6.43,5.78,13.34,9.96,21.84,14.17ZM312.36,629.78l-4.8-40.93-12.8-123.23-18.2,4.55,3.93,60.28,7.86,107.8,24.02-8.46ZM190.58,637.82l11.19-166.91-18.86-4.43-16.3,163.2c7.7,3.49,14.85,6.22,23.97,8.14ZM283.41,639.23l-5.88-79-5.96-89.29-18.57,1.99,3.58,170.29,26.83-3.99ZM221.57,643.12l.83-26.14,3.01-144.26-18.89-1.41-9.09,143.76-1.87,23.97,26.01,4.07Z"/>
    <path class="st0" d="M141.38,333.05c-15.97-60.3-23.76-120.28-30.87-182.82,2.19,4.62,3.59,9.08,5,13.93,5.53,19.02,22.05,32.27,42.01,32.19l26.6-.11c16.57-.07,32.15-7.94,40.67-22.29,3.94-6.63,5.14-13.99,6.24-21.68l16.32.22c.33,21.2,15.42,39.78,37.42,42.79,14.35,1.96,29.01,1.58,43.66.16,15.77-1.53,28.43-13.5,33.34-27.86l6.22-18.21-14.18,106.43c-4.47,33.57-19.19,95.5-33.84,125.17-5.4,10.93-11.75,21.1-21.67,29.43,7.48-15.61,10.31-30.79,1.84-46.38-6.43-11.83-19.42-22.97-35.23-23.27-18.05-.34-35.68-1.03-53.61.25-21.04,1.5-36.69,19.64-37.98,39.67-.8,12.43,3.37,22.01,9.78,32.65-23.53-18.07-34.18-51.88-41.7-80.28Z"/>
    <path class="st0" d="M247.62,136.89l-17.07.07c-2.88-6.94-8.96-11.01-16.5-11.02l-88.84-.04c-6.43,0-11.15,1.71-15.83,6.56l-1.39-16.67C103.06,56.92,152.55,6.81,213.92,6.97l54.95.14c21.95.06,42.36,7.98,59.97,20.63,33.42,24,48.39,65.1,39.85,104.68-3.63-4.14-8-6.43-13.3-6.43l-92.22.03c-7.01,0-12.97,3.98-15.54,10.88Z"/>
    <path class="st0" d="M113.99,577c-11.74-19.47-15.42-39.69-17.54-61.19l.54-92.2c1.52-31.47,16.13-60.33,39.44-80.37l6.83,25.24-16.64,118.86-10.47,73.27-2.17,16.39Z"/>
    <path class="st0" d="M381.81,506.8c-.07,25.03-5.89,48.43-17.92,70.28l-21.69-158.47-6.7-52.49,6.59-22.23c26.93,22.57,40.01,58.79,39.91,93.38l-.19,69.52Z"/>
    <path class="st0" d="M311.47,486.89l-6.19-15.27c-6.49-16.01-13.3-31.76-20.99-47.26l12.8-12.02,15.43,34.78,14.68,30.37-15.73,9.41Z"/>
    <path class="st0" d="M324.4,460.98l-20.52-47.01c5.38-5.3,9.37-9.77,13.66-15.77l5.93,47.42.93,15.37Z"/>
    <path class="st0" d="M122.59,598.67l-.57,16.06c-12.03-16.22-18.73-33.65-22.7-52.78,6.71,13.3,12.33,26.42,23.27,36.71Z"/>
    <path class="st0" d="M355.96,614.62l-.72-15.02c11.29-11.75,17.84-25.73,24.27-40.53-3.93,20.15-11.47,38.37-23.55,55.55Z"/>
    <path class="st0" d="M327.32,483.03c-3.92,2.01-10.3,6.3-14.34,9.5,2.45-4.75,8.09-8.7,13.25-10.65l1.99-.75c.39-.15-.34,1.62-.9,1.9Z"/>
    <polygon points="283.41 639.23 256.58 643.22 253.01 472.93 271.57 470.94 277.54 560.23 283.41 639.23"/>
    <polygon points="221.57 643.12 195.56 639.04 197.43 615.07 206.52 471.31 225.41 472.72 222.4 616.98 221.57 643.12"/>
    <path d="M190.58,637.82c-9.12-1.92-16.27-4.65-23.97-8.14l16.3-163.2,18.86,4.43-11.19,166.91Z"/>
    <polygon points="312.36 629.78 288.34 638.24 280.48 530.44 276.56 470.17 294.76 465.62 307.56 588.85 312.36 629.78"/>
    <path d="M161.41,627.57c-8.5-4.21-15.41-8.39-21.84-14.17l12.63-102.24,6.44-53.72,19.5,7.83-11.4,113.2-5.33,49.1Z"/>
  </g>
</svg>