<?xml version="1.0" encoding="UTF-8"?>
<svg id="BLACK" xmlns="http://www.w3.org/2000/svg" version="1.1" viewBox="0 0 2439.5 799.71">
  <!-- Generator: Adobe Illustrator 30.5.0, SVG Export Plug-In . SVG Version: 2.1.4 Build 167)  -->
  <defs>
    <style>
      .st0, .st1, .st2, .st3 {
        stroke: #000;
        stroke-miterlimit: 10;
      }

      .st0, .st3 {
        stroke-width: 4.19px;
      }

      .st1 {
        stroke-width: 2.09px;
      }

      .st1, .st2, .st3 {
        fill: #fff;
      }

      .st2 {
        stroke-width: 5.24px;
      }

      .st4 {
        font-family: CanelaTrial-Medium, 'Canela Trial';
        font-size: 469.83px;
        font-weight: 500;
        letter-spacing: 0em;
      }

      .st5 {
        display: none;
      }
    </style>
  </defs>
  <path id="Ear" d="M166.3,300.04c14.53,56.23-84.07,89.18-127.73,68.38C-5.09,347.62-6.06,287.54,8.2,224.71,22.47,161.86,153.02,3.19,196.68,23.99c43.66,20.8-55.88,177.39-30.38,276.05Z"/>
  <path id="Ear1" data-name="Ear" d="M400.88,300.04c-14.53,56.23,84.07,89.18,127.73,68.38,43.66-20.8,44.63-80.88,30.37-143.71-14.27-62.85-144.82-221.52-188.48-200.72-43.66,20.8,55.88,177.39,30.38,276.05Z"/>
  <path class="st3" d="M312.59,323.62h-57.99c-81.5,0-147.57,60.24-147.57,134.56v61.88c0,38.46,17.69,73.14,46.06,97.66v122.83c0,31.51,28.02,57.06,62.58,57.06h3.15c34.56,0,62.58-25.55,62.58-57.06v-85.94h4.39v85.94c0,31.51,28.02,57.06,62.58,57.06h3.15c34.56,0,62.58-25.55,62.58-57.06v-122.83c28.37-24.52,46.06-59.21,46.06-97.66v-61.88c0-74.32-66.07-134.56-147.57-134.56Z"/>
  <g>
    <path d="M269.92,498.54c-6.61-.24-13.02-.66-19.19-1.24l-6.63,156.03c7.2,1.02,14.71,1.83,22.48,2.41l3.34-157.2Z"/>
    <path d="M246.36,496.87c-7-.75-13.64-1.71-19.84-2.84l-13.05,153.22c8.07,2.14,16.87,3.97,26.26,5.43l6.62-155.82Z"/>
    <path d="M209.17,646.06l13.02-152.87c-6.63-1.35-12.69-2.92-18.05-4.66l-19.01,148.46c6.79,3.38,14.89,6.43,24.04,9.07Z"/>
    <path d="M199.92,487.06c-8.42-3.12-14.74-6.72-18.35-10.63l-24.33,141.99c5.45,4.48,11.26,8.61,17.39,12.33,1.93,1.39,4.06,2.74,6.38,4.05l18.92-147.74Z"/>
    <path d="M153.36,615.13l24.85-145.04c-.05-.3-.08-.61-.09-.91,0-.06,0-.12,0-.18,0-.07,0-.13,0-.2,0-.07,0-.15,0-.22,0-.11,0-.22.01-.33.05-.73.19-1.46.41-2.18l29.14-139.36c-7.79,2.52-15.29,5.6-22.43,9.2l-55,253.26c6.53,9.5,14.31,18.21,23.11,25.96Z"/>
    <path d="M283.59,498.79c-3.13,0-6.22-.04-9.28-.12l-3.34,157.36c4.15.26,8.36.46,12.63.58v-157.83Z"/>
  </g>
  <g>
    <path d="M297.26,498.54c6.61-.24,13.02-.66,19.19-1.24l6.63,156.03c-7.2,1.02-14.71,1.83-22.48,2.41l-3.34-157.2Z"/>
    <path d="M320.82,496.87c7-.75,13.64-1.71,19.84-2.84l13.05,153.22c-8.07,2.14-16.87,3.97-26.26,5.43l-6.62-155.82Z"/>
    <path d="M358,646.06l-13.02-152.87c6.63-1.35,12.69-2.92,18.05-4.66l19.01,148.46c-6.79,3.38-14.89,6.43-24.04,9.07Z"/>
    <path d="M367.26,487.06c8.42-3.12,14.74-6.72,18.35-10.63l24.33,141.99c-5.45,4.48-11.26,8.61-17.39,12.33-1.93,1.39-4.06,2.74-6.38,4.05l-18.92-147.74Z"/>
    <path d="M413.82,615.13l-24.85-145.04c.05-.3.08-.61.09-.91,0-.06,0-.12,0-.18,0-.07,0-.13,0-.2,0-.07,0-.15,0-.22,0-.11,0-.22-.01-.33-.05-.73-.19-1.46-.41-2.18l-29.14-139.36c7.79,2.52,15.29,5.6,22.43,9.2l55,253.26c-6.53,9.5-14.31,18.21-23.11,25.96Z"/>
    <path d="M283.59,498.79c3.13,0,6.22-.04,9.28-.12l3.34,157.36c-4.15.26-8.36.46-12.63.58v-157.83Z"/>
  </g>
  <path id="Head" class="st2" d="M318.84,2.62h-70.51c-68.14,0-123.38,50.37-123.38,112.51l18.26,153.49c15.35,80,46.06,201,122.75,196.89h35.25c76.69,4.11,107.39-116.89,122.75-196.89l18.26-153.49c0-62.14-55.24-112.51-123.38-112.51Z"/>
  <path id="Shades" d="M146.57,128.05h108.34c12.42,0,22.5,10.08,22.5,22.5h0c0,29.81-24.2,54.01-54.01,54.01h-45.33c-29.81,0-54.01-24.2-54.01-54.01h0c0-12.42,10.08-22.51,22.5-22.51Z"/>
  <rect id="Shades1" data-name="Shades" class="st0" x="265.96" y="142.25" width="35.25" height="14.47"/>
  <path id="Shades2" data-name="Shades" d="M312.26,128.15h108.34c12.42,0,22.5,10.08,22.5,22.5h0c0,29.81-24.2,54.01-54.01,54.01h-45.33c-29.81,0-54.01-24.2-54.01-54.01h0c0-12.42,10.08-22.51,22.5-22.51Z"/>
  <polygon points="392.3 536.48 369.11 544.18 367.9 541.16 391.09 533.46 392.3 536.48"/>
  <polygon points="394.11 541.01 370.92 548.71 369.71 545.69 392.9 537.99 394.11 541.01"/>
  <polygon class="st1" points="349.23 433.29 388.01 530.44 368.13 537.04 329.35 439.89 349.23 433.29"/>
  <rect id="Nose" x="209.01" y="380.08" width="150.91" height="90.02" rx="45.01" ry="45.01"/>
  <g id="Text">
    <g class="st5">
      <path d="M1753.48,537.65c-43.95-1.52-72.92-32.96-82.62-74.4-9-38.45-3.79-81.93,17.59-115.6,15.17-23.89,38.35-40.8,65.86-48.08,26.92-7.12,55.09-6.15,81.85,2.29l.04-48.66c-.14-10.33-1.21-20.03-3.67-29.94-3.4-13.45-9.84-24.93-19.14-35.54l83.37-26.18v282.36c.64,13.56,1.09,26.14,3.62,39.12,2.6,13.88,8.74,25.3,19.83,35.6l-82.05,18.17-.22-47.71c-7.21,10.92-13.78,19.84-23.26,27.61-17.15,14.54-38.57,21.85-61.2,20.96ZM1744.4,479.06c8.33,13.26,20.79,21.76,36.16,23.41,21.29,2.28,41.96-5.75,55.63-22.03v-125.35c-3.27-20.15-12.38-42.3-32.08-49.33-15.22-5.43-32.21-2.09-44.39,8.43-6.49,5.61-11.47,11.97-15.43,19.56-15.85,30.37-17.74,74.91-12.59,108.51,2.03,13.21,5.79,25.29,12.7,36.79Z"/>
      <path d="M1555.47,533.57c-28.69,6.59-57.59,5.57-85.99-3.78l.95,57c.29,17.33,3.85,33.67,9.73,50.64h-82.91c6.92-19.34,10.26-38.59,10.99-58.53l.56-15.32v-182.76c-.84-24.04-6.83-43.62-22.69-62.02l81.3-26.16.06,40.48c1.49.94,3.78.41,4.3-1.08l6.19-6.79c32.16-35.28,91.44-42.32,127-8.24,34.01,32.59,40.62,90.86,29.87,135.11-9.96,41.01-37.83,70.94-79.37,81.45ZM1573.63,460.1c4.49-31.33,4.44-74.74-10.35-102.82-8.58-16.27-23.64-26.37-41.96-28.07-18.62-1.73-37.18,2.79-51.93,14.86l.2,111.3c.04,22.09,6.76,49.92,23.8,64.17,16.43,13.74,40.04,13.19,55.36-1.71,14.88-14.47,21.91-37.1,24.87-57.73Z"/>
      <path d="M2422.68,599.75c-34.02,39.44-110.38,43.04-159.32,35.44-19.13-2.97-39.82-9.47-53.79-22.34-15.86-14.61-14.95-38.01,1.48-51.94,9.2-7.81,20.22-12.24,32.54-15.43l-15.15-8.64c-9.72-7.17-15.16-17.85-15.93-29.92-1.95-30.93,21.19-50.87,50.31-59.22-21.89-11.05-39.01-28.24-45.4-51.52-6.99-25.45.05-52.18,17.98-71.43,11.28-12.12,25.33-20.1,41.19-25.07,33.75-9.69,71.43-5.13,99.47,17l63.37-37.83.08,48.71-55.29-3.88c6.98,7.92,12.52,15.7,16.48,25.19,11.5,27.55,5.03,58.58-15.87,79.89-29.65,30.24-77.07,36.21-116.13,21.66l-7.95,5.91c-7.34,6.84-9.72,18.17-4.34,26.87,6.2,10.03,25.51,12.7,38.07,13.18l56.45,2.14c14.67.56,28.65,3.38,42.43,8.06,23.61,8.01,42.98,24.05,44.26,50.06.79,16.08-4.44,31-14.91,43.14ZM2325.75,445.47c23.81-14.56,23.31-65.91,20.71-92.25-1.58-16.02-6.28-36.21-19.69-45.15-9.57-6.38-22.64-6.62-32.41-.6-12.5,7.71-17.3,26.32-18.95,41.01-2.03,18.06-2.18,35.89-.12,53.94,1.73,15.25,6.59,34.18,19.34,42.63,9.13,6.05,21.53,6.29,31.13.42ZM2395.11,603.15c7.51-8.56,9.03-20.81,2.98-30.08-3.92-6.01-10.24-9.44-16.99-11.62-9.32-3-18.71-4.77-28.69-5.27l-68.4-3.44c-11.47-.58-22.21-2.36-33.29-5.4-6.82,7.36-9.83,17.04-10.01,27.06-.24,13.72,5.89,25.79,16.95,33.7,18.25,13.04,43.93,15.7,66.39,15.64,22.87-.06,55.69-3.07,71.07-20.59Z"/>
      <path d="M1341.8,452.84c0,11.28.94,21,2.61,31.4,1.22,7.55,3.68,14.9,7.89,21.18,3.29,4.92,7.44,8.28,12.17,13.24l-80.49,18.15-.17-57.13c-7.82,13.69-15.45,25.96-26.44,36.59-17.58,17.01-40.85,24.84-65.06,20.23-17.71-3.37-31.88-14.56-39.64-30.98-6.02-12.74-9.09-26.38-9.12-40.9l-.25-113.36c-.02-10.69-2.32-20.46-6.22-30.14-3.35-7.09-7.96-12.52-13.25-19.1l79.75-.05.08,159.05c0,7.57,2.33,14.61,5.44,20.91,4.72,9.54,13.72,15.14,24.06,16.54,22.16,3,38.35-7.51,48.44-27.18v-120.15s-2.4-18.3-2.4-18.3c-2.81-11.98-9.02-21.57-18.04-30.81l80.6-.07.03,150.88Z"/>
      <path d="M1092.06,470.04c-34.19,65.35-117.13,88.26-179.64,47.13-17.59-11.58-31.89-26.96-41.96-45.52-32.34-59.62-5.43-130.75,52.52-162.06,40.88-22.09,90.3-18.96,128.41,7.57,49.49,34.46,69.35,98.07,40.67,152.88ZM984.32,528.83c28.08-1.69,42.97-26.99,50-52.5,5.43-19.7,7.02-39.5,7-60.05-.02-21.6-1.98-42.52-8.26-63.06-7.88-25.77-23.9-49.16-52.1-49.13-36.65.04-52.08,39.15-56.99,71.96-4.14,27.7-4.13,55.41.23,83.07,5.43,34.46,21.8,72.01,60.11,69.7Z"/>
      <path d="M2173.92,470.68c-31.47,59.16-103.82,84.2-164.81,54.67-50.86-24.62-81.2-80.31-66.79-136.1,9.63-37.29,35.85-67.8,70.9-83.6,63.04-28.41,135.92,1.82,163.95,63.67,14.81,32.67,13.57,69.73-3.26,101.36ZM2098.13,512.99c13.34-15.09,19.9-37.52,22.78-57.68,4.82-33.82,3.82-75.9-7.67-108.09-3.58-10.02-8.35-18.86-15.17-26.89-15.89-18.7-43.81-21.85-63-6.37-33.26,26.83-34.75,97.68-29.7,138.19,2.8,22.49,9.93,48.58,26.19,64.24,18.53,17.85,48.72,16.81,66.57-3.4Z"/>
      <path d="M667.18,524.65l-5.68-63.2c.73-.74,2.62-1.15,3.46-.79,20.24,34.5,51.18,76.66,95.53,67.56,14.74-3.03,25.39-14.15,27.41-29.02,1.3-9.59-.34-19.24-6.34-27.03-19.56-25.39-64.79-29.97-94.85-57.57-13.41-12.31-20.55-29.01-21.39-47.16-1.1-23.82,7.14-45.1,27.73-57.81,11.92-7.36,24.78-11.37,38.89-13.23,27.37-3.6,55.13-.7,81.32,7.77l5.2,54.45c-1.01.38-2.53.62-3.59.58-19.02-29.24-49.55-65.08-86.96-53.98-11.28,3.35-19.73,12.25-22.39,22.58-6.46,25.09,14.13,39.41,36.24,48.91l31.38,13.48c30.14,12.95,55.98,32.23,59.52,66.69,1.26,12.22.42,24.03-3.94,35.52-11.27,29.65-42.57,42.03-72.95,44.63-29.98,2.57-59.53-2.06-88.58-12.37Z"/>
    </g>
    <text id="font" class="st4" transform="translate(633 522.03)"><tspan x="0" y="0">soupdog</tspan></text>
  </g>
</svg>