<?xml version="1.0" encoding="UTF-8"?>
<svg id="BLACK" xmlns="http://www.w3.org/2000/svg" version="1.1" viewBox="0 0 2491.5 799.5">
  <!-- Generator: Adobe Illustrator 30.5.0, SVG Export Plug-In . SVG Version: 2.1.4 Build 167)  -->
  <defs>
    <style>
      .st0, .st1 {
        stroke-width: 4px;
      }

      .st0, .st1, .st2, .st3 {
        stroke: #000;
        stroke-miterlimit: 10;
      }

      .st1, .st2, .st3 {
        fill: #fff;
      }

      .st2 {
        stroke-width: 2px;
      }

      .st3 {
        stroke-width: 5px;
      }
    </style>
  </defs>
  <path id="Ear" d="M151.64,299.92c13.25,56.23-76.66,89.18-116.47,68.38C-4.64,347.5-5.53,287.42,7.48,224.59,20.49,161.75,139.53,3.07,179.34,23.87c39.81,20.8-50.96,177.39-27.71,276.05Z"/>
  <path id="Ear1" data-name="Ear" d="M365.54,299.92c-13.25,56.23,76.66,89.18,116.47,68.38,39.81-20.8,40.7-80.88,27.69-143.71-13.01-62.85-132.05-221.52-171.86-200.72-39.81,20.8,50.96,177.39,27.71,276.05Z"/>
  <path class="st1" d="M285.03,323.5h-52.88c-74.32,0-134.56,60.24-134.56,134.56v61.88c0,38.46,16.13,73.14,42,97.66v122.83c0,31.51,25.55,57.06,57.06,57.06h2.87c31.51,0,57.06-25.55,57.06-57.06v-85.94h4v85.94c0,31.51,25.55,57.06,57.06,57.06h2.87c31.51,0,57.06-25.55,57.06-57.06v-122.83c25.87-24.52,42-59.21,42-97.66v-61.88c0-74.32-60.24-134.56-134.56-134.56Z"/>
  <g>
    <path d="M246.13,498.42c-6.03-.24-11.88-.66-17.5-1.24l-6.05,156.03c6.56,1.02,13.42,1.83,20.5,2.41l3.05-157.2Z"/>
    <path d="M224.64,496.75c-6.38-.75-12.44-1.71-18.09-2.84l-11.9,153.22c7.36,2.14,15.38,3.97,23.95,5.43l6.04-155.82Z"/>
    <path d="M190.73,645.94l11.87-152.87c-6.05-1.35-11.57-2.92-16.46-4.66l-17.33,148.46c6.19,3.38,13.58,6.43,21.92,9.07Z"/>
    <path d="M182.29,486.94c-7.68-3.12-13.44-6.72-16.74-10.63l-22.18,141.99c4.97,4.48,10.27,8.61,15.85,12.33,1.76,1.39,3.7,2.74,5.82,4.05l17.25-147.74Z"/>
    <path d="M139.84,615.01l22.66-145.04c-.04-.3-.07-.61-.09-.91,0-.06,0-.12,0-.18,0-.07,0-.13,0-.2,0-.07,0-.15,0-.22,0-.11,0-.22.01-.33.04-.73.17-1.46.38-2.18l26.57-139.36c-7.1,2.52-13.94,5.6-20.45,9.2l-50.15,253.26c5.95,9.5,13.04,18.21,21.07,25.96Z"/>
    <path d="M258.59,498.67c-2.85,0-5.68-.04-8.47-.12l-3.05,157.36c3.78.26,7.62.46,11.51.58v-157.83Z"/>
  </g>
  <g>
    <path d="M271.05,498.42c6.03-.24,11.88-.66,17.5-1.24l6.05,156.03c-6.56,1.02-13.42,1.83-20.5,2.41l-3.05-157.2Z"/>
    <path d="M292.54,496.75c6.38-.75,12.44-1.71,18.09-2.84l11.9,153.22c-7.36,2.14-15.38,3.97-23.95,5.43l-6.04-155.82Z"/>
    <path d="M326.44,645.94l-11.87-152.87c6.05-1.35,11.57-2.92,16.46-4.66l17.33,148.46c-6.19,3.38-13.58,6.43-21.92,9.07Z"/>
    <path d="M334.89,486.94c7.68-3.12,13.44-6.72,16.74-10.63l22.18,141.99c-4.97,4.48-10.27,8.61-15.85,12.33-1.76,1.39-3.7,2.74-5.82,4.05l-17.25-147.74Z"/>
    <path d="M377.34,615.01l-22.66-145.04c.04-.3.07-.61.09-.91,0-.06,0-.12,0-.18,0-.07,0-.13,0-.2,0-.07,0-.15,0-.22,0-.11,0-.22-.01-.33-.04-.73-.17-1.46-.38-2.18l-26.57-139.36c7.1,2.52,13.94,5.6,20.45,9.2l50.15,253.26c-5.95,9.5-13.04,18.21-21.07,25.96Z"/>
    <path d="M258.59,498.67c2.85,0,5.68-.04,8.47-.12l3.05,157.36c-3.78.26-7.62.46-11.51.58v-157.83Z"/>
  </g>
  <path id="Head" class="st3" d="M290.73,2.5h-64.29c-62.14,0-112.51,50.37-112.51,112.51l16.65,153.49c14,80,42,201,111.93,196.89h32.15c69.93,4.11,97.93-116.89,111.93-196.89l16.65-153.49c0-62.14-50.37-112.51-112.51-112.51Z"/>
  <path id="Shades" d="M135.36,127.93h95.37c12.27,0,22.23,9.96,22.23,22.23v.94c0,29.44-23.91,53.35-53.35,53.35h-33.13c-29.44,0-53.35-23.91-53.35-53.35v-.94c0-12.27,9.96-22.23,22.23-22.23Z"/>
  <rect id="Shades1" data-name="Shades" class="st0" x="242.52" y="142.13" width="32.15" height="14.47"/>
  <path id="Shades2" data-name="Shades" d="M286.44,128.03h95.37c12.27,0,22.23,9.96,22.23,22.23v.94c0,29.44-23.91,53.35-53.35,53.35h-33.13c-29.44,0-53.35-23.91-53.35-53.35v-.94c0-12.27,9.96-22.23,22.23-22.23Z"/>
  <rect x="335.34" y="537.1" width="22.5" height="3.21" transform="translate(-163.35 151.03) rotate(-20)"/>
  <rect x="336.99" y="541.63" width="22.5" height="3.21" transform="translate(-164.8 151.87) rotate(-20)"/>
  <rect class="st2" x="275.37" y="475.41" width="103.38" height="19.29" transform="translate(-16.87 958.28) rotate(-110)"/>
  <rect id="Nose" x="190.59" y="379.96" width="137.61" height="90.02" rx="45.01" ry="45.01"/>
  <g>
    <path d="M1805.48,537.53c-43.95-1.52-72.92-32.96-82.62-74.4-9-38.45-3.79-81.93,17.59-115.6,15.17-23.89,38.35-40.8,65.86-48.08,26.92-7.12,55.09-6.15,81.85,2.29l.04-48.66c-.14-10.33-1.21-20.03-3.67-29.94-3.4-13.45-9.84-24.93-19.14-35.54l83.37-26.18v282.36c.64,13.56,1.09,26.14,3.62,39.12,2.6,13.88,8.74,25.3,19.83,35.6l-82.05,18.17-.22-47.71c-7.21,10.92-13.78,19.84-23.26,27.61-17.15,14.54-38.57,21.85-61.2,20.96ZM1796.4,478.94c8.33,13.26,20.79,21.76,36.16,23.41,21.29,2.28,41.96-5.75,55.63-22.03v-125.35c-3.27-20.15-12.38-42.3-32.08-49.33-15.22-5.43-32.21-2.09-44.39,8.43-6.49,5.61-11.47,11.97-15.43,19.56-15.85,30.37-17.74,74.91-12.59,108.51,2.03,13.21,5.79,25.29,12.7,36.79Z"/>
    <path d="M1607.47,533.45c-28.69,6.59-57.59,5.57-85.99-3.78l.95,57c.29,17.33,3.85,33.67,9.73,50.64h-82.91c6.92-19.34,10.26-38.59,10.99-58.53l.56-15.32v-182.76c-.84-24.04-6.83-43.62-22.69-62.02l81.3-26.16.06,40.48c1.49.94,3.78.41,4.3-1.08l6.19-6.79c32.16-35.28,91.44-42.32,127-8.24,34.01,32.59,40.62,90.86,29.87,135.11-9.96,41.01-37.83,70.94-79.37,81.45ZM1625.63,459.99c4.49-31.33,4.44-74.74-10.35-102.82-8.58-16.27-23.64-26.37-41.96-28.07-18.62-1.73-37.18,2.79-51.93,14.86l.2,111.3c.04,22.09,6.76,49.92,23.8,64.17,16.43,13.74,40.04,13.19,55.36-1.71,14.88-14.47,21.91-37.1,24.87-57.73Z"/>
    <path d="M2474.68,599.63c-34.02,39.44-110.38,43.04-159.32,35.44-19.13-2.97-39.82-9.47-53.79-22.34-15.86-14.61-14.95-38.01,1.48-51.94,9.2-7.81,20.22-12.24,32.54-15.43l-15.15-8.64c-9.72-7.17-15.16-17.85-15.93-29.92-1.95-30.93,21.19-50.87,50.31-59.22-21.89-11.05-39.01-28.24-45.4-51.52-6.99-25.45.05-52.18,17.98-71.43,11.28-12.12,25.33-20.1,41.19-25.07,33.75-9.69,71.43-5.13,99.47,17l63.37-37.83.08,48.71-55.29-3.88c6.98,7.92,12.52,15.7,16.48,25.19,11.5,27.55,5.03,58.58-15.87,79.89-29.65,30.24-77.07,36.21-116.13,21.66l-7.95,5.91c-7.34,6.84-9.72,18.17-4.34,26.87,6.2,10.03,25.51,12.7,38.07,13.18l56.45,2.14c14.67.56,28.65,3.38,42.43,8.06,23.61,8.01,42.98,24.05,44.26,50.06.79,16.08-4.44,31-14.91,43.14ZM2377.75,445.35c23.81-14.56,23.31-65.91,20.71-92.25-1.58-16.02-6.28-36.21-19.69-45.15-9.57-6.38-22.64-6.62-32.41-.6-12.5,7.71-17.3,26.32-18.95,41.01-2.03,18.06-2.18,35.89-.12,53.94,1.73,15.25,6.59,34.18,19.34,42.63,9.13,6.05,21.53,6.29,31.13.42ZM2447.11,603.03c7.51-8.56,9.03-20.81,2.98-30.08-3.92-6.01-10.24-9.44-16.99-11.62-9.32-3-18.71-4.77-28.69-5.27l-68.4-3.44c-11.47-.58-22.21-2.36-33.29-5.4-6.82,7.36-9.83,17.04-10.01,27.06-.24,13.72,5.89,25.79,16.95,33.7,18.25,13.04,43.93,15.7,66.39,15.64,22.87-.06,55.69-3.07,71.07-20.59Z"/>
    <path d="M1393.8,452.72c0,11.28.94,21,2.61,31.4,1.22,7.55,3.68,14.9,7.89,21.18,3.29,4.92,7.44,8.28,12.17,13.24l-80.49,18.15-.17-57.13c-7.82,13.69-15.45,25.96-26.44,36.59-17.58,17.01-40.85,24.84-65.06,20.23-17.71-3.37-31.88-14.56-39.64-30.98-6.02-12.74-9.09-26.38-9.12-40.9l-.25-113.36c-.02-10.69-2.32-20.46-6.22-30.14-3.35-7.09-7.96-12.52-13.25-19.1l79.75-.05.08,159.05c0,7.57,2.33,14.61,5.44,20.91,4.72,9.54,13.72,15.14,24.06,16.54,22.16,3,38.35-7.51,48.44-27.18v-120.15s-2.4-18.3-2.4-18.3c-2.81-11.98-9.02-21.57-18.04-30.81l80.6-.07.03,150.88Z"/>
    <path d="M1144.06,469.92c-34.19,65.35-117.13,88.26-179.64,47.13-17.59-11.58-31.89-26.96-41.96-45.52-32.34-59.62-5.43-130.75,52.52-162.06,40.88-22.09,90.3-18.96,128.41,7.57,49.49,34.46,69.35,98.07,40.67,152.88ZM1036.32,528.71c28.08-1.69,42.97-26.99,50-52.5,5.43-19.7,7.02-39.5,7-60.05-.02-21.6-1.98-42.52-8.26-63.06-7.88-25.77-23.9-49.16-52.1-49.13-36.65.04-52.08,39.15-56.99,71.96-4.14,27.7-4.13,55.41.23,83.07,5.43,34.46,21.8,72.01,60.11,69.7Z"/>
    <path d="M2225.92,470.57c-31.47,59.16-103.82,84.2-164.81,54.67-50.86-24.62-81.2-80.31-66.79-136.1,9.63-37.29,35.85-67.8,70.9-83.6,63.04-28.41,135.92,1.82,163.95,63.67,14.81,32.67,13.57,69.73-3.26,101.36ZM2150.13,512.87c13.34-15.09,19.9-37.52,22.78-57.68,4.82-33.82,3.82-75.9-7.67-108.09-3.58-10.02-8.35-18.86-15.17-26.89-15.89-18.7-43.81-21.85-63-6.37-33.26,26.83-34.75,97.68-29.7,138.19,2.8,22.49,9.93,48.58,26.19,64.24,18.53,17.85,48.72,16.81,66.57-3.4Z"/>
    <path d="M719.18,524.53l-5.68-63.2c.73-.74,2.62-1.15,3.46-.79,20.24,34.5,51.18,76.66,95.53,67.56,14.74-3.03,25.39-14.15,27.41-29.02,1.3-9.59-.34-19.24-6.34-27.03-19.56-25.39-64.79-29.97-94.85-57.57-13.41-12.31-20.55-29.01-21.39-47.16-1.1-23.82,7.14-45.1,27.73-57.81,11.92-7.36,24.78-11.37,38.89-13.23,27.37-3.6,55.13-.7,81.32,7.77l5.2,54.45c-1.01.38-2.53.62-3.59.58-19.02-29.24-49.55-65.08-86.96-53.98-11.28,3.35-19.73,12.25-22.39,22.58-6.46,25.09,14.13,39.41,36.24,48.91l31.38,13.48c30.14,12.95,55.98,32.23,59.52,66.69,1.26,12.22.42,24.03-3.94,35.52-11.27,29.65-42.57,42.03-72.95,44.63-29.98,2.57-59.53-2.06-88.58-12.37Z"/>
  </g>
</svg>