<?xml version="1.0" encoding="UTF-8"?>
<svg xmlns="http://www.w3.org/2000/svg" version="1.1" viewBox="0 0 2352.01 800">
  <!-- Generator: Adobe Illustrator 30.5.0, SVG Export Plug-In . SVG Version: 2.1.4 Build 167)  -->
  <defs>
    <style>
      .st0 {
        fill: #fff;
      }

      .st1 {
        font-family: CanelaTrial-Medium, 'Canela Trial';
        font-size: 469.83px;
        font-weight: 500;
        letter-spacing: 0em;
      }

      .st2 {
        display: none;
      }
    </style>
  </defs>
  <g id="BLACK">
    <g id="Text">
      <g class="st2">
        <path d="M1666,537.35c-43.95-1.52-72.92-32.96-82.62-74.4-9-38.45-3.79-81.93,17.59-115.6,15.17-23.89,38.35-40.8,65.86-48.08,26.92-7.12,55.09-6.15,81.85,2.29l.04-48.66c-.14-10.33-1.21-20.03-3.67-29.94-3.4-13.45-9.84-24.93-19.14-35.54l83.37-26.18v282.36c.64,13.56,1.09,26.14,3.62,39.12,2.6,13.88,8.74,25.3,19.83,35.6l-82.05,18.17-.22-47.71c-7.21,10.92-13.78,19.84-23.26,27.61-17.15,14.54-38.57,21.85-61.2,20.96ZM1656.91,478.76c8.33,13.26,20.79,21.76,36.16,23.41,21.29,2.28,41.96-5.75,55.63-22.03v-125.35c-3.27-20.15-12.38-42.3-32.08-49.33-15.22-5.43-32.21-2.09-44.39,8.43-6.49,5.61-11.47,11.97-15.43,19.56-15.85,30.37-17.74,74.91-12.59,108.51,2.03,13.21,5.79,25.29,12.7,36.79Z"/>
        <path d="M1467.98,533.27c-28.69,6.59-57.59,5.57-85.99-3.78l.95,57c.29,17.33,3.85,33.67,9.73,50.64h-82.91c6.92-19.34,10.26-38.59,10.99-58.53l.56-15.32v-182.76c-.84-24.04-6.83-43.62-22.69-62.02l81.3-26.16.06,40.48c1.49.94,3.78.41,4.3-1.08l6.19-6.79c32.16-35.28,91.44-42.32,127-8.24,34.01,32.59,40.62,90.86,29.87,135.11-9.96,41.01-37.83,70.94-79.37,81.45ZM1486.14,459.81c4.49-31.33,4.44-74.74-10.35-102.82-8.58-16.27-23.64-26.37-41.96-28.07-18.62-1.73-37.18,2.79-51.93,14.86l.2,111.3c.04,22.09,6.76,49.92,23.8,64.17,16.43,13.74,40.04,13.19,55.36-1.71,14.88-14.47,21.91-37.1,24.87-57.73Z"/>
        <path d="M2335.19,599.45c-34.02,39.44-110.38,43.04-159.32,35.44-19.13-2.97-39.82-9.47-53.79-22.34-15.86-14.61-14.95-38.01,1.48-51.94,9.2-7.81,20.22-12.24,32.54-15.43l-15.15-8.64c-9.72-7.17-15.16-17.85-15.93-29.92-1.95-30.93,21.19-50.87,50.31-59.22-21.89-11.05-39.01-28.24-45.4-51.52-6.99-25.45.05-52.18,17.98-71.43,11.28-12.12,25.33-20.1,41.19-25.07,33.75-9.69,71.43-5.13,99.47,17l63.37-37.83.08,48.71-55.29-3.88c6.98,7.92,12.52,15.7,16.48,25.19,11.5,27.55,5.03,58.58-15.87,79.89-29.65,30.24-77.07,36.21-116.13,21.66l-7.95,5.91c-7.34,6.84-9.72,18.17-4.34,26.87,6.2,10.03,25.51,12.7,38.07,13.18l56.45,2.14c14.67.56,28.65,3.38,42.43,8.06,23.61,8.01,42.98,24.05,44.26,50.06.79,16.08-4.44,31-14.91,43.14ZM2238.26,445.17c23.81-14.56,23.31-65.91,20.71-92.25-1.58-16.02-6.28-36.21-19.69-45.15-9.57-6.38-22.64-6.62-32.41-.6-12.5,7.71-17.3,26.32-18.95,41.01-2.03,18.06-2.18,35.89-.12,53.94,1.73,15.25,6.59,34.18,19.34,42.63,9.13,6.05,21.53,6.29,31.13.42ZM2307.62,602.85c7.51-8.56,9.03-20.81,2.98-30.08-3.92-6.01-10.24-9.44-16.99-11.62-9.32-3-18.71-4.77-28.69-5.27l-68.4-3.44c-11.47-.58-22.21-2.36-33.29-5.4-6.82,7.36-9.83,17.04-10.01,27.06-.24,13.72,5.89,25.79,16.95,33.7,18.25,13.04,43.93,15.7,66.39,15.64,22.87-.06,55.69-3.07,71.07-20.59Z"/>
        <path d="M1254.31,452.54c0,11.28.94,21,2.61,31.4,1.22,7.55,3.68,14.9,7.89,21.18,3.29,4.92,7.44,8.28,12.17,13.24l-80.49,18.15-.17-57.13c-7.82,13.69-15.45,25.96-26.44,36.59-17.58,17.01-40.85,24.84-65.06,20.23-17.71-3.37-31.88-14.56-39.64-30.98-6.02-12.74-9.09-26.38-9.12-40.9l-.25-113.36c-.02-10.69-2.32-20.46-6.22-30.14-3.35-7.09-7.96-12.52-13.25-19.1l79.75-.05.08,159.05c0,7.57,2.33,14.61,5.44,20.91,4.72,9.54,13.72,15.14,24.06,16.54,22.16,3,38.35-7.51,48.44-27.18v-120.15s-2.4-18.3-2.4-18.3c-2.81-11.98-9.02-21.57-18.04-30.81l80.6-.07.03,150.88Z"/>
        <path d="M1004.57,469.74c-34.19,65.35-117.13,88.26-179.64,47.13-17.59-11.58-31.89-26.96-41.96-45.52-32.34-59.62-5.43-130.75,52.52-162.06,40.88-22.09,90.3-18.96,128.41,7.57,49.49,34.46,69.35,98.07,40.67,152.88ZM896.83,528.53c28.08-1.69,42.97-26.99,50-52.5,5.43-19.7,7.02-39.5,7-60.05-.02-21.6-1.98-42.52-8.26-63.06-7.88-25.77-23.9-49.16-52.1-49.13-36.65.04-52.08,39.15-56.99,71.96-4.14,27.7-4.13,55.41.23,83.07,5.43,34.46,21.8,72.01,60.11,69.7Z"/>
        <path d="M2086.43,470.39c-31.47,59.16-103.82,84.2-164.81,54.67-50.86-24.62-81.2-80.31-66.79-136.1,9.63-37.29,35.85-67.8,70.9-83.6,63.04-28.41,135.92,1.82,163.95,63.67,14.81,32.67,13.57,69.73-3.26,101.36ZM2010.64,512.69c13.34-15.09,19.9-37.52,22.78-57.68,4.82-33.82,3.82-75.9-7.67-108.09-3.58-10.02-8.35-18.86-15.17-26.89-15.89-18.7-43.81-21.85-63-6.37-33.26,26.83-34.75,97.68-29.7,138.19,2.8,22.49,9.93,48.58,26.19,64.24,18.53,17.85,48.72,16.81,66.57-3.4Z"/>
        <path d="M579.69,524.36l-5.68-63.2c.73-.74,2.62-1.15,3.46-.79,20.24,34.5,51.18,76.66,95.53,67.56,14.74-3.03,25.39-14.15,27.41-29.02,1.3-9.59-.34-19.24-6.34-27.03-19.56-25.39-64.79-29.97-94.85-57.57-13.41-12.31-20.55-29.01-21.39-47.16-1.1-23.82,7.14-45.1,27.73-57.81,11.92-7.36,24.78-11.37,38.89-13.23,27.37-3.6,55.13-.7,81.32,7.77l5.2,54.45c-1.01.38-2.53.62-3.59.58-19.02-29.24-49.55-65.08-86.96-53.98-11.28,3.35-19.73,12.25-22.39,22.58-6.46,25.09,14.13,39.41,36.24,48.91l31.38,13.48c30.14,12.95,55.98,32.23,59.52,66.69,1.26,12.22.42,24.03-3.94,35.52-11.27,29.65-42.57,42.03-72.95,44.63-29.98,2.57-59.53-2.06-88.58-12.37Z"/>
      </g>
      <text id="font" class="st1" transform="translate(545.51 521.74)"><tspan x="0" y="0">soupdog</tspan></text>
    </g>
  </g>
  <g id="Round">
    <path class="st0" d="M355.96,614.44l-.72-15.02c11.29-11.75,17.84-25.73,24.27-40.53-3.93,20.15-11.47,38.37-23.55,55.55Z"/>
    <path d="M240.62,773.63l-.99-1.18c-8.97,16.33-26.77,27.46-47.6,27.49l-35.37.06c-13.25-1.08-25.52-5.19-34.77-13.56-15.58-14.11-19.1-35.15-9.85-52.87v-133c-11.57-11.23-20.15-23.89-26.11-37.91-6.67-15.87-10.01-31.85-10.83-48.9l-.02-105.07c0-39.2,20.32-75.91,56.28-99.59l-2.76-11.96c-13.6,13.27-29.43,24.1-49.11,27.97-22.15,4.35-44.67-1.6-59.6-16.44S.35,275.4.02,255.73c-.67-40.62,14.24-76.9,36.56-112.16,22.79-35.99,58.5-82.55,93.01-110.1,11.56-9.23,23.96-16.84,38.34-22.39C185.14,4.45,203.08.72,222.01.26c13.19-.32,25.55-.36,38.77,0,33.98.89,65.6,12.63,90.38,32.6l16.38,14.29c26.79,25.76,49.3,54.74,69.32,84.86,25.86,38.91,43.49,76.22,42.81,121.98-.28,19.21-5.66,37.99-19.93,52.5-22.18,22.55-58.14,23.81-85.85,7.04-8.45-5.1-15.94-11.15-22.66-18.28l-2.89,12.35c33.03,21.89,56.45,58.62,56.53,95.29l.23,110.88c-1.22,32.92-11.79,62.78-37.29,87.07l.03,132.62c6.85,12.77,6.66,26.85.37,39.61-8.04,15.97-25.35,25.93-45.46,26.9l-37.26-.14c-19.69-.8-36.41-10.93-44.86-26.18ZM267.76,114.45h84.27c6.27,0,11.36,3.39,13.67,8.06l5.65.55-.61-3.24c-.05-12.26-.8-23.95-4.24-35.82-8.66-29.89-29.53-52.38-62.41-64.17-14.1-5.05-28.64-8.13-44.04-8.11l-38,.04c-10.18.01-19.82,1.62-29.63,3.83-17.21,3.87-32.96,11.01-46.2,21.23-21.03,16.22-34.5,44.79-35.8,68.97l-.66,12.31c-.09,1.68-.41,2.77-1.01,4.86l5.72-.32c2.58-4.76,7.81-8.19,14.28-8.19h85.86c8.03.01,14.28,5.03,16.62,11.02l19.54.03c2.33-6.08,8.66-11.05,17-11.05ZM261.96,312.48c7.28.65,13.53,2.58,19.6,5.33,27.96,14.54,27.97,43.54,10.31,65.8,14.73-8.88,25.13-21.06,31.8-35.23,5.45-11.58,9.41-23.05,12.07-35.44l14.83-69.05,17.33-95.13c.61-3.34,1.97-5.36,4.36-8.08-2.82-.33-5.6-.24-8.13.66-3.62,18.52-14.22,35.17-36.8,37.59-12.75,1.37-25.22,1.4-37.96.31-24.19-2.06-35.59-18.3-38.93-38.29-6.28-.76-12.53-.8-18.76-.05-1.47,6.61-2.95,12.61-6.19,18.47-6.17,11.18-17.8,18.55-32.1,19.81-13.1,1.16-25.91,1.28-38.98.1-23.22-2.1-33.78-19.07-37.88-37.83-2.66-1.09-5.74-1.14-8.33-.55,3.59,3.63,4.65,6.64,5.34,10.69l6.21,36.29,11.35,63.32c4.2,23.44,8.37,46.23,14.56,69.27,7.24,26.93,17.99,51.75,46.63,66.65-10.84-10.61-16.64-23.65-15.48-37.68,1.56-18.83,16.94-33.29,38.37-36.42,15.42-1.86,30.77-2,46.76-.57ZM374.43,541.47c9.76-15.83,15.04-31.28,17.91-47.97l-.27-90.63c-.09-29.98-15.81-57.65-40.37-78.04l-6.64-4.57-5.9,18.05,4.91,29.68,9.62,56.69,13.09,75.75,7.64,41.03ZM120.91,460.66l6.53-37.98,13.66-81.65-6.23-19.86c-29.01,20.8-45.65,50.55-46.94,82.85l-.14,86.48,2.09,13.53c3.76,13.49,8.79,26.43,16.79,38.76l14.23-82.13ZM327.97,424.25l-7.95-51.64-12.05,11.86,20,39.78ZM246.34,746.79c0,8.79,1.74,16.76,6.77,24.19,6.98,10.31,18.95,17.6,32.99,17.61l36,.03c8.79,0,17.04-2.9,23.69-7.76,14.71-10.73,18.43-29.09,9.61-43.78-4.86-8.1-12.61-12.93-22.18-17.38,7.91-2.09,15.13.08,21.94,3.39v-140.31s-3.88,2.71-3.88,2.71l-13.67-91.95-3.02-21.92-7.75,2.82,6.79,50.37,9.19,67.12c-8.87,6.58-19.2,11.59-29.98,15.96l-5.2-52.9-11.07-108.49,6.17-1.84-22.5-44.82c-18.76,7.53-39.68,7.56-60.61,5.65-18.39-2.13-34.77-9.12-48.28-20.11l-11.17-10.6-18,121.82-10.44,68.23-3.11,20.22-3.91-2.7.03,140.85c7.09-3.38,13.99-5.57,21.71-3.57l-13.61,8.24c-9.69,7.54-14.34,18.18-12.95,29.5,2.34,19.11,19.06,31.48,40.74,31.39l32.05-.13c23.15-.1,40.65-19.53,40.66-39.5l.09-127.53-10.25-.7,2.17-71.06,2.84-96.75,26.26-.43,1.48,45.54,3.45,94.02.77,28.52-13.83.96v125.1ZM318.22,462.94c5.58-4.86,11.3-7.68,18.72-8.44l-36.3-69.68-15.84,9.29,33.42,68.83ZM322.13,469.2c7.65.32,13.32-3.26,17.27-7.73v-1.88c-.02-1.37-9.26.06-15.91,5.4-1.3,1.05-2.64,3.35-1.36,4.2ZM368.31,584.47c12.95-15.44,20.06-32.57,23.03-51.05-6.35,13.06-13.72,25.28-23.57,36.62l.54,14.43ZM111.79,584.32l.34-14.64c-9.44-11.08-16.37-22.71-22.65-35.58,2.83,16.88,10.1,36.37,22.3,50.22Z"/>
    <path class="st0" d="M246.34,746.79v-125.1s13.83-.96,13.83-.96l-.77-28.52-3.45-94.02-1.48-45.54-26.26.43-2.84,96.75-2.17,71.06,10.25.7-.09,127.53c-.01,19.98-17.51,39.41-40.66,39.5l-32.05.13c-21.68.09-38.4-12.28-40.74-31.39-1.39-11.32,3.26-21.96,12.95-29.5l13.61-8.24c-7.72-2-14.63.19-21.71,3.57l-.03-140.85,3.91,2.7,3.11-20.22,10.44-68.23,18-121.82,11.17,10.6c13.5,10.99,29.88,17.97,48.28,20.11,20.93,1.91,41.86,1.88,60.61-5.65l22.5,44.82-6.17,1.84,11.07,108.49,5.2,52.9c10.78-4.36,21.11-9.38,29.98-15.96l-9.19-67.12-6.79-50.37,7.75-2.82,3.02,21.92,13.67,91.95,3.89-2.71v140.31c-6.82-3.31-14.03-5.48-21.95-3.39,9.57,4.44,17.32,9.28,22.18,17.38,8.82,14.69,5.1,33.05-9.61,43.78-6.66,4.86-14.91,7.76-23.69,7.76l-36-.03c-14.04-.01-26-7.3-32.99-17.61-5.03-7.43-6.77-15.4-6.77-24.19ZM167.8,608.09l4.23-37.98,13.07-122.83c-9.29-2.61-17.8-5.85-26.36-9.91l-5.49,40.99-7.83,55.27-8.27,58.11c9.56,6.53,19.54,12.29,30.65,16.35ZM303.33,611.36l-5.55-62.18-3.46-39.5-6.02-61.5-25.56,3.83,4.62,97.83,3.31,69.53c11.39-1.74,21.83-4.61,32.66-8ZM212.75,619.86l7.23-167.26-26.87-3.47-15.41,162.67c11.73,3.72,23.08,6.59,35.04,8.07Z"/>
    <path class="st0" d="M261.96,312.48c-15.99-1.42-31.34-1.28-46.76.57-21.43,3.14-36.81,17.59-38.37,36.42-1.16,14.03,4.64,27.07,15.48,37.68-28.65-14.9-39.4-39.72-46.63-66.65-6.19-23.03-10.36-45.82-14.56-69.27l-11.35-63.32-6.21-36.29c-.69-4.04-1.75-7.06-5.34-10.69,2.6-.6,5.68-.54,8.33.55,4.1,18.76,14.66,35.73,37.88,37.83,13.07,1.18,25.88,1.07,38.98-.1,14.3-1.27,25.93-8.64,32.1-19.81,3.24-5.87,4.72-11.87,6.19-18.47,6.23-.76,12.49-.72,18.76.05,3.34,19.99,14.74,36.23,38.93,38.29,12.74,1.09,25.21,1.05,37.96-.31,22.58-2.42,33.18-19.07,36.8-37.59,2.53-.89,5.31-.98,8.13-.66-2.39,2.72-3.75,4.74-4.36,8.08l-17.33,95.13-14.83,69.05c-2.66,12.39-6.62,23.86-12.07,35.44-6.67,14.17-17.07,26.35-31.8,35.23,17.65-22.27,17.64-51.26-10.31-65.8-6.08-2.75-12.33-4.68-19.6-5.33Z"/>
    <path class="st0" d="M267.76,114.45c-8.33,0-14.66,4.97-17,11.05l-19.54-.03c-2.33-5.99-8.59-11.01-16.62-11.01h-85.86c-6.46-.01-11.7,3.42-14.28,8.18l-5.72.32c.6-2.1.91-3.19,1.01-4.86l.66-12.31c1.31-24.18,14.77-52.74,35.8-68.97,13.24-10.21,28.99-17.36,46.2-21.23,9.81-2.2,19.44-3.81,29.63-3.83l38-.04c15.4-.02,29.94,3.06,44.04,8.11,32.88,11.79,53.76,34.28,62.41,64.17,3.44,11.88,4.19,23.56,4.24,35.82l.61,3.24-5.65-.55c-2.31-4.67-7.4-8.05-13.67-8.05h-84.27Z"/>
    <path class="st0" d="M120.91,460.66l-14.23,82.13c-7.99-12.33-13.03-25.28-16.79-38.76l-2.09-13.53.14-86.48c1.29-32.3,17.93-62.06,46.94-82.85l6.23,19.86-13.66,81.65-6.53,37.98Z"/>
    <path class="st0" d="M374.43,541.47l-7.64-41.03-13.09-75.75-9.62-56.69-4.91-29.68,5.9-18.05,6.64,4.57c24.56,20.39,40.28,48.06,40.37,78.04l.27,90.63c-2.87,16.69-8.15,32.14-17.91,47.97Z"/>
    <path class="st0" d="M318.22,462.94l-33.42-68.83,15.84-9.29,36.3,69.68c-7.43.76-13.15,3.58-18.72,8.44Z"/>
    <polygon class="st0" points="327.97 424.25 307.97 384.47 320.02 372.61 327.97 424.25"/>
    <path class="st0" d="M368.31,584.47l-.54-14.43c9.85-11.33,17.22-23.55,23.57-36.62-2.97,18.47-10.08,35.61-23.03,51.05Z"/>
    <path class="st0" d="M111.79,584.32c-12.2-13.85-19.47-33.34-22.3-50.22,6.27,12.87,13.2,24.5,22.65,35.58l-.34,14.64Z"/>
    <path class="st0" d="M322.13,469.2c-1.28-.85.06-3.16,1.36-4.2,6.65-5.34,15.89-6.77,15.9-5.4v1.88c-3.94,4.47-9.61,8.05-17.26,7.73Z"/>
    <path d="M212.75,619.86c-11.96-1.48-23.31-4.35-35.04-8.07l15.41-162.67,26.87,3.47-7.23,167.26Z"/>
    <path d="M303.33,611.36c-10.83,3.39-21.28,6.25-32.66,8l-3.31-69.53-4.62-97.83,25.56-3.83,6.02,61.5,3.46,39.5,5.55,62.18Z"/>
    <path d="M167.8,608.09c-11.1-4.05-21.09-9.82-30.65-16.35l8.27-58.11,7.83-55.27,5.49-40.99c8.56,4.06,17.07,7.3,26.36,9.91l-13.07,122.83-4.23,37.98Z"/>
  </g>
</svg>